<?xml version="1.0" encoding="UTF-8"?><svg xmlns="http://www.w3.org/2000/svg" xmlns:xlink="http://www.w3.org/1999/xlink" width="1050" zoomAndPan="magnify" viewBox="0 0 1050 525.000007" height="525.000007" preserveAspectRatio="xMidYMid meet" version="1.0"><defs><clipPath id="clip-0"><path d="M 643 344.863281 L 663 344.863281 L 663 353 L 643 353 Z M 643 344.863281 " clip-rule="nonzero"/></clipPath><clipPath id="clip-1"><path d="M 571.050781 407.621094 C 571.945312 406.117188 611.148438 356.414062 611.148438 356.414062 C 611.148438 356.414062 613.054688 350.515625 614.78125 348.980469 C 617.128906 346.894531 627.890625 347.851562 638.011719 349.402344 C 646.210938 350.660156 659.300781 344.226562 661.859375 344.972656 C 664.878906 345.851562 656.105469 355.273438 645.039062 359.125 C 635.15625 362.566406 621.808594 362.214844 621.402344 363.050781 C 619.632812 366.675781 614.546875 377.234375 610.40625 386.964844 C 605.3125 398.945312 596.992188 415.707031 591.175781 424.117188 C 582.496094 436.660156 579.113281 434.324219 575.921875 430.878906 C 568.746094 423.132812 570.160156 409.125 571.050781 407.621094 Z M 571.050781 407.621094 " clip-rule="nonzero"/></clipPath><clipPath id="clip-2"><path d="M 644 344.863281 L 663 344.863281 L 663 358 L 644 358 Z M 644 344.863281 " clip-rule="nonzero"/></clipPath><clipPath id="clip-3"><path d="M 571.050781 407.621094 C 571.945312 406.117188 611.148438 356.414062 611.148438 356.414062 C 611.148438 356.414062 613.054688 350.515625 614.78125 348.980469 C 617.128906 346.894531 627.890625 347.851562 638.011719 349.402344 C 646.210938 350.660156 659.300781 344.226562 661.859375 344.972656 C 664.878906 345.851562 656.105469 355.273438 645.039062 359.125 C 635.15625 362.566406 621.808594 362.214844 621.402344 363.050781 C 619.632812 366.675781 614.546875 377.234375 610.40625 386.964844 C 605.3125 398.945312 596.992188 415.707031 591.175781 424.117188 C 582.496094 436.660156 579.113281 434.324219 575.921875 430.878906 C 568.746094 423.132812 570.160156 409.125 571.050781 407.621094 Z M 571.050781 407.621094 " clip-rule="nonzero"/></clipPath><clipPath id="clip-4"><path d="M 387 351.054688 L 407 351.054688 L 407 360 L 387 360 Z M 387 351.054688 " clip-rule="nonzero"/></clipPath><clipPath id="clip-5"><path d="M 478.730469 414.082031 C 477.839844 412.578125 438.632812 362.875 438.632812 362.875 C 438.632812 362.875 436.726562 356.976562 435 355.441406 C 432.65625 353.355469 421.894531 354.3125 411.773438 355.863281 C 403.574219 357.121094 390.484375 350.6875 387.925781 351.433594 C 384.902344 352.3125 393.679688 361.734375 404.742188 365.585938 C 414.625 369.027344 427.972656 368.675781 428.382812 369.511719 C 430.148438 373.136719 435.238281 383.695312 439.375 393.425781 C 444.472656 405.40625 451.820312 422.933594 458.609375 430.578125 C 466.5625 439.535156 470.902344 441.035156 474.089844 437.589844 C 481.269531 429.84375 479.625 415.585938 478.730469 414.082031 Z M 478.730469 414.082031 " clip-rule="nonzero"/></clipPath><clipPath id="clip-6"><path d="M 387 351.054688 L 406 351.054688 L 406 364 L 387 364 Z M 387 351.054688 " clip-rule="nonzero"/></clipPath><clipPath id="clip-7"><path d="M 478.730469 414.082031 C 477.839844 412.578125 438.632812 362.875 438.632812 362.875 C 438.632812 362.875 436.726562 356.976562 435 355.441406 C 432.65625 353.355469 421.894531 354.3125 411.773438 355.863281 C 403.574219 357.121094 390.484375 350.6875 387.925781 351.433594 C 384.902344 352.3125 393.679688 361.734375 404.742188 365.585938 C 414.625 369.027344 427.972656 368.675781 428.382812 369.511719 C 430.148438 373.136719 435.238281 383.695312 439.375 393.425781 C 444.472656 405.40625 451.820312 422.933594 458.609375 430.578125 C 466.5625 439.535156 470.902344 441.035156 474.089844 437.589844 C 481.269531 429.84375 479.625 415.585938 478.730469 414.082031 Z M 478.730469 414.082031 " clip-rule="nonzero"/></clipPath><clipPath id="clip-8"><path d="M 508.046875 272 L 517 272 L 517 290 L 508.046875 290 Z M 508.046875 272 " clip-rule="nonzero"/></clipPath><clipPath id="clip-9"><path d="M 551.515625 262.816406 C 551.460938 259.613281 551.179688 265.144531 546.292969 266.800781 C 543.46875 267.757812 540.050781 268.210938 537.410156 265.382812 C 536.25 264.132812 534.339844 265.382812 532.15625 267.097656 C 527.601562 270.667969 526.566406 270.238281 523.367188 271.699219 C 520.835938 272.855469 519.832031 276.613281 519.832031 276.613281 C 519.832031 276.613281 516.515625 268.847656 513.527344 268.855469 C 510.535156 268.863281 509.320312 273.304688 509.914062 277.597656 C 511.347656 287.910156 516.097656 289.773438 516.097656 289.773438 C 516.097656 289.773438 514.59375 313.273438 511.925781 316.464844 C 509.398438 319.488281 508.335938 320.484375 508.09375 320.382812 C 508.09375 320.382812 520.273438 361.019531 531.605469 361.019531 C 543.4375 361.019531 559.464844 322.210938 559.464844 322.210938 C 559.464844 322.210938 543.785156 322.722656 543.164062 317.5625 C 542.527344 312.28125 543.347656 306.128906 543.347656 306.128906 C 543.347656 306.128906 552.078125 302.144531 553.382812 296.367188 C 554.273438 292.421875 554.679688 281.457031 555.953125 276.113281 C 557.226562 270.773438 555.875 272.046875 553.269531 268.378906 C 552.082031 266.714844 551.496094 264.859375 551.515625 262.816406 Z M 551.515625 262.816406 " clip-rule="nonzero"/></clipPath><clipPath id="clip-10"><path d="M 530 303 L 547 303 L 547 313 L 530 313 Z M 530 303 " clip-rule="nonzero"/></clipPath><clipPath id="clip-11"><path d="M 551.515625 262.816406 C 551.460938 259.613281 551.179688 265.144531 546.292969 266.800781 C 543.46875 267.757812 540.050781 268.210938 537.410156 265.382812 C 536.25 264.132812 534.339844 265.382812 532.15625 267.097656 C 527.601562 270.667969 526.566406 270.238281 523.367188 271.699219 C 520.835938 272.855469 519.832031 276.613281 519.832031 276.613281 C 519.832031 276.613281 516.515625 268.847656 513.527344 268.855469 C 510.535156 268.863281 509.320312 273.304688 509.914062 277.597656 C 511.347656 287.910156 516.097656 289.773438 516.097656 289.773438 C 516.097656 289.773438 514.59375 313.273438 511.925781 316.464844 C 509.398438 319.488281 508.335938 320.484375 508.09375 320.382812 C 508.09375 320.382812 520.273438 361.019531 531.605469 361.019531 C 543.4375 361.019531 559.464844 322.210938 559.464844 322.210938 C 559.464844 322.210938 543.785156 322.722656 543.164062 317.5625 C 542.527344 312.28125 543.347656 306.128906 543.347656 306.128906 C 543.347656 306.128906 552.078125 302.144531 553.382812 296.367188 C 554.273438 292.421875 554.679688 281.457031 555.953125 276.113281 C 557.226562 270.773438 555.875 272.046875 553.269531 268.378906 C 552.082031 266.714844 551.496094 264.859375 551.515625 262.816406 Z M 551.515625 262.816406 " clip-rule="nonzero"/></clipPath><clipPath id="clip-12"><path d="M 548 281 L 559 281 L 559 292 L 548 292 Z M 548 281 " clip-rule="nonzero"/></clipPath><clipPath id="clip-13"><path d="M 551.515625 262.816406 C 551.460938 259.613281 551.179688 265.144531 546.292969 266.800781 C 543.46875 267.757812 540.050781 268.210938 537.410156 265.382812 C 536.25 264.132812 534.339844 265.382812 532.15625 267.097656 C 527.601562 270.667969 526.566406 270.238281 523.367188 271.699219 C 520.835938 272.855469 519.832031 276.613281 519.832031 276.613281 C 519.832031 276.613281 516.515625 268.847656 513.527344 268.855469 C 510.535156 268.863281 509.320312 273.304688 509.914062 277.597656 C 511.347656 287.910156 516.097656 289.773438 516.097656 289.773438 C 516.097656 289.773438 514.59375 313.273438 511.925781 316.464844 C 509.398438 319.488281 508.335938 320.484375 508.09375 320.382812 C 508.09375 320.382812 520.273438 361.019531 531.605469 361.019531 C 543.4375 361.019531 559.464844 322.210938 559.464844 322.210938 C 559.464844 322.210938 543.785156 322.722656 543.164062 317.5625 C 542.527344 312.28125 543.347656 306.128906 543.347656 306.128906 C 543.347656 306.128906 552.078125 302.144531 553.382812 296.367188 C 554.273438 292.421875 554.679688 281.457031 555.953125 276.113281 C 557.226562 270.773438 555.875 272.046875 553.269531 268.378906 C 552.082031 266.714844 551.496094 264.859375 551.515625 262.816406 Z M 551.515625 262.816406 " clip-rule="nonzero"/></clipPath><clipPath id="clip-14"><path d="M 520 278 L 532 278 L 532 289 L 520 289 Z M 520 278 " clip-rule="nonzero"/></clipPath><clipPath id="clip-15"><path d="M 551.515625 262.816406 C 551.460938 259.613281 551.179688 265.144531 546.292969 266.800781 C 543.46875 267.757812 540.050781 268.210938 537.410156 265.382812 C 536.25 264.132812 534.339844 265.382812 532.15625 267.097656 C 527.601562 270.667969 526.566406 270.238281 523.367188 271.699219 C 520.835938 272.855469 519.832031 276.613281 519.832031 276.613281 C 519.832031 276.613281 516.515625 268.847656 513.527344 268.855469 C 510.535156 268.863281 509.320312 273.304688 509.914062 277.597656 C 511.347656 287.910156 516.097656 289.773438 516.097656 289.773438 C 516.097656 289.773438 514.59375 313.273438 511.925781 316.464844 C 509.398438 319.488281 508.335938 320.484375 508.09375 320.382812 C 508.09375 320.382812 520.273438 361.019531 531.605469 361.019531 C 543.4375 361.019531 559.464844 322.210938 559.464844 322.210938 C 559.464844 322.210938 543.785156 322.722656 543.164062 317.5625 C 542.527344 312.28125 543.347656 306.128906 543.347656 306.128906 C 543.347656 306.128906 552.078125 302.144531 553.382812 296.367188 C 554.273438 292.421875 554.679688 281.457031 555.953125 276.113281 C 557.226562 270.773438 555.875 272.046875 553.269531 268.378906 C 552.082031 266.714844 551.496094 264.859375 551.515625 262.816406 Z M 551.515625 262.816406 " clip-rule="nonzero"/></clipPath><clipPath id="clip-16"><path d="M 566 371 L 588.902344 371 L 588.902344 393 L 566 393 Z M 566 371 " clip-rule="nonzero"/></clipPath><clipPath id="clip-17"><path d="M 582.210938 340.472656 C 582.210938 340.472656 585.558594 361.71875 588.046875 398.367188 C 589.503906 419.824219 587.886719 433.226562 580.269531 433.503906 C 557.320312 434.339844 560.496094 389.832031 560.496094 389.832031 C 560.496094 389.832031 571.453125 354.4375 573.113281 350.578125 C 574.773438 346.722656 582.210938 340.472656 582.210938 340.472656 Z M 582.210938 340.472656 " clip-rule="nonzero"/></clipPath><clipPath id="clip-18"><path d="M 462.003906 368 L 491.761719 368 L 491.761719 387 L 462.003906 387 Z M 462.003906 368 " clip-rule="nonzero"/></clipPath><clipPath id="clip-19"><path d="M 462.273438 394.667969 C 462.253906 411.9375 460.929688 437.753906 470.648438 439.371094 C 489.253906 442.464844 491.484375 380.167969 491.484375 380.167969 C 491.484375 380.167969 480.792969 351.230469 478.597656 347.78125 C 476.402344 344.332031 470.1875 335.324219 470.1875 335.324219 C 470.1875 335.324219 462.292969 377.964844 462.273438 394.667969 Z M 462.273438 394.667969 " clip-rule="nonzero"/></clipPath><clipPath id="clip-20"><path d="M 534 293 L 546 293 L 546 296.472656 L 534 296.472656 Z M 534 293 " clip-rule="nonzero"/></clipPath><clipPath id="clip-21"><path d="M 533.597656 291.667969 C 533.597656 291.667969 537.792969 292 539.550781 292.019531 C 541.679688 292.0625 543.800781 291.925781 545.90625 291.609375 C 545.90625 291.609375 544.890625 294.144531 543.304688 295.449219 C 542.15625 296.394531 539.765625 296.570312 537.488281 295.785156 C 534.628906 294.792969 533.597656 291.667969 533.597656 291.667969 Z M 533.597656 291.667969 " clip-rule="nonzero"/></clipPath><clipPath id="clip-22"><path d="M 535 291.410156 L 545 291.410156 L 545 294 L 535 294 Z M 535 291.410156 " clip-rule="nonzero"/></clipPath><clipPath id="clip-23"><path d="M 533.597656 291.667969 C 533.597656 291.667969 537.792969 292 539.550781 292.019531 C 541.679688 292.0625 543.800781 291.925781 545.90625 291.609375 C 545.90625 291.609375 544.890625 294.144531 543.304688 295.449219 C 542.15625 296.394531 539.765625 296.570312 537.488281 295.785156 C 534.628906 294.792969 533.597656 291.667969 533.597656 291.667969 Z M 533.597656 291.667969 " clip-rule="nonzero"/></clipPath></defs><path fill="rgb(97.648621%, 74.508667%, 61.178589%)" d="M 571.050781 407.621094 C 571.945312 406.117188 611.148438 356.414062 611.148438 356.414062 C 611.148438 356.414062 613.054688 350.515625 614.78125 348.980469 C 617.128906 346.894531 627.890625 347.851562 638.011719 349.402344 C 646.210938 350.660156 659.300781 344.226562 661.859375 344.972656 C 664.878906 345.851562 656.105469 355.273438 645.039062 359.125 C 635.15625 362.566406 621.808594 362.214844 621.402344 363.050781 C 619.632812 366.675781 614.546875 377.234375 610.40625 386.964844 C 605.3125 398.945312 596.992188 415.707031 591.175781 424.117188 C 582.496094 436.660156 579.113281 434.324219 575.921875 430.878906 C 568.746094 423.132812 570.160156 409.125 571.050781 407.621094 Z M 571.050781 407.621094 " fill-opacity="1" fill-rule="evenodd"/><g clip-path="url(#clip-0)"><g clip-path="url(#clip-1)"><path fill="rgb(89.019775%, 59.609985%, 42.749023%)" d="M 644.386719 352.980469 C 648.960938 352.332031 654.039062 350.253906 658.121094 347.699219 C 659.753906 346.667969 661.199219 345.414062 662.453125 343.945312 C 662.59375 343.789062 662.65625 343.609375 662.644531 343.398438 C 662.632812 343.191406 662.550781 343.015625 662.394531 342.875 C 662.238281 342.734375 662.058594 342.671875 661.847656 342.683594 C 661.640625 342.695312 661.464844 342.777344 661.324219 342.933594 C 660.164062 344.292969 658.832031 345.453125 657.320312 346.410156 C 653.414062 348.855469 648.554688 350.855469 644.175781 351.472656 C 643.972656 351.507812 643.808594 351.605469 643.6875 351.773438 C 643.566406 351.9375 643.519531 352.125 643.546875 352.328125 C 643.574219 352.535156 643.671875 352.699219 643.835938 352.824219 C 644 352.949219 644.183594 353 644.386719 352.976562 Z M 644.386719 352.980469 " fill-opacity="1" fill-rule="evenodd"/></g></g><g clip-path="url(#clip-2)"><g clip-path="url(#clip-3)"><path fill="rgb(89.019775%, 59.609985%, 42.749023%)" d="M 645.320312 357.324219 C 648.644531 356.214844 651.285156 355.734375 656.308594 352.519531 C 659.234375 350.632812 661.898438 348.429688 664.300781 345.90625 C 664.433594 345.753906 664.496094 345.582031 664.488281 345.378906 C 664.484375 345.179688 664.410156 345.007812 664.269531 344.867188 C 664.128906 344.726562 663.957031 344.652344 663.757812 344.644531 C 663.558594 344.640625 663.382812 344.703125 663.234375 344.835938 C 660.910156 347.277344 658.328125 349.414062 655.496094 351.246094 C 650.628906 354.355469 648.066406 354.8125 644.84375 355.886719 C 644.644531 355.949219 644.496094 356.074219 644.398438 356.261719 C 644.304688 356.453125 644.289062 356.648438 644.355469 356.847656 C 644.421875 357.046875 644.550781 357.195312 644.738281 357.289062 C 644.929688 357.382812 645.125 357.394531 645.324219 357.324219 Z M 645.320312 357.324219 " fill-opacity="1" fill-rule="evenodd"/></g></g><path fill="rgb(97.648621%, 74.508667%, 61.178589%)" d="M 478.730469 414.082031 C 477.839844 412.578125 438.632812 362.875 438.632812 362.875 C 438.632812 362.875 436.726562 356.976562 435 355.441406 C 432.65625 353.355469 421.894531 354.3125 411.773438 355.863281 C 403.574219 357.121094 390.484375 350.6875 387.925781 351.429688 C 384.902344 352.3125 393.679688 361.734375 404.742188 365.585938 C 414.625 369.027344 427.972656 368.675781 428.382812 369.511719 C 430.148438 373.136719 435.238281 383.695312 439.375 393.425781 C 444.472656 405.40625 451.820312 422.933594 458.609375 430.578125 C 466.5625 439.535156 470.902344 441.035156 474.089844 437.589844 C 481.269531 429.84375 479.625 415.585938 478.730469 414.082031 Z M 478.730469 414.082031 " fill-opacity="1" fill-rule="evenodd"/><g clip-path="url(#clip-4)"><g clip-path="url(#clip-5)"><path fill="rgb(89.019775%, 59.609985%, 42.749023%)" d="M 405.394531 359.4375 C 400.824219 358.789062 395.742188 356.710938 391.660156 354.15625 C 390.027344 353.125 388.585938 351.875 387.332031 350.40625 C 387.191406 350.25 387.128906 350.066406 387.140625 349.859375 C 387.152344 349.648438 387.234375 349.472656 387.390625 349.335938 C 387.546875 349.195312 387.726562 349.128906 387.933594 349.140625 C 388.144531 349.152344 388.316406 349.238281 388.457031 349.390625 C 389.617188 350.753906 390.953125 351.910156 392.460938 352.867188 C 396.371094 355.3125 401.230469 357.3125 405.605469 357.933594 C 405.8125 357.964844 405.972656 358.0625 406.097656 358.230469 C 406.21875 358.398438 406.265625 358.582031 406.234375 358.785156 C 406.207031 358.992188 406.109375 359.15625 405.949219 359.28125 C 405.785156 359.40625 405.601562 359.457031 405.394531 359.433594 Z M 405.394531 359.4375 " fill-opacity="1" fill-rule="evenodd"/></g></g><g clip-path="url(#clip-6)"><g clip-path="url(#clip-7)"><path fill="rgb(89.019775%, 59.609985%, 42.749023%)" d="M 404.460938 363.785156 C 401.140625 362.675781 398.496094 362.195312 393.472656 358.980469 C 390.546875 357.09375 387.882812 354.890625 385.484375 352.367188 C 385.351562 352.214844 385.289062 352.039062 385.292969 351.839844 C 385.300781 351.640625 385.375 351.46875 385.515625 351.328125 C 385.65625 351.1875 385.824219 351.113281 386.027344 351.105469 C 386.226562 351.101562 386.398438 351.164062 386.550781 351.296875 C 388.875 353.738281 391.453125 355.875 394.285156 357.703125 C 399.15625 360.816406 401.71875 361.273438 404.9375 362.347656 C 405.140625 362.410156 405.289062 362.535156 405.382812 362.722656 C 405.480469 362.914062 405.496094 363.105469 405.429688 363.308594 C 405.363281 363.507812 405.234375 363.65625 405.042969 363.75 C 404.855469 363.84375 404.660156 363.855469 404.460938 363.785156 Z M 404.460938 363.785156 " fill-opacity="1" fill-rule="evenodd"/></g></g><path fill="rgb(14.118958%, 16.079712%, 25.878906%)" d="M 571.136719 257.496094 C 571.65625 258.851562 571.761719 265.292969 569.261719 270.121094 C 562.945312 282.320312 557.78125 277.496094 554.800781 279.109375 C 545.707031 284.03125 533.113281 293.984375 523.097656 294.289062 C 521.050781 294.351562 513.375 296.808594 510.605469 293.191406 C 508.453125 290.378906 508.0625 287.359375 506.984375 285.121094 C 505.859375 282.792969 501.304688 281.464844 499.921875 277.261719 C 497.875 271.03125 500.617188 268.460938 500.625 265.460938 C 500.632812 259.203125 497.546875 255.738281 501.464844 247.996094 C 504.121094 242.742188 513.195312 241.816406 516.664062 239.710938 C 520.605469 237.320312 522.714844 232.46875 527.171875 231.414062 C 545.273438 227.125 553.789062 243.832031 553.789062 243.832031 C 553.789062 243.832031 555.765625 243.25 559.117188 247.6875 C 562.121094 251.660156 568.03125 249.371094 571.136719 257.496094 Z M 571.136719 257.496094 " fill-opacity="1" fill-rule="evenodd"/><path fill="rgb(97.648621%, 74.508667%, 61.178589%)" d="M 551.515625 262.816406 C 551.460938 259.613281 551.179688 265.144531 546.292969 266.800781 C 543.46875 267.757812 540.050781 268.210938 537.410156 265.382812 C 536.25 264.132812 534.339844 265.382812 532.15625 267.097656 C 527.601562 270.667969 526.566406 270.238281 523.367188 271.699219 C 520.835938 272.855469 519.832031 276.613281 519.832031 276.613281 C 519.832031 276.613281 516.515625 268.847656 513.527344 268.855469 C 510.535156 268.863281 509.320312 273.304688 509.914062 277.597656 C 511.347656 287.910156 516.097656 289.773438 516.097656 289.773438 C 516.097656 289.773438 514.59375 313.273438 511.925781 316.464844 C 509.398438 319.488281 508.335938 320.484375 508.09375 320.382812 C 508.09375 320.382812 520.273438 361.019531 531.605469 361.019531 C 543.4375 361.019531 559.464844 322.210938 559.464844 322.210938 C 559.464844 322.210938 543.785156 322.722656 543.164062 317.5625 C 542.527344 312.28125 543.347656 306.128906 543.347656 306.128906 C 543.347656 306.128906 552.078125 302.144531 553.382812 296.367188 C 554.273438 292.421875 554.679688 281.457031 555.953125 276.113281 C 557.226562 270.773438 555.875 272.046875 553.269531 268.378906 C 552.082031 266.714844 551.496094 264.859375 551.515625 262.816406 Z M 551.515625 262.816406 " fill-opacity="1" fill-rule="evenodd"/><g clip-path="url(#clip-8)"><g clip-path="url(#clip-9)"><path fill="rgb(89.019775%, 59.609985%, 42.749023%)" d="M 515.289062 289.410156 C 515.289062 289.410156 512.753906 286.527344 514.179688 284.316406 C 515.164062 282.785156 517.035156 284.199219 516.769531 282.304688 C 516.503906 280.414062 515.082031 273.835938 512.929688 272.417969 C 511.257812 271.320312 506.78125 273.457031 507.171875 276.6875 C 507.558594 279.917969 510.699219 285.375 511.761719 286.410156 C 512.820312 287.445312 515.289062 289.410156 515.289062 289.410156 Z M 515.289062 289.410156 " fill-opacity="1" fill-rule="evenodd"/></g></g><g clip-path="url(#clip-10)"><g clip-path="url(#clip-11)"><path fill="rgb(89.019775%, 59.609985%, 42.749023%)" d="M 546.300781 304.667969 C 545.167969 305.429688 543.9375 305.980469 542.613281 306.316406 C 541.289062 306.65625 539.945312 306.761719 538.585938 306.632812 C 534.398438 306.203125 530.019531 303.695312 530.019531 303.695312 C 530.019531 303.695312 530.265625 309.058594 536.527344 311.429688 C 541.960938 313.484375 546.945312 309.402344 546.945312 309.402344 Z M 546.300781 304.667969 " fill-opacity="1" fill-rule="evenodd"/></g></g><g clip-path="url(#clip-12)"><g clip-path="url(#clip-13)"><path fill="rgb(89.019775%, 59.609985%, 42.749023%)" d="M 556.84375 282.785156 C 557.089844 282.992188 557.316406 283.21875 557.519531 283.472656 C 557.722656 283.722656 557.902344 283.988281 558.054688 284.273438 C 558.203125 284.558594 558.324219 284.855469 558.417969 285.167969 C 558.511719 285.476562 558.574219 285.789062 558.605469 286.109375 C 558.636719 286.429688 558.636719 286.75 558.601562 287.070312 C 558.570312 287.390625 558.507812 287.707031 558.414062 288.011719 C 558.320312 288.320312 558.195312 288.613281 558.046875 288.898438 C 557.894531 289.179688 557.714844 289.445312 557.511719 289.691406 C 557.304688 289.9375 557.078125 290.164062 556.828125 290.367188 C 556.582031 290.566406 556.3125 290.742188 556.03125 290.894531 C 555.746094 291.042969 555.449219 291.164062 555.140625 291.253906 C 554.835938 291.34375 554.519531 291.402344 554.199219 291.433594 C 553.878906 291.460938 553.558594 291.457031 553.238281 291.421875 C 552.917969 291.390625 552.605469 291.324219 552.296875 291.226562 C 551.988281 291.132812 551.695312 291.007812 551.410156 290.851562 C 551.128906 290.699219 550.859375 290.515625 550.613281 290.3125 C 550.363281 290.105469 550.136719 289.875 549.933594 289.625 C 549.730469 289.375 549.554688 289.105469 549.402344 288.820312 C 549.25 288.535156 549.128906 288.238281 549.035156 287.929688 C 548.945312 287.621094 548.882812 287.304688 548.851562 286.984375 C 548.820312 286.664062 548.820312 286.34375 548.851562 286.023438 C 548.882812 285.703125 548.949219 285.390625 549.042969 285.082031 C 549.136719 284.777344 549.257812 284.480469 549.410156 284.199219 C 549.5625 283.914062 549.742188 283.652344 549.945312 283.402344 C 550.148438 283.15625 550.375 282.933594 550.625 282.730469 C 550.875 282.527344 551.140625 282.351562 551.425781 282.203125 C 551.710938 282.054688 552.003906 281.933594 552.3125 281.84375 C 552.621094 281.753906 552.933594 281.691406 553.253906 281.664062 C 553.574219 281.636719 553.894531 281.636719 554.214844 281.671875 C 554.535156 281.707031 554.851562 281.773438 555.15625 281.867188 C 555.464844 281.964844 555.761719 282.089844 556.042969 282.242188 C 556.328125 282.398438 556.59375 282.578125 556.84375 282.785156 Z M 556.84375 282.785156 " fill-opacity="1" fill-rule="nonzero"/></g></g><g clip-path="url(#clip-14)"><g clip-path="url(#clip-15)"><path fill="rgb(89.019775%, 59.609985%, 42.749023%)" d="M 527.359375 278.472656 C 527.710938 278.546875 528.050781 278.648438 528.382812 278.78125 C 528.714844 278.914062 529.03125 279.078125 529.332031 279.265625 C 529.632812 279.457031 529.910156 279.671875 530.167969 279.910156 C 530.421875 280.148438 530.652344 280.40625 530.855469 280.683594 C 531.054688 280.960938 531.226562 281.253906 531.367188 281.5625 C 531.511719 281.867188 531.617188 282.183594 531.691406 282.507812 C 531.765625 282.832031 531.804688 283.15625 531.808594 283.488281 C 531.8125 283.816406 531.78125 284.140625 531.714844 284.460938 C 531.652344 284.78125 531.550781 285.09375 531.417969 285.394531 C 531.285156 285.691406 531.121094 285.976562 530.925781 286.246094 C 530.730469 286.515625 530.507812 286.761719 530.257812 286.988281 C 530.007812 287.214844 529.734375 287.417969 529.441406 287.59375 C 529.144531 287.769531 528.832031 287.914062 528.503906 288.035156 C 528.175781 288.152344 527.835938 288.238281 527.484375 288.292969 C 527.132812 288.351562 526.78125 288.375 526.421875 288.367188 C 526.0625 288.359375 525.710938 288.316406 525.359375 288.246094 C 525.003906 288.171875 524.664062 288.070312 524.332031 287.9375 C 524 287.800781 523.683594 287.640625 523.382812 287.453125 C 523.082031 287.261719 522.804688 287.046875 522.550781 286.808594 C 522.292969 286.570312 522.0625 286.3125 521.863281 286.035156 C 521.660156 285.757812 521.488281 285.464844 521.347656 285.15625 C 521.207031 284.851562 521.097656 284.535156 521.023438 284.210938 C 520.949219 283.886719 520.910156 283.5625 520.90625 283.230469 C 520.902344 282.902344 520.933594 282.578125 521 282.257812 C 521.066406 281.9375 521.164062 281.625 521.296875 281.324219 C 521.429688 281.023438 521.59375 280.742188 521.789062 280.472656 C 521.984375 280.203125 522.207031 279.957031 522.457031 279.730469 C 522.707031 279.503906 522.980469 279.300781 523.277344 279.125 C 523.570312 278.949219 523.882812 278.800781 524.210938 278.683594 C 524.542969 278.566406 524.882812 278.480469 525.230469 278.421875 C 525.582031 278.367188 525.933594 278.34375 526.292969 278.351562 C 526.652344 278.359375 527.007812 278.402344 527.359375 278.472656 Z M 527.359375 278.472656 " fill-opacity="1" fill-rule="nonzero"/></g></g><path fill="rgb(97.648621%, 74.508667%, 61.178589%)" d="M 582.210938 340.472656 C 582.210938 340.472656 585.558594 361.71875 588.046875 398.367188 C 589.503906 419.824219 587.886719 433.226562 580.269531 433.503906 C 557.320312 434.339844 560.496094 389.832031 560.496094 389.832031 C 560.496094 389.832031 571.453125 354.4375 573.113281 350.578125 C 574.773438 346.722656 582.210938 340.472656 582.210938 340.472656 Z M 582.210938 340.472656 " fill-opacity="1" fill-rule="evenodd"/><g clip-path="url(#clip-16)"><g clip-path="url(#clip-17)"><path fill="rgb(89.019775%, 59.609985%, 42.749023%)" d="M 566.035156 392.675781 C 566.035156 392.675781 591.859375 388.8125 592.320312 377.230469 C 592.742188 366.578125 568.738281 373.910156 568.738281 373.910156 Z M 566.035156 392.675781 " fill-opacity="1" fill-rule="evenodd"/></g></g><path fill="rgb(97.648621%, 74.508667%, 61.178589%)" d="M 462.273438 394.667969 C 462.253906 411.9375 460.929688 437.753906 470.648438 439.371094 C 489.253906 442.464844 491.484375 380.167969 491.484375 380.167969 C 491.484375 380.167969 480.792969 351.230469 478.597656 347.78125 C 476.402344 344.332031 470.1875 335.324219 470.1875 335.324219 C 470.1875 335.324219 462.292969 377.964844 462.273438 394.667969 Z M 462.273438 394.667969 " fill-opacity="1" fill-rule="evenodd"/><g clip-path="url(#clip-18)"><g clip-path="url(#clip-19)"><path fill="rgb(89.019775%, 59.609985%, 42.749023%)" d="M 491.636719 387 C 491.636719 387 460.476562 385.953125 458.363281 374.949219 C 456.417969 364.832031 486.269531 369.453125 486.269531 369.453125 Z M 491.636719 387 " fill-opacity="1" fill-rule="evenodd"/></g></g><path fill="rgb(0%, 29.019165%, 67.83905%)" d="M 510.042969 317.648438 C 511.5 319.152344 513.101562 320.480469 514.851562 321.636719 C 516.597656 322.789062 518.449219 323.742188 520.40625 324.488281 C 522.363281 325.238281 524.375 325.765625 526.445312 326.070312 C 528.515625 326.378906 530.597656 326.457031 532.683594 326.308594 C 541.652344 325.722656 542.511719 322.570312 544.257812 319.027344 C 544.257812 319.027344 564.910156 321.351562 571.453125 323.921875 C 583.859375 328.792969 586.96875 346.035156 589.503906 354.183594 C 590.175781 356.34375 595.183594 375.25 595.183594 375.25 C 588.988281 382.085938 575.773438 386.210938 566.980469 386.976562 C 566.980469 386.976562 567.160156 408.703125 568.894531 425.558594 C 570.378906 438.886719 572.550781 452.101562 575.410156 465.203125 C 575.410156 465.203125 552.253906 471.875 525.457031 469.910156 C 507.390625 468.585938 482.984375 462.359375 482.984375 462.359375 C 482.984375 462.359375 488.480469 446.515625 490.550781 431.800781 C 493.332031 411.996094 495.765625 382.679688 495.765625 382.679688 C 495.765625 382.679688 489.578125 384.199219 479.21875 382.808594 C 468.855469 381.421875 456.167969 373.574219 456.167969 373.574219 C 456.167969 373.574219 459.480469 365.386719 463.492188 351.347656 C 467.4375 337.546875 470.519531 326.261719 480.34375 320.878906 C 491.726562 314.640625 510.042969 317.648438 510.042969 317.648438 Z M 510.042969 317.648438 " fill-opacity="1" fill-rule="evenodd"/><path fill="rgb(14.118958%, 16.079712%, 25.878906%)" d="M 527.773438 268.339844 C 528.449219 268.679688 529.164062 268.855469 529.921875 268.859375 C 530.675781 268.867188 531.394531 268.703125 532.074219 268.375 C 532.664062 268.183594 533.136719 267.835938 533.492188 267.328125 C 533.550781 267.191406 533.632812 267.070312 533.742188 266.964844 C 533.847656 266.859375 533.972656 266.78125 534.113281 266.726562 C 534.25 266.671875 534.394531 266.644531 534.542969 266.648438 C 534.695312 266.652344 534.835938 266.683594 534.972656 266.746094 C 535.109375 266.804688 535.230469 266.890625 535.332031 267 C 535.433594 267.109375 535.511719 267.234375 535.566406 267.375 C 535.617188 267.511719 535.640625 267.65625 535.636719 267.808594 C 535.632812 267.957031 535.597656 268.101562 535.535156 268.238281 C 534.941406 269.277344 534.082031 270.011719 532.964844 270.441406 C 531.960938 270.910156 530.90625 271.132812 529.800781 271.109375 C 528.695312 271.085938 527.652344 270.816406 526.671875 270.304688 C 526.542969 270.230469 526.433594 270.136719 526.339844 270.015625 C 526.25 269.898438 526.183594 269.769531 526.144531 269.625 C 526.105469 269.480469 526.09375 269.335938 526.113281 269.1875 C 526.132812 269.039062 526.175781 268.898438 526.25 268.769531 C 526.324219 268.636719 526.417969 268.527344 526.535156 268.433594 C 526.652344 268.34375 526.78125 268.277344 526.921875 268.234375 C 527.066406 268.195312 527.210938 268.183594 527.359375 268.203125 C 527.507812 268.21875 527.644531 268.265625 527.773438 268.339844 Z M 527.773438 268.339844 " fill-opacity="1" fill-rule="evenodd"/><path fill="rgb(14.118958%, 16.079712%, 25.878906%)" d="M 549.21875 268.285156 C 549.316406 268.515625 549.4375 268.734375 549.578125 268.941406 C 549.722656 269.144531 549.882812 269.335938 550.0625 269.507812 C 550.242188 269.679688 550.4375 269.832031 550.652344 269.964844 C 550.863281 270.097656 551.085938 270.207031 551.320312 270.292969 C 551.550781 270.382812 551.792969 270.445312 552.039062 270.480469 C 552.285156 270.519531 552.535156 270.53125 552.78125 270.519531 C 553.03125 270.507812 553.277344 270.46875 553.519531 270.40625 C 553.761719 270.34375 553.992188 270.257812 554.21875 270.148438 C 554.351562 270.089844 554.496094 270.058594 554.644531 270.054688 C 554.792969 270.050781 554.9375 270.078125 555.074219 270.132812 C 555.214844 270.1875 555.335938 270.269531 555.445312 270.371094 C 555.550781 270.476562 555.632812 270.597656 555.691406 270.734375 C 555.75 270.871094 555.78125 271.011719 555.78125 271.164062 C 555.785156 271.3125 555.757812 271.457031 555.699219 271.59375 C 555.644531 271.730469 555.566406 271.855469 555.460938 271.960938 C 555.355469 272.066406 555.234375 272.148438 555.097656 272.207031 C 554.738281 272.378906 554.363281 272.515625 553.976562 272.613281 C 553.589844 272.707031 553.199219 272.765625 552.800781 272.78125 C 552.398438 272.796875 552.003906 272.773438 551.609375 272.710938 C 551.214844 272.644531 550.832031 272.539062 550.460938 272.398438 C 550.089844 272.253906 549.734375 272.074219 549.398438 271.859375 C 549.0625 271.644531 548.75 271.398438 548.464844 271.117188 C 548.179688 270.839844 547.925781 270.535156 547.703125 270.203125 C 547.476562 269.871094 547.289062 269.523438 547.136719 269.152344 C 547.082031 269.015625 547.054688 268.871094 547.054688 268.722656 C 547.058594 268.570312 547.085938 268.429688 547.144531 268.289062 C 547.203125 268.152344 547.285156 268.03125 547.390625 267.925781 C 547.496094 267.820312 547.617188 267.738281 547.753906 267.683594 C 547.894531 267.625 548.035156 267.597656 548.183594 267.597656 C 548.332031 267.59375 548.476562 267.625 548.613281 267.679688 C 548.75 267.738281 548.871094 267.816406 548.976562 267.921875 C 549.082031 268.027344 549.164062 268.148438 549.21875 268.285156 Z M 549.21875 268.285156 " fill-opacity="1" fill-rule="evenodd"/><path fill="rgb(14.118958%, 16.079712%, 25.878906%)" d="M 531.34375 272.390625 C 531.535156 272.410156 531.707031 272.5 531.871094 272.664062 C 532.03125 272.824219 532.164062 273.046875 532.273438 273.328125 C 532.378906 273.605469 532.453125 273.925781 532.492188 274.28125 C 532.527344 274.640625 532.527344 275.007812 532.492188 275.382812 C 532.457031 275.761719 532.382812 276.125 532.277344 276.464844 C 532.171875 276.808594 532.035156 277.105469 531.878906 277.359375 C 531.71875 277.613281 531.542969 277.804688 531.355469 277.933594 C 531.164062 278.0625 530.976562 278.117188 530.785156 278.097656 C 530.597656 278.078125 530.421875 277.988281 530.261719 277.828125 C 530.101562 277.664062 529.96875 277.445312 529.859375 277.164062 C 529.753906 276.882812 529.679688 276.5625 529.640625 276.207031 C 529.601562 275.851562 529.601562 275.484375 529.640625 275.105469 C 529.675781 274.726562 529.75 274.367188 529.855469 274.023438 C 529.960938 273.679688 530.09375 273.382812 530.253906 273.128906 C 530.414062 272.875 530.589844 272.683594 530.777344 272.554688 C 530.96875 272.429688 531.15625 272.375 531.34375 272.390625 Z M 531.34375 272.390625 " fill-opacity="1" fill-rule="nonzero"/><path fill="rgb(14.118958%, 16.079712%, 25.878906%)" d="M 549.476562 274.765625 C 549.664062 274.785156 549.839844 274.875 550 275.035156 C 550.160156 275.199219 550.296875 275.417969 550.402344 275.699219 C 550.511719 275.980469 550.582031 276.296875 550.621094 276.65625 C 550.660156 277.011719 550.660156 277.378906 550.625 277.757812 C 550.585938 278.136719 550.515625 278.496094 550.410156 278.839844 C 550.300781 279.179688 550.167969 279.480469 550.007812 279.734375 C 549.847656 279.988281 549.675781 280.179688 549.484375 280.304688 C 549.296875 280.433594 549.109375 280.488281 548.917969 280.46875 C 548.730469 280.453125 548.554688 280.363281 548.394531 280.199219 C 548.234375 280.039062 548.097656 279.816406 547.992188 279.535156 C 547.882812 279.253906 547.8125 278.9375 547.773438 278.578125 C 547.734375 278.222656 547.734375 277.855469 547.773438 277.476562 C 547.808594 277.097656 547.878906 276.738281 547.988281 276.394531 C 548.09375 276.054688 548.226562 275.753906 548.386719 275.5 C 548.546875 275.246094 548.722656 275.054688 548.910156 274.929688 C 549.097656 274.800781 549.289062 274.746094 549.476562 274.765625 Z M 549.476562 274.765625 " fill-opacity="1" fill-rule="nonzero"/><path fill="rgb(89.019775%, 59.609985%, 42.749023%)" d="M 541.085938 279.964844 C 541.050781 279.800781 540.96875 279.671875 540.828125 279.578125 C 540.691406 279.488281 540.542969 279.457031 540.378906 279.488281 C 540.214844 279.523438 540.089844 279.609375 539.996094 279.746094 C 539.902344 279.882812 539.875 280.035156 539.90625 280.199219 C 539.984375 280.476562 540.105469 280.734375 540.269531 280.976562 C 540.675781 281.648438 541.53125 282.984375 543.027344 285.847656 C 543.078125 285.941406 543.027344 286.023438 542.960938 286.101562 C 542.816406 286.25 542.648438 286.371094 542.460938 286.460938 C 541.851562 286.765625 541.207031 286.9375 540.527344 286.980469 C 540.21875 287.019531 539.921875 286.984375 539.632812 286.882812 C 539.484375 286.804688 539.328125 286.796875 539.171875 286.851562 C 539.015625 286.902344 538.898438 287.007812 538.828125 287.15625 C 538.753906 287.308594 538.746094 287.460938 538.800781 287.621094 C 538.855469 287.777344 538.957031 287.894531 539.109375 287.96875 C 539.796875 288.3125 541.238281 288.238281 542.394531 287.816406 C 543.058594 287.613281 543.601562 287.238281 544.03125 286.691406 C 544.175781 286.484375 544.253906 286.253906 544.265625 286 C 544.277344 285.746094 544.21875 285.511719 544.09375 285.289062 C 542.578125 282.390625 541.710938 281.035156 541.300781 280.355469 C 541.191406 280.175781 541.09375 279.980469 541.085938 279.964844 Z M 541.085938 279.964844 " fill-opacity="1" fill-rule="evenodd"/><path fill="rgb(14.118958%, 16.079712%, 25.878906%)" d="M 533.597656 291.667969 C 533.597656 291.667969 537.792969 292 539.550781 292.019531 C 541.679688 292.0625 543.800781 291.925781 545.90625 291.609375 C 545.90625 291.609375 544.890625 294.144531 543.304688 295.449219 C 542.15625 296.394531 539.765625 296.570312 537.488281 295.785156 C 534.628906 294.792969 533.597656 291.667969 533.597656 291.667969 Z M 533.597656 291.667969 " fill-opacity="1" fill-rule="evenodd"/><g clip-path="url(#clip-20)"><g clip-path="url(#clip-21)"><path fill="rgb(89.7995%, 44.309998%, 44.309998%)" d="M 534.222656 296.644531 C 534.324219 296.226562 534.484375 295.835938 534.703125 295.46875 C 534.921875 295.097656 535.191406 294.773438 535.511719 294.484375 C 535.828125 294.199219 536.183594 293.96875 536.574219 293.792969 C 536.964844 293.613281 537.371094 293.5 537.796875 293.445312 C 540.828125 293.019531 542.175781 293.199219 543.640625 293.953125 C 544.886719 294.589844 545.808594 296.617188 545.808594 296.617188 Z M 534.222656 296.644531 " fill-opacity="1" fill-rule="evenodd"/></g></g><g clip-path="url(#clip-22)"><g clip-path="url(#clip-23)"><path fill="rgb(0%, 29.019165%, 67.83905%)" d="M 535.734375 291.578125 C 535.921875 292.191406 536.269531 292.699219 536.773438 293.097656 C 537.277344 293.492188 537.851562 293.714844 538.492188 293.753906 C 540.824219 294.054688 541.859375 293.9375 542.984375 293.4375 C 543.9375 293.011719 544.640625 291.644531 544.640625 291.644531 Z M 535.734375 291.578125 " fill-opacity="1" fill-rule="evenodd"/></g></g></svg>