<?xml version="1.0" encoding="UTF-8"?><svg xmlns="http://www.w3.org/2000/svg" xmlns:xlink="http://www.w3.org/1999/xlink" width="675" zoomAndPan="magnify" viewBox="0 0 675 562.499983" height="562.499983" preserveAspectRatio="xMidYMid meet" version="1.0"><path stroke-linecap="butt" transform="matrix(0.749334, 0, 0, 0.749334, 0.299744, 56.20004)" fill="none" stroke-linejoin="miter" d="M 257.000477 267.001673 C 257.000477 268.638543 256.922283 270.270201 256.760681 271.901858 C 256.599079 273.528303 256.359283 275.149534 256.041292 276.755127 C 255.718088 278.36072 255.321903 279.945461 254.847523 281.514562 C 254.373144 283.083664 253.82057 284.621489 253.195014 286.133248 C 252.569458 287.645007 251.865708 289.125489 251.09419 290.56948 C 250.322671 292.013471 249.483384 293.415758 248.571115 294.776341 C 247.66406 296.142138 246.689236 297.455804 245.651856 298.717341 C 244.609263 299.984092 243.514541 301.198712 242.357263 302.35599 C 241.199985 303.513268 239.985365 304.613203 238.718615 305.650583 C 237.451865 306.687962 236.138198 307.662787 234.777615 308.575055 C 233.417031 309.482111 232.014744 310.326611 230.570753 311.098129 C 229.126762 311.869648 227.646281 312.568185 226.134521 313.193741 C 224.622762 313.819296 223.079725 314.37187 221.515836 314.84625 C 219.946734 315.32063 218.361993 315.722028 216.7564 316.040019 C 215.150808 316.358009 213.529576 316.597806 211.903131 316.759408 C 210.271474 316.921009 208.639816 316.999204 206.997733 316.999204 C 205.360862 316.999204 203.729205 316.921009 202.097547 316.759408 C 200.471103 316.597806 198.849871 316.358009 197.244278 316.040019 C 195.638686 315.722028 194.053945 315.32063 192.484843 314.84625 C 190.920954 314.37187 189.377917 313.819296 187.866157 313.193741 C 186.354398 312.568185 184.873916 311.869648 183.429926 311.098129 C 181.985935 310.326611 180.583648 309.482111 179.223064 308.575055 C 177.862481 307.662787 176.543601 306.687962 175.282064 305.650583 C 174.015314 304.613203 172.800693 303.513268 171.643416 302.35599 C 170.486138 301.198712 169.386202 299.984092 168.348823 298.717341 C 167.311443 297.455804 166.336619 296.142138 165.42435 294.776341 C 164.517295 293.415758 163.678008 292.013471 162.906489 290.56948 C 162.129757 289.125489 161.43122 287.645007 160.805665 286.133248 C 160.180109 284.621489 159.627535 283.083664 159.153155 281.514562 C 158.678776 279.945461 158.282591 278.36072 157.959387 276.755127 C 157.641396 275.149534 157.4016 273.528303 157.239998 271.901858 C 157.078396 270.270201 157.000202 268.638543 157.000202 267.001673 C 157.000202 265.364802 157.078396 263.727932 157.239998 262.101487 C 157.4016 260.469829 157.641396 258.853811 157.959387 257.243005 C 158.282591 255.637412 158.678776 254.052672 159.153155 252.48357 C 159.627535 250.919681 160.180109 249.376644 160.805665 247.864884 C 161.43122 246.353125 162.129757 244.872643 162.906489 243.428652 C 163.678008 241.984662 164.517295 240.582374 165.42435 239.221791 C 166.336619 237.861208 167.311443 236.547541 168.348823 235.280791 C 169.386202 234.014041 170.486138 232.804633 171.643416 231.642142 C 172.800693 230.484864 174.015314 229.390142 175.282064 228.347549 C 176.543601 227.31017 177.862481 226.335346 179.223064 225.42829 C 180.583648 224.516021 181.985935 223.676734 183.429926 222.905216 C 184.873916 222.133697 186.354398 221.43516 187.866157 220.804391 C 189.377917 220.178836 190.920954 219.626262 192.484843 219.151882 C 194.053945 218.677502 195.638686 218.281317 197.244278 217.963326 C 198.849871 217.640123 200.471103 217.400326 202.097547 217.238725 C 203.729205 217.082336 205.360862 216.998928 206.997733 216.998928 C 208.639816 216.998928 210.271474 217.082336 211.903131 217.238725 C 213.529576 217.400326 215.150808 217.640123 216.7564 217.963326 C 218.361993 218.281317 219.946734 218.677502 221.515836 219.151882 C 223.079725 219.626262 224.622762 220.178836 226.134521 220.804391 C 227.646281 221.43516 229.126762 222.133697 230.570753 222.905216 C 232.014744 223.676734 233.417031 224.516021 234.777615 225.42829 C 236.138198 226.335346 237.451865 227.31017 238.718615 228.347549 C 239.985365 229.390142 241.199985 230.484864 242.357263 231.642142 C 243.514541 232.804633 244.609263 234.014041 245.651856 235.280791 C 246.689236 236.547541 247.66406 237.861208 248.571115 239.221791 C 249.483384 240.582374 250.322671 241.984662 251.09419 243.428652 C 251.865708 244.872643 252.569458 246.353125 253.195014 247.864884 C 253.82057 249.376644 254.373144 250.919681 254.847523 252.48357 C 255.321903 254.052672 255.718088 255.637412 256.041292 257.243005 C 256.359283 258.853811 256.599079 260.469829 256.760681 262.101487 C 256.922283 263.727932 257.000477 265.364802 257.000477 267.001673 Z M 257.000477 267.001673 " stroke="rgb(31.759644%, 75.289917%, 82.749939%)" stroke-width="1" stroke-opacity="1" stroke-miterlimit="4"/><path stroke-linecap="butt" transform="matrix(0.749334, 0, 0, 0.749334, 0.299744, 56.20004)" fill="none" stroke-linejoin="miter" d="M 728.997816 488.00004 C 728.997816 488.787198 728.961326 489.569142 728.883131 490.351087 C 728.804937 491.133031 728.690252 491.909763 728.539076 492.681281 C 728.3879 493.4528 728.19502 494.213892 727.96565 494.964559 C 727.736279 495.720439 727.475631 496.46068 727.173279 497.185282 C 726.870927 497.909883 726.537298 498.618846 726.167177 499.312171 C 725.797057 500.005495 725.390446 500.677967 724.95777 501.3348 C 724.519881 501.986421 724.050714 502.617189 723.55027 503.227106 C 723.055038 503.83181 722.528529 504.415662 721.970742 504.968236 C 721.412955 505.526023 720.834316 506.052532 720.224399 506.552977 C 719.619695 507.053421 718.988927 507.517375 718.332093 507.955264 C 717.680473 508.393153 717.008001 508.794551 716.314677 509.164671 C 715.621353 509.534792 714.91239 509.873634 714.182575 510.170773 C 713.457973 510.473125 712.717732 510.738986 711.967065 510.968357 C 711.216399 511.192514 710.455306 511.385394 709.683787 511.53657 C 708.912269 511.692959 708.135537 511.807644 707.353593 511.885838 C 706.571648 511.964033 705.784491 512.000523 705.002546 512.000523 C 704.215389 512.000523 703.428231 511.964033 702.646287 511.885838 C 701.864342 511.807644 701.087611 511.692959 700.316092 511.53657 C 699.544574 511.385394 698.783481 511.192514 698.032814 510.968357 C 697.282148 510.738986 696.541907 510.473125 695.817305 510.170773 C 695.08749 509.873634 694.378527 509.534792 693.685203 509.164671 C 692.991879 508.794551 692.319406 508.393153 691.667786 507.955264 C 691.010953 507.517375 690.380184 507.053421 689.77548 506.552977 C 689.165564 506.052532 688.586925 505.526023 688.029138 504.968236 C 687.471351 504.415662 686.944841 503.83181 686.44961 503.227106 C 685.949165 502.617189 685.479999 501.986421 685.04211 501.3348 C 684.609434 500.677967 684.202822 500.005495 683.832702 499.312171 C 683.462582 498.618846 683.128952 497.909883 682.8266 497.185282 C 682.524248 496.46068 682.2636 495.720439 682.03423 494.964559 C 681.804859 494.213892 681.61198 493.4528 681.460804 492.681281 C 681.309628 491.909763 681.194943 491.133031 681.116748 490.351087 C 681.038554 489.569142 681.002063 488.787198 681.002063 488.00004 C 681.002063 487.212883 681.038554 486.430938 681.116748 485.648994 C 681.194943 484.867049 681.309628 484.090318 681.460804 483.318799 C 681.61198 482.547281 681.804859 481.786188 682.03423 481.035521 C 682.2636 480.279641 682.524248 479.539401 682.8266 478.814799 C 683.128952 478.090197 683.462582 477.381234 683.832702 476.68791 C 684.202822 475.994586 684.609434 475.322113 685.04211 474.66528 C 685.479999 474.01366 685.949165 473.382891 686.44961 472.772974 C 686.944841 472.168271 687.471351 471.584419 688.029138 471.031845 C 688.586925 470.474057 689.165564 469.947548 689.77548 469.447104 C 690.380184 468.946659 691.010953 468.482705 691.667786 468.044817 C 692.319406 467.606928 692.991879 467.205529 693.685203 466.835409 C 694.378527 466.465289 695.08749 466.126446 695.817305 465.829307 C 696.541907 465.526955 697.282148 465.261094 698.032814 465.031724 C 698.783481 464.807566 699.544574 464.614687 700.316092 464.463511 C 701.087611 464.307122 701.864342 464.192437 702.646287 464.114242 C 703.428231 464.036048 704.215389 463.999557 705.002546 463.999557 C 705.784491 463.999557 706.571648 464.036048 707.353593 464.114242 C 708.135537 464.192437 708.912269 464.307122 709.683787 464.463511 C 710.455306 464.614687 711.216399 464.807566 711.967065 465.031724 C 712.717732 465.261094 713.457973 465.526955 714.182575 465.829307 C 714.91239 466.126446 715.621353 466.465289 716.314677 466.835409 C 717.008001 467.205529 717.680473 467.606928 718.332093 468.044817 C 718.988927 468.482705 719.619695 468.946659 720.224399 469.447104 C 720.834316 469.947548 721.412955 470.474057 721.970742 471.031845 C 722.528529 471.584419 723.055038 472.168271 723.55027 472.772974 C 724.050714 473.382891 724.519881 474.01366 724.95777 474.66528 C 725.390446 475.322113 725.797057 475.994586 726.167177 476.68791 C 726.537298 477.381234 726.870927 478.090197 727.173279 478.814799 C 727.475631 479.539401 727.736279 480.279641 727.96565 481.035521 C 728.19502 481.786188 728.3879 482.547281 728.539076 483.318799 C 728.690252 484.090318 728.804937 484.867049 728.883131 485.648994 C 728.961326 486.430938 728.997816 487.212883 728.997816 488.00004 Z M 728.997816 488.00004 " stroke="rgb(31.759644%, 75.289917%, 82.749939%)" stroke-width="1" stroke-opacity="1" stroke-miterlimit="4"/><path stroke-linecap="butt" transform="matrix(0.749334, 0, 0, 0.749334, 0.299744, 56.20004)" fill="none" stroke-linejoin="miter" d="M 852.998575 170.99974 C 852.998575 172.308194 852.93602 173.616647 852.805696 174.919888 C 852.680585 176.223129 852.487705 177.521157 852.23227 178.803546 C 851.976834 180.085935 851.658844 181.357898 851.278297 182.609009 C 850.897751 183.865333 850.454649 185.095593 849.954205 186.305 C 849.45376 187.519621 848.895973 188.702963 848.275631 189.855028 C 847.660501 191.012306 846.988029 192.133093 846.258214 193.222602 C 845.528399 194.312112 844.751667 195.36513 843.922806 196.376445 C 843.088732 197.38776 842.212954 198.357371 841.285047 199.285279 C 840.357139 200.213186 839.387528 201.088964 838.376213 201.917825 C 837.364898 202.751899 836.31188 203.528631 835.22237 204.258446 C 834.132861 204.988261 833.012074 205.660733 831.854796 206.275863 C 830.702731 206.896205 829.519388 207.453992 828.304768 207.954437 C 827.09536 208.454881 825.865101 208.897983 824.61399 209.27853 C 823.357666 209.659076 822.090916 209.977067 820.803314 210.232502 C 819.520925 210.487937 818.222897 210.680817 816.919656 210.805928 C 815.616415 210.936252 814.307961 210.998807 812.999508 210.998807 C 811.691054 210.998807 810.3826 210.936252 809.079359 210.805928 C 807.776118 210.680817 806.483303 210.487937 805.195702 210.232502 C 803.913313 209.977067 802.641349 209.659076 801.390238 209.27853 C 800.133914 208.897983 798.903655 208.454881 797.694247 207.954437 C 796.48484 207.453992 795.301497 206.896205 794.144219 206.275863 C 792.986941 205.660733 791.866154 204.988261 790.776645 204.258446 C 789.687136 203.528631 788.63933 202.751899 787.622802 201.917825 C 786.611487 201.088964 785.641876 200.213186 784.713969 199.285279 C 783.791274 198.357371 782.910283 197.38776 782.081422 196.376445 C 781.247348 195.36513 780.470616 194.312112 779.740802 193.222602 C 779.010987 192.133093 778.338514 191.012306 777.723385 189.855028 C 777.103042 188.702963 776.545255 187.519621 776.044811 186.305 C 775.544366 185.095593 775.101264 183.865333 774.720718 182.609009 C 774.340172 181.357898 774.022181 180.085935 773.766746 178.803546 C 773.51131 177.521157 773.318431 176.223129 773.19332 174.919888 C 773.062996 173.616647 773.00044 172.308194 773.00044 170.99974 C 773.00044 169.691286 773.062996 168.382832 773.19332 167.079591 C 773.318431 165.776351 773.51131 164.483536 773.766746 163.195934 C 774.022181 161.913545 774.340172 160.641582 774.720718 159.39047 C 775.101264 158.134146 775.544366 156.903887 776.044811 155.694479 C 776.545255 154.479859 777.103042 153.301729 777.723385 152.144451 C 778.338514 150.987174 779.010987 149.866386 779.740802 148.776877 C 780.470616 147.687368 781.247348 146.634349 782.081422 145.623034 C 782.910283 144.611719 783.791274 143.642108 784.713969 142.714201 C 785.641876 141.791506 786.611487 140.910515 787.622802 140.081654 C 788.63933 139.24758 789.687136 138.470849 790.776645 137.741034 C 791.866154 137.011219 792.986941 136.338747 794.144219 135.723617 C 795.301497 135.103274 796.48484 134.545487 797.694247 134.045043 C 798.903655 133.544598 800.133914 133.101496 801.390238 132.72095 C 802.641349 132.340404 803.913313 132.022413 805.195702 131.766978 C 806.483303 131.511543 807.776118 131.318663 809.079359 131.193552 C 810.3826 131.063228 811.691054 131.000672 812.999508 131.000672 C 814.307961 131.000672 815.616415 131.063228 816.919656 131.193552 C 818.222897 131.318663 819.520925 131.511543 820.803314 131.766978 C 822.090916 132.022413 823.357666 132.340404 824.61399 132.72095 C 825.865101 133.101496 827.09536 133.544598 828.304768 134.045043 C 829.519388 134.545487 830.702731 135.103274 831.854796 135.723617 C 833.012074 136.338747 834.132861 137.011219 835.22237 137.741034 C 836.31188 138.470849 837.364898 139.24758 838.376213 140.081654 C 839.387528 140.910515 840.357139 141.791506 841.285047 142.714201 C 842.212954 143.642108 843.088732 144.611719 843.922806 145.623034 C 844.751667 146.634349 845.528399 147.687368 846.258214 148.776877 C 846.988029 149.866386 847.660501 150.987174 848.275631 152.144451 C 848.895973 153.301729 849.45376 154.479859 849.954205 155.694479 C 850.454649 156.903887 850.897751 158.134146 851.278297 159.39047 C 851.658844 160.641582 851.976834 161.913545 852.23227 163.195934 C 852.487705 164.483536 852.680585 165.776351 852.805696 167.079591 C 852.93602 168.382832 852.998575 169.691286 852.998575 170.99974 Z M 852.998575 170.99974 " stroke="rgb(31.759644%, 75.289917%, 82.749939%)" stroke-width="1" stroke-opacity="1" stroke-miterlimit="4"/><path stroke-linecap="butt" transform="matrix(0.749334, 0, 0, 0.749334, 0.299744, 56.20004)" fill="none" stroke-linejoin="miter" d="M 335.002048 210.998807 C 335.002048 212.046613 334.949918 213.094419 334.845659 214.137011 C 334.741399 215.179604 334.590223 216.216984 334.386918 217.243938 C 334.178399 218.270891 333.928177 219.287419 333.620612 220.288308 C 333.31826 221.29441 332.963779 222.27966 332.562381 223.244058 C 332.160983 224.213669 331.717881 225.162429 331.222649 226.085123 C 330.727418 227.007818 330.190482 227.904448 329.606631 228.780225 C 329.022779 229.65079 328.402436 230.490077 327.735177 231.298087 C 327.07313 232.111309 326.36938 232.88804 325.62914 233.628281 C 324.888899 234.368522 324.112167 235.072272 323.298945 235.734318 C 322.490936 236.401578 321.651648 237.027133 320.775871 237.605772 C 319.905306 238.189624 319.008676 238.726559 318.085982 239.221791 C 317.158074 239.717022 316.214528 240.165337 315.244917 240.566735 C 314.275305 240.962921 313.290055 241.317402 312.289166 241.619754 C 311.288277 241.927319 310.27175 242.182754 309.244796 242.38606 C 308.212629 242.589365 307.180462 242.745754 306.13787 242.8448 C 305.095277 242.94906 304.047471 243.001189 302.999666 243.001189 C 301.95186 243.001189 300.904054 242.94906 299.861462 242.8448 C 298.818869 242.745754 297.786702 242.589365 296.754536 242.38606 C 295.727582 242.182754 294.716267 241.927319 293.710165 241.619754 C 292.709276 241.317402 291.724026 240.962921 290.754415 240.566735 C 289.784804 240.165337 288.841257 239.717022 287.91335 239.221791 C 286.990655 238.726559 286.094026 238.189624 285.223461 237.605772 C 284.352896 237.027133 283.508396 236.401578 282.700386 235.734318 C 281.887164 235.072272 281.115646 234.368522 280.370192 233.628281 C 279.629951 232.88804 278.926201 232.111309 278.264155 231.298087 C 277.596895 230.490077 276.976553 229.65079 276.392701 228.780225 C 275.808849 227.904448 275.271914 227.007818 274.776682 226.085123 C 274.286664 225.162429 273.838349 224.213669 273.436951 223.244058 C 273.035552 222.27966 272.681071 221.29441 272.378719 220.288308 C 272.071154 219.287419 271.820932 218.270891 271.612413 217.243938 C 271.409108 216.216984 271.257932 215.179604 271.153673 214.137011 C 271.049413 213.094419 271.002497 212.046613 271.002497 210.998807 C 271.002497 209.951002 271.049413 208.908409 271.153673 207.865816 C 271.257932 206.818011 271.409108 205.785844 271.612413 204.75889 C 271.820932 203.726724 272.071154 202.715409 272.378719 201.709307 C 272.681071 200.708418 273.035552 199.723168 273.436951 198.753557 C 273.838349 197.783945 274.286664 196.840399 274.776682 195.917705 C 275.271914 194.989797 275.808849 194.093167 276.392701 193.222602 C 276.976553 192.352038 277.596895 191.507538 278.264155 190.699528 C 278.926201 189.891519 279.629951 189.114787 280.370192 188.374547 C 281.115646 187.629093 281.887164 186.930556 282.700386 186.263296 C 283.508396 185.60125 284.352896 184.975694 285.223461 184.391843 C 286.094026 183.813204 286.990655 183.271055 287.91335 182.781037 C 288.841257 182.285805 289.784804 181.837491 290.754415 181.436092 C 291.724026 181.034694 292.709276 180.680213 293.710165 180.377861 C 294.716267 180.075509 295.727582 179.820074 296.754536 179.616768 C 297.786702 179.40825 298.818869 179.257074 299.861462 179.152814 C 300.904054 179.053768 301.95186 179.001638 302.999666 179.001638 C 304.047471 179.001638 305.095277 179.053768 306.13787 179.152814 C 307.180462 179.257074 308.212629 179.40825 309.244796 179.616768 C 310.27175 179.820074 311.288277 180.075509 312.289166 180.377861 C 313.290055 180.680213 314.275305 181.034694 315.244917 181.436092 C 316.214528 181.837491 317.158074 182.285805 318.085982 182.781037 C 319.008676 183.271055 319.905306 183.813204 320.775871 184.391843 C 321.651648 184.975694 322.490936 185.60125 323.298945 186.263296 C 324.112167 186.930556 324.888899 187.629093 325.62914 188.374547 C 326.36938 189.114787 327.07313 189.891519 327.735177 190.699528 C 328.402436 191.507538 329.022779 192.352038 329.606631 193.222602 C 330.190482 194.093167 330.727418 194.989797 331.222649 195.917705 C 331.717881 196.840399 332.160983 197.783945 332.562381 198.753557 C 332.963779 199.723168 333.31826 200.708418 333.620612 201.709307 C 333.928177 202.715409 334.178399 203.726724 334.386918 204.75889 C 334.590223 205.785844 334.741399 206.818011 334.845659 207.865816 C 334.949918 208.908409 335.002048 209.951002 335.002048 210.998807 Z M 335.002048 210.998807 " stroke="rgb(31.759644%, 75.289917%, 82.749939%)" stroke-width="1" stroke-opacity="1" stroke-miterlimit="4"/><path stroke-linecap="butt" transform="matrix(0.749334, 0, 0, 0.749334, 0.299744, 56.20004)" fill="none" stroke-linejoin="miter" d="M 647.998792 393.999885 C 647.998792 394.818321 647.962301 395.636756 647.878894 396.449978 C 647.8007 397.2632 647.680801 398.076423 647.5192 398.879219 C 647.357598 399.682015 647.159505 400.474386 646.924922 401.25633 C 646.685125 402.038275 646.408838 402.809793 646.096061 403.565673 C 645.783283 404.321553 645.434014 405.061794 645.048255 405.786395 C 644.662496 406.505784 644.240246 407.209534 643.786718 407.88722 C 643.33319 408.570118 642.843171 409.226951 642.327088 409.85772 C 641.805792 410.493701 641.258431 411.098405 640.679792 411.677044 C 640.101153 412.255683 639.491236 412.808257 638.860467 413.32434 C 638.224486 413.845637 637.567653 414.330442 636.889967 414.789183 C 636.207069 415.242711 635.508532 415.659748 634.78393 416.045507 C 634.064541 416.43648 633.3243 416.785748 632.568421 417.098526 C 631.812541 417.411304 631.041022 417.687591 630.259078 417.922174 C 629.47192 418.16197 628.67955 418.360063 627.876754 418.521665 C 627.073957 418.678054 626.265948 418.797952 625.452726 418.881359 C 624.63429 418.959554 623.821068 419.001257 622.99742 419.001257 C 622.178985 419.001257 621.365762 418.959554 620.547327 418.881359 C 619.734105 418.797952 618.926096 418.678054 618.123299 418.521665 C 617.320503 418.360063 616.528132 418.16197 615.740975 417.922174 C 614.959031 417.687591 614.187512 417.411304 613.431632 417.098526 C 612.675753 416.785748 611.935512 416.43648 611.216123 416.045507 C 610.491521 415.659748 609.792984 415.242711 609.110086 414.789183 C 608.4324 414.330442 607.775567 413.845637 607.139586 413.32434 C 606.508817 412.808257 605.8989 412.255683 605.320261 411.677044 C 604.741622 411.098405 604.194261 410.493701 603.672965 409.85772 C 603.156882 409.226951 602.666863 408.570118 602.213335 407.88722 C 601.759807 407.209534 601.337557 406.505784 600.951798 405.786395 C 600.566039 405.061794 600.21677 404.321553 599.903992 403.565673 C 599.591215 402.809793 599.314928 402.038275 599.075131 401.25633 C 598.840548 400.474386 598.642455 399.682015 598.480853 398.879219 C 598.319252 398.076423 598.199353 397.2632 598.121159 396.449978 C 598.037752 395.636756 598.001261 394.818321 598.001261 393.999885 C 598.001261 393.18145 598.037752 392.363015 598.121159 391.549793 C 598.199353 390.73657 598.319252 389.923348 598.480853 389.120552 C 598.642455 388.317755 598.840548 387.525385 599.075131 386.74344 C 599.314928 385.961496 599.591215 385.189977 599.903992 384.434098 C 600.21677 383.678218 600.566039 382.937977 600.951798 382.213375 C 601.337557 381.493986 601.759807 380.790236 602.213335 380.112551 C 602.666863 379.429653 603.156882 378.772819 603.672965 378.142051 C 604.194261 377.506069 604.741622 376.901366 605.320261 376.322727 C 605.8989 375.744088 606.508817 375.196727 607.139586 374.67543 C 607.775567 374.154134 608.4324 373.669328 609.110086 373.215801 C 609.792984 372.75706 610.491521 372.340023 611.216123 371.954263 C 611.935512 371.568504 612.675753 371.214023 613.431632 370.901245 C 614.187512 370.588467 614.959031 370.31218 615.740975 370.077597 C 616.528132 369.8378 617.320503 369.639708 618.123299 369.478106 C 618.926096 369.321717 619.734105 369.201819 620.547327 369.118411 C 621.365762 369.040217 622.178985 368.998513 622.99742 368.998513 C 623.821068 368.998513 624.63429 369.040217 625.452726 369.118411 C 626.265948 369.201819 627.073957 369.321717 627.876754 369.478106 C 628.67955 369.639708 629.47192 369.8378 630.259078 370.077597 C 631.041022 370.31218 631.812541 370.588467 632.568421 370.901245 C 633.3243 371.214023 634.064541 371.568504 634.78393 371.954263 C 635.508532 372.340023 636.207069 372.75706 636.889967 373.215801 C 637.567653 373.669328 638.224486 374.154134 638.860467 374.67543 C 639.491236 375.196727 640.101153 375.744088 640.679792 376.322727 C 641.258431 376.901366 641.805792 377.506069 642.327088 378.142051 C 642.843171 378.772819 643.33319 379.429653 643.786718 380.112551 C 644.240246 380.790236 644.662496 381.493986 645.048255 382.213375 C 645.434014 382.937977 645.783283 383.678218 646.096061 384.434098 C 646.408838 385.189977 646.685125 385.961496 646.924922 386.74344 C 647.159505 387.525385 647.357598 388.317755 647.5192 389.120552 C 647.680801 389.923348 647.8007 390.73657 647.878894 391.549793 C 647.962301 392.363015 647.998792 393.18145 647.998792 393.999885 Z M 647.998792 393.999885 " stroke="rgb(31.759644%, 75.289917%, 82.749939%)" stroke-width="1" stroke-opacity="1" stroke-miterlimit="4"/><path stroke-linecap="butt" transform="matrix(0.749334, 0, 0, 0.749334, 0.299744, 56.20004)" fill="none" stroke-linejoin="miter" d="M 91.999762 492.999272 C 91.999762 493.786429 91.963271 494.568374 91.885077 495.350318 C 91.806882 496.132263 91.692197 496.908995 91.541021 497.680513 C 91.384632 498.452032 91.196965 499.213124 90.967595 499.969004 C 90.738225 500.719671 90.472363 501.459912 90.175225 502.184513 C 89.872873 502.909115 89.539243 503.618078 89.16391 504.311402 C 88.793789 505.004727 88.392391 505.682412 87.954502 506.334032 C 87.516613 506.985653 87.05266 507.616421 86.552215 508.226338 C 86.051771 508.831042 85.525261 509.414894 84.972687 509.972681 C 84.4149 510.525255 83.831048 511.051764 83.226344 511.552209 C 82.616428 512.052653 81.985659 512.516607 81.334039 512.954496 C 80.682418 513.392385 80.004733 513.793783 79.311409 514.163903 C 78.618085 514.534024 77.909122 514.872866 77.18452 515.175218 C 76.459918 515.472357 75.719677 515.738218 74.969011 515.967588 C 74.213131 516.196959 73.452038 516.384626 72.68052 516.541014 C 71.909001 516.69219 71.132269 516.806876 70.350325 516.88507 C 69.56838 516.963264 68.786436 516.999755 67.999279 516.999755 C 67.212121 516.999755 66.430177 516.963264 65.648232 516.88507 C 64.866288 516.806876 64.089556 516.69219 63.318037 516.541014 C 62.546519 516.384626 61.785426 516.196959 61.03476 515.967588 C 60.27888 515.738218 59.543852 515.472357 58.814037 515.175218 C 58.089435 514.872866 57.380472 514.539237 56.687148 514.163903 C 55.993824 513.793783 55.321352 513.392385 54.664518 512.954496 C 54.012898 512.516607 53.382129 512.052653 52.772213 511.552209 C 52.167509 511.051764 51.583657 510.525255 51.031083 509.972681 C 50.473296 509.414894 49.946787 508.831042 49.446342 508.226338 C 48.951111 507.616421 48.481944 506.985653 48.044055 506.334032 C 47.606166 505.682412 47.204768 505.004727 46.834647 504.311402 C 46.464527 503.618078 46.125684 502.909115 45.828545 502.184513 C 45.526194 501.459912 45.260332 500.719671 45.030962 499.969004 C 44.806805 499.213124 44.613925 498.452032 44.462749 497.680513 C 44.30636 496.908995 44.191675 496.132263 44.113481 495.350318 C 44.040499 494.568374 43.998795 493.786429 43.998795 492.999272 C 43.998795 492.212115 44.040499 491.43017 44.113481 490.648226 C 44.191675 489.866281 44.30636 489.08955 44.462749 488.318031 C 44.613925 487.546512 44.806805 486.78542 45.030962 486.034753 C 45.260332 485.278873 45.526194 484.543845 45.828545 483.814031 C 46.125684 483.089429 46.464527 482.380466 46.834647 481.687142 C 47.204768 480.993817 47.606166 480.321345 48.044055 479.664512 C 48.481944 479.012891 48.951111 478.382123 49.446342 477.772206 C 49.946787 477.167502 50.473296 476.58365 51.031083 476.031076 C 51.583657 475.473289 52.167509 474.94678 52.772213 474.446336 C 53.382129 473.951104 54.012898 473.481937 54.664518 473.044048 C 55.321352 472.606159 55.993824 472.204761 56.687148 471.834641 C 57.380472 471.46452 58.089435 471.125678 58.814037 470.828539 C 59.543852 470.526187 60.27888 470.260326 61.03476 470.030956 C 61.785426 469.806798 62.546519 469.613918 63.318037 469.462743 C 64.089556 469.306354 64.866288 469.191668 65.648232 469.113474 C 66.430177 469.040493 67.212121 468.998789 67.999279 468.998789 C 68.786436 468.998789 69.56838 469.040493 70.350325 469.113474 C 71.132269 469.191668 71.909001 469.306354 72.68052 469.462743 C 73.452038 469.613918 74.213131 469.806798 74.969011 470.030956 C 75.719677 470.260326 76.459918 470.526187 77.18452 470.828539 C 77.909122 471.125678 78.618085 471.46452 79.311409 471.834641 C 80.004733 472.204761 80.682418 472.606159 81.334039 473.044048 C 81.985659 473.481937 82.616428 473.951104 83.226344 474.446336 C 83.831048 474.94678 84.4149 475.473289 84.972687 476.031076 C 85.525261 476.58365 86.051771 477.167502 86.552215 477.772206 C 87.05266 478.382123 87.516613 479.012891 87.954502 479.664512 C 88.392391 480.321345 88.793789 480.993817 89.16391 481.687142 C 89.539243 482.380466 89.872873 483.089429 90.175225 483.814031 C 90.472363 484.543845 90.738225 485.278873 90.967595 486.034753 C 91.196965 486.78542 91.384632 487.546512 91.541021 488.318031 C 91.692197 489.08955 91.806882 489.866281 91.885077 490.648226 C 91.963271 491.43017 91.999762 492.212115 91.999762 492.999272 Z M 91.999762 492.999272 " stroke="rgb(31.759644%, 75.289917%, 82.749939%)" stroke-width="1" stroke-opacity="1" stroke-miterlimit="4"/><path stroke-linecap="butt" transform="matrix(0.749334, 0, 0, 0.749334, 0.299744, 56.20004)" fill="none" stroke-linejoin="miter" d="M 314.999907 76.999585 C 314.999907 78.016113 314.947778 79.027428 314.848731 80.038743 C 314.749685 81.050057 314.603722 82.050946 314.405629 83.046622 C 314.207537 84.042298 313.957315 85.027548 313.665389 85.99716 C 313.36825 86.971984 313.029407 87.925956 312.638435 88.864289 C 312.252676 89.802623 311.82 90.720104 311.340407 91.611521 C 310.860814 92.508151 310.339518 93.378716 309.776518 94.223216 C 309.213518 95.067716 308.608814 95.880938 307.962407 96.668096 C 307.321212 97.45004 306.638314 98.200707 305.918925 98.920096 C 305.204749 99.639485 304.448869 100.31717 303.666925 100.963577 C 302.879768 101.609985 302.066545 102.209476 301.222045 102.777689 C 300.377545 103.340689 299.50698 103.861985 298.615564 104.341578 C 297.718934 104.815957 296.801452 105.253846 295.863119 105.639605 C 294.924785 106.030578 293.970813 106.36942 293.001202 106.666559 C 292.026378 106.958485 291.041128 107.208707 290.045452 107.4068 C 289.049776 107.604893 288.048887 107.750856 287.037572 107.849902 C 286.026257 107.948948 285.014942 108.001078 283.998414 108.001078 C 282.987099 108.001078 281.970572 107.948948 280.959257 107.849902 C 279.953155 107.750856 278.947053 107.604893 277.951377 107.4068 C 276.955701 107.208707 275.970451 106.958485 275.00084 106.666559 C 274.031228 106.36942 273.077256 106.030578 272.138923 105.639605 C 271.200589 105.253846 270.283108 104.815957 269.386478 104.341578 C 268.489848 103.861985 267.619284 103.340689 266.774783 102.777689 C 265.935496 102.209476 265.117061 101.609985 264.335117 100.963577 C 263.547959 100.31717 262.797292 99.639485 262.077903 98.920096 C 261.363728 98.200707 260.680829 97.45004 260.034422 96.668096 C 259.393227 95.880938 258.788524 95.067716 258.225524 94.223216 C 257.662524 93.378716 257.141227 92.508151 256.661635 91.611521 C 256.182042 90.720104 255.749366 89.802623 255.358394 88.864289 C 254.972634 87.925956 254.628579 86.971984 254.336653 85.99716 C 254.039514 85.027548 253.794505 84.042298 253.596412 83.046622 C 253.39832 82.050946 253.247144 81.050057 253.148097 80.038743 C 253.049051 79.027428 253.002134 78.016113 253.002134 76.999585 C 253.002134 75.983057 253.049051 74.971742 253.148097 73.960427 C 253.247144 72.949112 253.39832 71.948223 253.596412 70.952547 C 253.794505 69.956871 254.039514 68.971621 254.336653 68.00201 C 254.628579 67.027186 254.972634 66.073214 255.358394 65.13488 C 255.749366 64.196547 256.182042 63.284278 256.661635 62.387649 C 257.141227 61.491019 257.662524 60.620454 258.225524 59.775954 C 258.788524 58.931454 259.393227 58.118232 260.034422 57.336287 C 260.680829 56.54913 261.363728 55.798463 262.077903 55.079074 C 262.797292 54.359685 263.547959 53.682 264.335117 53.035592 C 265.117061 52.394398 265.935496 51.789694 266.774783 51.226694 C 267.619284 50.658481 268.489848 50.137185 269.386478 49.662805 C 270.283108 49.183213 271.200589 48.750537 272.138923 48.359564 C 273.077256 47.973805 274.031228 47.629749 275.00084 47.332611 C 275.970451 47.040685 276.955701 46.795675 277.951377 46.597583 C 278.947053 46.39949 279.953155 46.248314 280.959257 46.149268 C 281.970572 46.050222 282.987099 45.998092 283.998414 45.998092 C 285.014942 45.998092 286.026257 46.050222 287.037572 46.149268 C 288.048887 46.248314 289.049776 46.39949 290.045452 46.597583 C 291.041128 46.795675 292.026378 47.040685 293.001202 47.332611 C 293.970813 47.629749 294.924785 47.973805 295.863119 48.359564 C 296.801452 48.750537 297.718934 49.183213 298.615564 49.662805 C 299.50698 50.137185 300.377545 50.658481 301.222045 51.226694 C 302.066545 51.789694 302.879768 52.394398 303.666925 53.035592 C 304.448869 53.682 305.204749 54.359685 305.918925 55.079074 C 306.638314 55.798463 307.321212 56.54913 307.962407 57.336287 C 308.608814 58.118232 309.213518 58.931454 309.776518 59.775954 C 310.339518 60.620454 310.860814 61.491019 311.340407 62.387649 C 311.82 63.284278 312.252676 64.196547 312.638435 65.13488 C 313.029407 66.073214 313.36825 67.027186 313.665389 68.00201 C 313.957315 68.971621 314.207537 69.956871 314.405629 70.952547 C 314.603722 71.948223 314.749685 72.949112 314.848731 73.960427 C 314.947778 74.971742 314.999907 75.983057 314.999907 76.999585 Z M 314.999907 76.999585 " stroke="rgb(31.759644%, 75.289917%, 82.749939%)" stroke-width="1" stroke-opacity="1" stroke-miterlimit="4"/><path stroke-linecap="butt" transform="matrix(0.749334, 0, 0, 0.749334, 0.299744, 56.20004)" fill="none" stroke-linejoin="miter" d="M 610.001502 525.001654 C 610.001502 526.341386 609.933734 527.681117 609.80341 529.020849 C 609.673086 530.355367 609.474993 531.67946 609.214345 532.99834 C 608.948484 534.317219 608.62528 535.615247 608.234308 536.902849 C 607.843336 538.185238 607.395021 539.451988 606.878937 540.687461 C 606.362854 541.928146 605.789428 543.142766 605.158659 544.326109 C 604.527891 545.509452 603.834567 546.661517 603.089113 547.777091 C 602.343659 548.892665 601.546076 549.971748 600.69115 551.009128 C 599.841437 552.046508 598.939594 553.042184 597.990835 553.990943 C 597.042076 554.939702 596.0464 555.841545 595.00902 556.691258 C 593.97164 557.546184 592.892557 558.343767 591.776983 559.089221 C 590.661408 559.834675 589.509344 560.527999 588.326001 561.158768 C 587.142658 561.789536 585.928038 562.362962 584.687352 562.879046 C 583.45188 563.395129 582.18513 563.843444 580.902741 564.234416 C 579.615139 564.625388 578.317111 564.948592 576.998232 565.214453 C 575.679352 565.475101 574.355259 565.673194 573.02074 565.803518 C 571.681009 565.933842 570.341277 566.001611 569.001546 566.001611 C 567.656601 566.001611 566.31687 565.933842 564.982351 565.803518 C 563.642619 565.673194 562.318527 565.475101 560.999647 565.214453 C 559.68598 564.948592 558.382739 564.625388 557.10035 564.234416 C 555.812749 563.843444 554.551211 563.395129 553.310526 562.879046 C 552.069841 562.362962 550.85522 561.789536 549.671878 561.158768 C 548.488535 560.527999 547.33647 559.834675 546.220896 559.089221 C 545.105322 558.343767 544.026238 557.546184 542.988859 556.691258 C 541.951479 555.841545 540.955803 554.939702 540.007044 553.990943 C 539.058284 553.042184 538.156442 552.046508 537.306729 551.009128 C 536.457016 549.971748 535.654219 548.892665 534.908766 547.777091 C 534.163312 546.661517 533.475201 545.509452 532.839219 544.326109 C 532.208451 543.142766 531.635025 541.928146 531.118941 540.687461 C 530.608071 539.451988 530.154543 538.185238 529.763571 536.902849 C 529.377811 535.615247 529.049395 534.317219 528.788747 532.99834 C 528.528098 531.67946 528.330006 530.355367 528.199682 529.020849 C 528.064145 527.681117 528.001589 526.341386 528.001589 525.001654 C 528.001589 523.656709 528.064145 522.316978 528.199682 520.982459 C 528.330006 519.642728 528.528098 518.318635 528.788747 516.999755 C 529.049395 515.686088 529.377811 514.382848 529.763571 513.100459 C 530.154543 511.812857 530.608071 510.55132 531.118941 509.310634 C 531.635025 508.069949 532.208451 506.855329 532.839219 505.671986 C 533.475201 504.488643 534.163312 503.336578 534.908766 502.221004 C 535.654219 501.10543 536.457016 500.026347 537.306729 498.988967 C 538.156442 497.951587 539.058284 496.955911 540.007044 496.007152 C 540.955803 495.058393 541.951479 494.15655 542.988859 493.306837 C 544.026238 492.457124 545.105322 491.654327 546.220896 490.908874 C 547.33647 490.16342 548.488535 489.475309 549.671878 488.839327 C 550.85522 488.208559 552.069841 487.635133 553.310526 487.119049 C 554.551211 486.608179 555.812749 486.154651 557.10035 485.763679 C 558.382739 485.37792 559.68598 485.049503 560.999647 484.788855 C 562.318527 484.528207 563.642619 484.330114 564.982351 484.19979 C 566.31687 484.064253 567.656601 484.001697 569.001546 484.001697 C 570.341277 484.001697 571.681009 484.064253 573.02074 484.19979 C 574.355259 484.330114 575.679352 484.528207 576.998232 484.788855 C 578.317111 485.049503 579.615139 485.37792 580.902741 485.763679 C 582.18513 486.154651 583.45188 486.608179 584.687352 487.119049 C 585.928038 487.635133 587.142658 488.208559 588.326001 488.839327 C 589.509344 489.475309 590.661408 490.16342 591.776983 490.908874 C 592.892557 491.654327 593.97164 492.457124 595.00902 493.306837 C 596.0464 494.15655 597.042076 495.058393 597.990835 496.007152 C 598.939594 496.955911 599.841437 497.951587 600.69115 498.988967 C 601.546076 500.026347 602.343659 501.10543 603.089113 502.221004 C 603.834567 503.336578 604.527891 504.488643 605.158659 505.671986 C 605.789428 506.855329 606.362854 508.069949 606.878937 509.310634 C 607.395021 510.55132 607.843336 511.812857 608.234308 513.100459 C 608.62528 514.382848 608.948484 515.686088 609.214345 516.999755 C 609.474993 518.318635 609.673086 519.642728 609.80341 520.982459 C 609.933734 522.316978 610.001502 523.656709 610.001502 525.001654 Z M 610.001502 525.001654 " stroke="rgb(31.759644%, 75.289917%, 82.749939%)" stroke-width="1" stroke-opacity="1" stroke-miterlimit="4"/></svg>