<?xml version="1.0" encoding="UTF-8"?><svg xmlns="http://www.w3.org/2000/svg" xmlns:xlink="http://www.w3.org/1999/xlink" width="600" zoomAndPan="magnify" viewBox="0 0 600 374.999991" height="374.999991" preserveAspectRatio="xMidYMid meet" version="1.0"><defs><clipPath id="clip-0"><path d="M 126.320312 332 L 473.570312 332 L 473.570312 333.546875 L 126.320312 333.546875 Z M 126.320312 332 " clip-rule="nonzero"/></clipPath><clipPath id="clip-1"><path d="M 411 200 L 432 200 L 432 333.546875 L 411 333.546875 Z M 411 200 " clip-rule="nonzero"/></clipPath><clipPath id="clip-2"><path d="M 366 266 L 373 266 L 373 333.546875 L 366 333.546875 Z M 366 266 " clip-rule="nonzero"/></clipPath><clipPath id="clip-3"><path d="M 168 189 L 191 189 L 191 333.546875 L 168 333.546875 Z M 168 189 " clip-rule="nonzero"/></clipPath><clipPath id="clip-4"><path d="M 236 266 L 243 266 L 243 333.546875 L 236 333.546875 Z M 236 266 " clip-rule="nonzero"/></clipPath><clipPath id="clip-5"><path d="M 270 41.796875 L 310 41.796875 L 310 126 L 270 126 Z M 270 41.796875 " clip-rule="nonzero"/></clipPath><clipPath id="clip-6"><path d="M 321 41.796875 L 350 41.796875 L 350 105 L 321 105 Z M 321 41.796875 " clip-rule="nonzero"/></clipPath><clipPath id="clip-7"><path d="M 232 41.796875 L 262 41.796875 L 262 105 L 232 105 Z M 232 41.796875 " clip-rule="nonzero"/></clipPath></defs><path fill="rgb(24.708557%, 23.919678%, 33.729553%)" d="M 352.371094 330.25 L 287.320312 212.789062 C 287.28125 212.167969 286.992188 211.699219 286.453125 211.386719 C 286.160156 211.21875 285.847656 211.144531 285.511719 211.160156 C 285.503906 211.15625 285.492188 211.160156 285.480469 211.15625 C 285.46875 211.160156 285.460938 211.15625 285.449219 211.160156 C 285.226562 211.148438 285.011719 211.179688 284.800781 211.253906 C 284.589844 211.328125 284.402344 211.4375 284.234375 211.582031 C 284.066406 211.730469 283.929688 211.902344 283.828125 212.101562 C 283.730469 212.300781 283.667969 212.511719 283.648438 212.734375 L 214.707031 330.25 C 214.589844 330.449219 214.515625 330.667969 214.484375 330.898438 C 214.453125 331.128906 214.46875 331.355469 214.527344 331.578125 C 214.585938 331.804688 214.6875 332.007812 214.828125 332.195312 C 214.96875 332.378906 215.140625 332.53125 215.34375 332.644531 C 215.542969 332.761719 215.761719 332.835938 215.988281 332.867188 C 216.21875 332.894531 216.449219 332.878906 216.671875 332.820312 C 216.894531 332.757812 217.101562 332.660156 217.285156 332.515625 C 217.46875 332.375 217.617188 332.203125 217.734375 332 L 285.433594 216.605469 L 349.34375 332 C 349.457031 332.203125 349.605469 332.375 349.792969 332.515625 C 349.976562 332.660156 350.179688 332.761719 350.402344 332.820312 C 350.628906 332.882812 350.855469 332.898438 351.085938 332.867188 C 351.316406 332.835938 351.53125 332.761719 351.734375 332.648438 C 351.933594 332.53125 352.105469 332.378906 352.246094 332.195312 C 352.390625 332.011719 352.488281 331.804688 352.550781 331.582031 C 352.609375 331.355469 352.625 331.128906 352.59375 330.898438 C 352.5625 330.667969 352.488281 330.449219 352.371094 330.25 Z M 352.371094 330.25 " fill-opacity="1" fill-rule="nonzero"/><path fill="rgb(100%, 71.369934%, 71.369934%)" d="M 274.703125 310.097656 L 282.054688 308.40625 L 279.046875 279.199219 L 268.195312 281.691406 Z M 274.703125 310.097656 " fill-opacity="1" fill-rule="nonzero"/><path fill="rgb(18.429565%, 18.03894%, 25.489807%)" d="M 280.386719 295.988281 L 269.921875 298.390625 L 266.578125 291.84375 L 266.386719 291.609375 C 265.644531 290.699219 265.074219 289.6875 264.671875 288.582031 C 264.273438 287.476562 264.066406 286.335938 264.050781 285.160156 L 255.351562 262.117188 L 254.640625 261.78125 C 254.367188 261.648438 254.109375 261.492188 253.867188 261.304688 C 253.625 261.117188 253.40625 260.910156 253.210938 260.675781 C 253.015625 260.441406 252.84375 260.191406 252.703125 259.921875 C 252.558594 259.652344 252.445312 259.371094 252.363281 259.078125 C 252.277344 258.785156 252.226562 258.484375 252.207031 258.179688 C 252.1875 257.875 252.203125 257.574219 252.246094 257.273438 C 252.292969 256.96875 252.367188 256.675781 252.476562 256.390625 C 252.582031 256.105469 252.71875 255.835938 252.886719 255.578125 L 251.964844 253.140625 L 225.984375 253.1875 L 225.957031 253.179688 L 194.054688 244.21875 L 197.40625 224.21875 L 206.378906 229.871094 C 209.335938 229.679688 259.992188 226.566406 264.671875 237.933594 C 268.839844 248.058594 274.84375 265.355469 279.148438 278.085938 C 279.363281 278.65625 279.628906 279.207031 279.945312 279.730469 C 280.628906 280.78125 281.007812 281.929688 281.085938 283.179688 C 281.136719 283.714844 281.238281 284.242188 281.390625 284.757812 C 283.179688 290.113281 280.453125 295.847656 280.425781 295.902344 Z M 280.386719 295.988281 " fill-opacity="1" fill-rule="nonzero"/><path fill="rgb(18.429565%, 18.03894%, 25.489807%)" d="M 272.21875 307.65625 L 274.609375 307.105469 L 283.070312 301.160156 L 288.945312 303.8125 C 289.644531 303.648438 290.351562 303.558594 291.070312 303.539062 C 291.789062 303.515625 292.5 303.566406 293.210938 303.6875 C 293.917969 303.804688 294.605469 303.992188 295.277344 304.25 C 295.949219 304.503906 296.589844 304.824219 297.199219 305.207031 C 297.804688 305.589844 298.371094 306.027344 298.894531 306.519531 C 299.417969 307.011719 299.886719 307.550781 300.300781 308.136719 C 300.71875 308.722656 301.074219 309.34375 301.367188 310 C 301.660156 310.65625 301.886719 311.335938 302.050781 312.035156 L 302.128906 312.382812 L 274.742188 318.675781 Z M 272.21875 307.65625 " fill-opacity="1" fill-rule="nonzero"/><path fill="rgb(94.119263%, 94.119263%, 94.119263%)" d="M 163.65625 308.308594 C 164.402344 300.160156 169.171875 292.003906 176.816406 289.113281 C 176.125 291.210938 175.621094 293.351562 175.308594 295.535156 C 174.996094 297.71875 174.871094 299.917969 174.945312 302.121094 C 175.015625 304.328125 175.277344 306.511719 175.730469 308.671875 C 176.183594 310.832031 176.824219 312.9375 177.644531 314.984375 C 178.9375 318.164062 180.703125 321.566406 179.691406 324.84375 C 179.058594 326.886719 177.410156 328.484375 175.539062 329.511719 C 173.667969 330.535156 171.574219 331.0625 169.503906 331.582031 L 169.105469 331.933594 C 165.558594 324.5625 162.910156 316.460938 163.65625 308.308594 Z M 163.65625 308.308594 " fill-opacity="1" fill-rule="nonzero"/><path fill="rgb(100%, 100%, 100%)" d="M 176.894531 289.261719 C 174.726562 291.859375 173.007812 294.730469 171.742188 297.871094 C 170.476562 301.011719 169.722656 304.269531 169.480469 307.648438 C 169.351562 309.109375 169.453125 310.554688 169.777344 311.988281 C 170.148438 313.386719 170.847656 314.59375 171.875 315.613281 C 172.796875 316.5625 173.847656 317.429688 174.523438 318.589844 C 174.863281 319.195312 175.066406 319.84375 175.128906 320.535156 C 175.191406 321.226562 175.113281 321.902344 174.886719 322.558594 C 174.378906 324.191406 173.3125 325.546875 172.222656 326.832031 C 171.011719 328.261719 169.734375 329.726562 169.261719 331.582031 C 169.203125 331.808594 168.859375 331.703125 168.914062 331.480469 C 169.738281 328.25 172.785156 326.328125 174.171875 323.398438 C 174.820312 322.03125 175.058594 320.457031 174.367188 319.058594 C 173.761719 317.835938 172.675781 316.941406 171.734375 315.984375 C 170.71875 315.011719 169.992188 313.855469 169.554688 312.515625 C 169.15625 311.105469 169 309.667969 169.09375 308.207031 C 169.246094 304.910156 169.90625 301.722656 171.066406 298.636719 C 172.375 295.101562 174.234375 291.890625 176.648438 289 C 176.796875 288.824219 177.042969 289.085938 176.894531 289.261719 Z M 176.894531 289.261719 " fill-opacity="1" fill-rule="nonzero"/><path fill="rgb(100%, 100%, 100%)" d="M 169.507812 305.464844 C 168.949219 305.347656 168.425781 305.136719 167.941406 304.832031 C 167.453125 304.527344 167.035156 304.148438 166.683594 303.699219 C 166.332031 303.246094 166.070312 302.746094 165.898438 302.199219 C 165.722656 301.652344 165.648438 301.09375 165.675781 300.519531 C 165.679688 300.402344 165.742188 300.347656 165.855469 300.347656 C 165.972656 300.351562 166.03125 300.410156 166.035156 300.527344 C 166.007812 301.058594 166.078125 301.582031 166.242188 302.089844 C 166.402344 302.597656 166.648438 303.0625 166.976562 303.484375 C 167.304688 303.90625 167.695312 304.257812 168.148438 304.535156 C 168.601562 304.816406 169.089844 305.011719 169.609375 305.117188 C 169.839844 305.164062 169.734375 305.511719 169.507812 305.464844 Z M 169.507812 305.464844 " fill-opacity="1" fill-rule="nonzero"/><path fill="rgb(100%, 100%, 100%)" d="M 171.34375 315.191406 C 172.328125 314.558594 173.164062 313.769531 173.851562 312.820312 C 174.539062 311.871094 175.027344 310.828125 175.324219 309.695312 C 175.382812 309.46875 175.726562 309.570312 175.667969 309.796875 C 175.359375 310.976562 174.847656 312.058594 174.128906 313.046875 C 173.414062 314.03125 172.542969 314.851562 171.515625 315.507812 C 171.320312 315.632812 171.148438 315.316406 171.34375 315.191406 Z M 171.34375 315.191406 " fill-opacity="1" fill-rule="nonzero"/><path fill="rgb(100%, 100%, 100%)" d="M 172.710938 295.460938 C 173.132812 295.644531 173.570312 295.71875 174.03125 295.679688 C 174.488281 295.640625 174.910156 295.496094 175.292969 295.246094 C 175.488281 295.117188 175.660156 295.433594 175.464844 295.5625 C 175.039062 295.835938 174.574219 295.996094 174.066406 296.039062 C 173.5625 296.082031 173.074219 296.003906 172.609375 295.804688 C 172.496094 295.769531 172.457031 295.695312 172.488281 295.582031 C 172.519531 295.46875 172.59375 295.425781 172.710938 295.460938 Z M 172.710938 295.460938 " fill-opacity="1" fill-rule="nonzero"/><path fill="rgb(94.119263%, 94.119263%, 94.119263%)" d="M 200.839844 302.851562 C 200.71875 302.933594 200.601562 303.019531 200.484375 303.105469 C 198.886719 304.230469 197.390625 305.476562 196 306.847656 C 195.890625 306.953125 195.78125 307.058594 195.675781 307.167969 C 192.328125 310.527344 189.703125 314.378906 187.800781 318.722656 C 187.050781 320.4375 186.433594 322.203125 185.953125 324.011719 C 185.285156 326.511719 184.761719 329.273438 183.355469 331.34375 C 183.210938 331.558594 183.054688 331.769531 182.882812 331.96875 L 169.566406 332.394531 C 169.535156 332.382812 169.503906 332.371094 169.476562 332.355469 L 168.945312 332.398438 C 168.960938 332.300781 168.984375 332.203125 169 332.109375 C 169.011719 332.054688 169.027344 332 169.035156 331.941406 C 169.042969 331.90625 169.050781 331.871094 169.058594 331.835938 C 169.058594 331.824219 169.0625 331.8125 169.066406 331.800781 C 169.070312 331.769531 169.078125 331.738281 169.082031 331.707031 C 169.199219 331.160156 169.320312 330.609375 169.445312 330.058594 C 169.445312 330.058594 169.445312 330.058594 169.445312 330.054688 C 170.355469 325.84375 171.746094 321.804688 173.621094 317.925781 C 173.675781 317.8125 173.734375 317.695312 173.796875 317.578125 C 174.664062 315.863281 175.664062 314.234375 176.800781 312.683594 C 177.421875 311.835938 178.085938 311.023438 178.792969 310.246094 C 180.628906 308.226562 182.730469 306.542969 185.101562 305.1875 C 189.796875 302.507812 195.292969 301.363281 200.445312 302.742188 C 200.578125 302.777344 200.707031 302.8125 200.839844 302.851562 Z M 200.839844 302.851562 " fill-opacity="1" fill-rule="nonzero"/><path fill="rgb(100%, 100%, 100%)" d="M 200.816406 303.023438 C 197.519531 303.789062 194.425781 305.042969 191.527344 306.785156 C 188.625 308.53125 186.066406 310.679688 183.84375 313.230469 C 182.859375 314.320312 182.070312 315.535156 181.472656 316.875 C 180.925781 318.214844 180.753906 319.601562 180.964844 321.03125 C 181.128906 322.347656 181.449219 323.675781 181.289062 325.007812 C 181.199219 325.695312 180.96875 326.335938 180.605469 326.925781 C 180.238281 327.515625 179.769531 328.007812 179.195312 328.394531 C 177.804688 329.390625 176.140625 329.828125 174.5 330.199219 C 172.675781 330.613281 170.773438 331.011719 169.277344 332.207031 C 169.097656 332.351562 168.882812 332.0625 169.0625 331.917969 C 171.664062 329.835938 175.25 330.140625 178.121094 328.636719 C 179.457031 327.933594 180.59375 326.824219 180.882812 325.289062 C 181.136719 323.945312 180.804688 322.578125 180.628906 321.246094 C 180.40625 319.855469 180.519531 318.496094 180.972656 317.160156 C 181.503906 315.792969 182.242188 314.554688 183.195312 313.441406 C 185.300781 310.902344 187.742188 308.753906 190.527344 306.992188 C 193.695312 304.957031 197.109375 303.515625 200.777344 302.664062 C 201 302.609375 201.039062 302.96875 200.816406 303.023438 Z M 200.816406 303.023438 " fill-opacity="1" fill-rule="nonzero"/><path fill="rgb(100%, 100%, 100%)" d="M 185.175781 311.503906 C 184.800781 311.070312 184.507812 310.589844 184.304688 310.050781 C 184.097656 309.515625 183.992188 308.960938 183.984375 308.390625 C 183.976562 307.816406 184.066406 307.257812 184.257812 306.71875 C 184.445312 306.175781 184.722656 305.683594 185.085938 305.242188 C 185.234375 305.0625 185.519531 305.285156 185.371094 305.464844 C 185.03125 305.875 184.773438 306.332031 184.597656 306.835938 C 184.417969 307.339844 184.335938 307.859375 184.34375 308.394531 C 184.351562 308.929688 184.453125 309.445312 184.648438 309.941406 C 184.839844 310.441406 185.113281 310.886719 185.46875 311.289062 C 185.621094 311.460938 185.332031 311.675781 185.175781 311.503906 Z M 185.175781 311.503906 " fill-opacity="1" fill-rule="nonzero"/><path fill="rgb(100%, 100%, 100%)" d="M 180.792969 320.375 C 181.960938 320.464844 183.101562 320.335938 184.222656 319.992188 C 185.339844 319.652344 186.359375 319.113281 187.277344 318.386719 C 187.457031 318.242188 187.671875 318.53125 187.492188 318.675781 C 186.535156 319.433594 185.476562 319.988281 184.308594 320.34375 C 183.144531 320.699219 181.953125 320.828125 180.738281 320.734375 C 180.507812 320.714844 180.5625 320.359375 180.792969 320.375 Z M 180.792969 320.375 " fill-opacity="1" fill-rule="nonzero"/><path fill="rgb(100%, 100%, 100%)" d="M 193.746094 305.445312 C 193.972656 305.847656 194.28125 306.171875 194.667969 306.414062 C 195.058594 306.660156 195.480469 306.800781 195.941406 306.832031 C 196.171875 306.847656 196.117188 307.203125 195.886719 307.1875 C 195.378906 307.152344 194.914062 306.996094 194.484375 306.726562 C 194.054688 306.457031 193.710938 306.101562 193.457031 305.660156 C 193.390625 305.566406 193.40625 305.480469 193.496094 305.40625 C 193.59375 305.335938 193.675781 305.351562 193.746094 305.445312 Z M 193.746094 305.445312 " fill-opacity="1" fill-rule="nonzero"/><path fill="rgb(94.119263%, 94.119263%, 94.119263%)" d="M 381.503906 308.308594 C 380.757812 300.160156 375.988281 292.003906 368.34375 289.113281 C 369.035156 291.210938 369.535156 293.351562 369.851562 295.535156 C 370.164062 297.71875 370.285156 299.917969 370.214844 302.121094 C 370.144531 304.328125 369.882812 306.511719 369.429688 308.671875 C 368.976562 310.832031 368.335938 312.9375 367.511719 314.984375 C 366.222656 318.164062 364.457031 321.566406 365.46875 324.84375 C 366.101562 326.886719 367.75 328.484375 369.621094 329.511719 C 371.492188 330.535156 373.585938 331.0625 375.652344 331.582031 L 376.054688 331.933594 C 379.601562 324.5625 382.25 316.460938 381.503906 308.308594 Z M 381.503906 308.308594 " fill-opacity="1" fill-rule="nonzero"/><path fill="rgb(100%, 100%, 100%)" d="M 368.265625 289.261719 C 370.433594 291.859375 372.152344 294.730469 373.417969 297.871094 C 374.683594 301.011719 375.4375 304.269531 375.675781 307.648438 C 375.808594 309.109375 375.707031 310.554688 375.382812 311.988281 C 375.011719 313.386719 374.3125 314.59375 373.285156 315.613281 C 372.363281 316.5625 371.3125 317.429688 370.636719 318.589844 C 370.296875 319.195312 370.09375 319.84375 370.03125 320.535156 C 369.96875 321.226562 370.046875 321.902344 370.273438 322.558594 C 370.78125 324.191406 371.847656 325.546875 372.9375 326.832031 C 374.148438 328.261719 375.425781 329.726562 375.898438 331.582031 C 375.957031 331.808594 376.300781 331.703125 376.246094 331.480469 C 375.421875 328.25 372.375 326.328125 370.988281 323.398438 C 370.339844 322.03125 370.101562 320.457031 370.792969 319.058594 C 371.398438 317.835938 372.484375 316.941406 373.425781 315.984375 C 374.441406 315.011719 375.164062 313.855469 375.605469 312.515625 C 376.003906 311.105469 376.160156 309.667969 376.066406 308.207031 C 375.914062 304.910156 375.253906 301.722656 374.09375 298.636719 C 372.785156 295.101562 370.925781 291.890625 368.511719 289 C 368.363281 288.824219 368.117188 289.085938 368.265625 289.261719 Z M 368.265625 289.261719 " fill-opacity="1" fill-rule="nonzero"/><path fill="rgb(100%, 100%, 100%)" d="M 375.652344 305.464844 C 376.210938 305.347656 376.734375 305.136719 377.21875 304.832031 C 377.707031 304.527344 378.125 304.148438 378.476562 303.699219 C 378.828125 303.246094 379.089844 302.746094 379.261719 302.199219 C 379.4375 301.652344 379.511719 301.09375 379.484375 300.519531 C 379.480469 300.402344 379.417969 300.347656 379.304688 300.347656 C 379.1875 300.351562 379.128906 300.410156 379.125 300.527344 C 379.148438 301.058594 379.082031 301.582031 378.917969 302.089844 C 378.757812 302.597656 378.511719 303.0625 378.183594 303.484375 C 377.855469 303.90625 377.464844 304.257812 377.011719 304.539062 C 376.558594 304.816406 376.070312 305.011719 375.550781 305.117188 C 375.320312 305.164062 375.425781 305.511719 375.652344 305.464844 Z M 375.652344 305.464844 " fill-opacity="1" fill-rule="nonzero"/><path fill="rgb(100%, 100%, 100%)" d="M 373.816406 315.191406 C 372.832031 314.558594 371.996094 313.769531 371.308594 312.820312 C 370.621094 311.871094 370.132812 310.828125 369.835938 309.695312 C 369.777344 309.46875 369.433594 309.570312 369.492188 309.796875 C 369.800781 310.976562 370.3125 312.058594 371.03125 313.046875 C 371.746094 314.03125 372.617188 314.851562 373.644531 315.507812 C 373.839844 315.632812 374.011719 315.316406 373.816406 315.191406 Z M 373.816406 315.191406 " fill-opacity="1" fill-rule="nonzero"/><path fill="rgb(100%, 100%, 100%)" d="M 372.449219 295.460938 C 372.027344 295.644531 371.589844 295.71875 371.128906 295.679688 C 370.671875 295.640625 370.25 295.496094 369.867188 295.246094 C 369.671875 295.117188 369.5 295.433594 369.691406 295.5625 C 370.121094 295.835938 370.585938 295.996094 371.09375 296.039062 C 371.597656 296.082031 372.085938 296.003906 372.550781 295.804688 C 372.660156 295.769531 372.703125 295.695312 372.671875 295.582031 C 372.640625 295.46875 372.5625 295.425781 372.449219 295.460938 Z M 372.449219 295.460938 " fill-opacity="1" fill-rule="nonzero"/><path fill="rgb(94.119263%, 94.119263%, 94.119263%)" d="M 344.320312 302.851562 C 344.441406 302.933594 344.558594 303.019531 344.675781 303.105469 C 346.273438 304.230469 347.769531 305.476562 349.160156 306.847656 C 349.269531 306.953125 349.378906 307.058594 349.484375 307.167969 C 352.832031 310.527344 355.453125 314.378906 357.359375 318.722656 C 358.109375 320.4375 358.726562 322.203125 359.207031 324.011719 C 359.875 326.511719 360.394531 329.273438 361.804688 331.34375 C 361.949219 331.558594 362.105469 331.769531 362.277344 331.96875 L 375.59375 332.394531 C 375.625 332.382812 375.652344 332.371094 375.683594 332.355469 L 376.214844 332.398438 C 376.199219 332.300781 376.175781 332.203125 376.160156 332.109375 C 376.148438 332.054688 376.132812 332 376.125 331.941406 C 376.117188 331.90625 376.109375 331.871094 376.101562 331.835938 C 376.101562 331.824219 376.097656 331.8125 376.09375 331.800781 C 376.089844 331.769531 376.082031 331.738281 376.078125 331.707031 C 375.960938 331.160156 375.839844 330.609375 375.714844 330.058594 C 375.714844 330.058594 375.714844 330.058594 375.714844 330.054688 C 374.804688 325.84375 373.414062 321.804688 371.539062 317.925781 C 371.484375 317.8125 371.425781 317.695312 371.363281 317.578125 C 370.496094 315.863281 369.496094 314.234375 368.359375 312.683594 C 367.738281 311.835938 367.074219 311.023438 366.367188 310.246094 C 364.53125 308.226562 362.429688 306.542969 360.058594 305.1875 C 355.363281 302.507812 349.867188 301.363281 344.714844 302.742188 C 344.582031 302.777344 344.453125 302.8125 344.320312 302.851562 Z M 344.320312 302.851562 " fill-opacity="1" fill-rule="nonzero"/><path fill="rgb(100%, 100%, 100%)" d="M 344.34375 303.023438 C 347.640625 303.789062 350.734375 305.042969 353.632812 306.785156 C 356.535156 308.53125 359.09375 310.679688 361.316406 313.230469 C 362.300781 314.320312 363.089844 315.535156 363.6875 316.875 C 364.234375 318.214844 364.40625 319.601562 364.195312 321.03125 C 364.03125 322.347656 363.710938 323.671875 363.871094 325.007812 C 363.960938 325.695312 364.191406 326.335938 364.554688 326.925781 C 364.921875 327.515625 365.390625 328.007812 365.964844 328.394531 C 367.355469 329.390625 369.019531 329.828125 370.660156 330.199219 C 372.484375 330.613281 374.386719 331.011719 375.882812 332.207031 C 376.0625 332.351562 376.277344 332.0625 376.097656 331.917969 C 373.496094 329.835938 369.910156 330.140625 367.039062 328.636719 C 365.699219 327.933594 364.566406 326.824219 364.277344 325.289062 C 364.023438 323.945312 364.355469 322.578125 364.53125 321.246094 C 364.753906 319.855469 364.640625 318.496094 364.1875 317.160156 C 363.65625 315.792969 362.917969 314.554688 361.964844 313.441406 C 359.859375 310.902344 357.417969 308.753906 354.632812 306.992188 C 351.464844 304.957031 348.050781 303.515625 344.382812 302.664062 C 344.160156 302.609375 344.121094 302.96875 344.34375 303.023438 Z M 344.34375 303.023438 " fill-opacity="1" fill-rule="nonzero"/><path fill="rgb(100%, 100%, 100%)" d="M 359.980469 311.503906 C 360.359375 311.070312 360.652344 310.589844 360.855469 310.050781 C 361.0625 309.515625 361.167969 308.960938 361.175781 308.390625 C 361.183594 307.816406 361.09375 307.257812 360.902344 306.71875 C 360.714844 306.175781 360.4375 305.683594 360.074219 305.242188 C 359.925781 305.0625 359.640625 305.285156 359.789062 305.464844 C 360.128906 305.875 360.386719 306.332031 360.5625 306.835938 C 360.742188 307.339844 360.824219 307.859375 360.816406 308.394531 C 360.808594 308.929688 360.707031 309.445312 360.511719 309.941406 C 360.320312 310.441406 360.046875 310.886719 359.691406 311.289062 C 359.539062 311.460938 359.828125 311.675781 359.980469 311.503906 Z M 359.980469 311.503906 " fill-opacity="1" fill-rule="nonzero"/><path fill="rgb(100%, 100%, 100%)" d="M 364.367188 320.375 C 363.199219 320.464844 362.058594 320.335938 360.9375 319.992188 C 359.820312 319.652344 358.800781 319.113281 357.882812 318.386719 C 357.703125 318.242188 357.488281 318.53125 357.667969 318.675781 C 358.625 319.433594 359.683594 319.988281 360.851562 320.34375 C 362.015625 320.699219 363.207031 320.828125 364.421875 320.734375 C 364.652344 320.714844 364.597656 320.359375 364.367188 320.375 Z M 364.367188 320.375 " fill-opacity="1" fill-rule="nonzero"/><path fill="rgb(100%, 100%, 100%)" d="M 351.414062 305.445312 C 351.1875 305.847656 350.878906 306.171875 350.492188 306.414062 C 350.101562 306.660156 349.679688 306.800781 349.21875 306.832031 C 348.988281 306.847656 349.042969 307.203125 349.273438 307.1875 C 349.777344 307.152344 350.246094 306.996094 350.675781 306.726562 C 351.105469 306.457031 351.449219 306.101562 351.703125 305.660156 C 351.769531 305.566406 351.753906 305.480469 351.664062 305.40625 C 351.566406 305.335938 351.484375 305.351562 351.414062 305.445312 Z M 351.414062 305.445312 " fill-opacity="1" fill-rule="nonzero"/><g clip-path="url(#clip-0)"><path fill="rgb(24.708557%, 23.919678%, 33.729553%)" d="M 473.570312 333.046875 C 473.570312 333.175781 473.527344 333.285156 473.4375 333.375 C 473.34375 333.464844 473.238281 333.511719 473.109375 333.511719 L 126.785156 333.511719 C 126.65625 333.511719 126.546875 333.464844 126.457031 333.375 C 126.367188 333.285156 126.320312 333.175781 126.320312 333.046875 C 126.320312 332.917969 126.367188 332.8125 126.457031 332.71875 C 126.546875 332.628906 126.65625 332.585938 126.785156 332.585938 L 473.109375 332.585938 C 473.238281 332.585938 473.34375 332.628906 473.4375 332.71875 C 473.527344 332.8125 473.570312 332.921875 473.570312 333.046875 Z M 473.570312 333.046875 " fill-opacity="1" fill-rule="nonzero"/></g><path fill="rgb(24.708557%, 23.919678%, 33.729553%)" d="M 351.148438 152.15625 C 351.148438 152.386719 351.105469 152.613281 351.015625 152.824219 C 350.925781 153.039062 350.800781 153.230469 350.636719 153.394531 C 350.472656 153.558594 350.28125 153.683594 350.070312 153.773438 C 349.855469 153.863281 349.632812 153.90625 349.398438 153.90625 C 349.167969 153.90625 348.945312 153.863281 348.730469 153.773438 C 348.515625 153.683594 348.328125 153.558594 348.164062 153.394531 C 348 153.230469 347.871094 153.039062 347.785156 152.824219 C 347.695312 152.613281 347.652344 152.386719 347.652344 152.15625 C 347.652344 151.921875 347.695312 151.699219 347.785156 151.484375 C 347.871094 151.269531 348 151.082031 348.164062 150.917969 C 348.328125 150.753906 348.515625 150.625 348.730469 150.539062 C 348.945312 150.449219 349.167969 150.40625 349.398438 150.40625 C 349.632812 150.40625 349.855469 150.449219 350.070312 150.539062 C 350.28125 150.625 350.472656 150.753906 350.636719 150.917969 C 350.800781 151.082031 350.925781 151.269531 351.015625 151.484375 C 351.105469 151.699219 351.148438 151.921875 351.148438 152.15625 Z M 351.148438 152.15625 " fill-opacity="1" fill-rule="nonzero"/><path fill="rgb(89.408875%, 89.408875%, 89.408875%)" d="M 327.503906 165.644531 L 351.078125 150.8125 C 351.292969 150.675781 351.527344 150.589844 351.777344 150.550781 C 352.027344 150.507812 352.277344 150.519531 352.523438 150.582031 C 352.769531 150.644531 352.996094 150.753906 353.199219 150.90625 C 353.402344 151.0625 353.566406 151.25 353.691406 151.472656 C 353.816406 151.695312 353.890625 151.929688 353.921875 152.183594 C 353.949219 152.4375 353.925781 152.6875 353.851562 152.929688 C 353.78125 153.175781 353.660156 153.394531 353.5 153.589844 C 353.335938 153.785156 353.140625 153.941406 352.914062 154.054688 L 328.097656 166.691406 C 327.953125 166.761719 327.804688 166.777344 327.652344 166.730469 C 327.496094 166.683594 327.378906 166.589844 327.300781 166.449219 C 327.222656 166.3125 327.203125 166.164062 327.242188 166.007812 C 327.28125 165.851562 327.367188 165.730469 327.503906 165.644531 Z M 327.503906 165.644531 " fill-opacity="1" fill-rule="nonzero"/><path fill="rgb(7.449341%, 38.819885%, 93.728638%)" d="M 280.210938 197.582031 C 280.023438 197.296875 279.929688 196.988281 279.933594 196.644531 C 279.9375 196.304688 280.039062 195.996094 280.238281 195.71875 C 280.644531 195.171875 281.160156 194.765625 281.78125 194.492188 C 283.050781 193.847656 284.390625 193.421875 285.800781 193.222656 C 286.867188 193.070312 288.027344 193.019531 288.855469 192.332031 C 289.675781 191.644531 290.132812 190.363281 291.195312 190.257812 C 292.222656 190.15625 293.011719 191.28125 294.042969 191.351562 C 295.3125 191.4375 296.144531 189.949219 297.382812 189.644531 C 298.210938 189.4375 299.058594 189.800781 299.835938 190.152344 L 304.496094 192.269531 L 306.882812 193.351562 C 307.714844 193.730469 308.65625 194.242188 308.8125 195.144531 C 309.03125 196.386719 307.652344 197.261719 306.472656 197.703125 C 304.386719 198.476562 302.246094 199.058594 300.054688 199.449219 C 297.863281 199.839844 295.65625 200.039062 293.433594 200.039062 C 291.207031 200.039062 289 199.84375 286.808594 199.449219 C 284.617188 199.058594 282.476562 198.476562 280.390625 197.707031 " fill-opacity="1" fill-rule="nonzero"/><path fill="rgb(24.708557%, 23.919678%, 33.729553%)" d="M 348.429688 211.695312 C 348.429688 211.980469 348.328125 212.269531 348.132812 212.554688 C 347.9375 212.839844 347.644531 213.121094 347.253906 213.402344 C 346.859375 213.683594 346.375 213.960938 345.792969 214.238281 C 345.210938 214.511719 344.535156 214.78125 343.769531 215.046875 C 343.003906 215.3125 342.148438 215.570312 341.203125 215.824219 C 340.257812 216.074219 339.226562 216.320312 338.113281 216.558594 C 337 216.796875 335.808594 217.027344 334.535156 217.25 C 333.265625 217.472656 331.921875 217.683594 330.503906 217.886719 C 329.085938 218.089844 327.601562 218.28125 326.054688 218.464844 C 324.503906 218.644531 322.894531 218.816406 321.230469 218.976562 C 319.5625 219.136719 317.847656 219.28125 316.078125 219.417969 C 314.3125 219.550781 312.5 219.675781 310.648438 219.785156 C 308.796875 219.894531 306.914062 219.992188 304.996094 220.074219 C 303.078125 220.15625 301.132812 220.226562 299.167969 220.28125 C 297.203125 220.339844 295.222656 220.382812 293.226562 220.410156 C 291.234375 220.4375 289.234375 220.453125 287.230469 220.453125 C 285.226562 220.453125 283.226562 220.4375 281.230469 220.410156 C 279.238281 220.382812 277.257812 220.339844 275.289062 220.28125 C 273.324219 220.226562 271.382812 220.15625 269.464844 220.074219 C 267.546875 219.992188 265.660156 219.894531 263.808594 219.785156 C 261.957031 219.675781 260.148438 219.550781 258.378906 219.417969 C 256.613281 219.28125 254.894531 219.136719 253.230469 218.976562 C 251.5625 218.816406 249.953125 218.644531 248.40625 218.464844 C 246.855469 218.28125 245.371094 218.089844 243.957031 217.886719 C 242.539062 217.683594 241.195312 217.472656 239.921875 217.25 C 238.652344 217.027344 237.457031 216.796875 236.34375 216.558594 C 235.230469 216.320312 234.203125 216.074219 233.257812 215.824219 C 232.3125 215.570312 231.457031 215.3125 230.691406 215.046875 C 229.921875 214.78125 229.25 214.511719 228.667969 214.238281 C 228.085938 213.960938 227.597656 213.683594 227.207031 213.402344 C 226.816406 213.121094 226.523438 212.839844 226.324219 212.554688 C 226.128906 212.269531 226.03125 211.980469 226.03125 211.695312 C 226.03125 211.410156 226.128906 211.121094 226.324219 210.835938 C 226.523438 210.550781 226.816406 210.269531 227.207031 209.988281 C 227.597656 209.707031 228.085938 209.429688 228.667969 209.152344 C 229.25 208.878906 229.921875 208.609375 230.691406 208.34375 C 231.457031 208.078125 232.3125 207.820312 233.257812 207.566406 C 234.203125 207.316406 235.230469 207.070312 236.34375 206.832031 C 237.457031 206.59375 238.652344 206.363281 239.921875 206.140625 C 241.195312 205.917969 242.539062 205.707031 243.957031 205.503906 C 245.371094 205.300781 246.855469 205.109375 248.40625 204.925781 C 249.953125 204.746094 251.5625 204.574219 253.230469 204.414062 C 254.894531 204.257812 256.613281 204.109375 258.378906 203.972656 C 260.148438 203.839844 261.957031 203.714844 263.808594 203.605469 C 265.660156 203.496094 267.546875 203.398438 269.464844 203.316406 C 271.382812 203.234375 273.324219 203.164062 275.289062 203.109375 C 277.257812 203.050781 279.238281 203.011719 281.230469 202.980469 C 283.226562 202.953125 285.226562 202.941406 287.230469 202.941406 C 289.234375 202.941406 291.234375 202.953125 293.226562 202.980469 C 295.222656 203.011719 297.203125 203.050781 299.167969 203.109375 C 301.132812 203.164062 303.078125 203.234375 304.996094 203.316406 C 306.914062 203.398438 308.796875 203.496094 310.648438 203.605469 C 312.5 203.714844 314.3125 203.839844 316.078125 203.972656 C 317.847656 204.109375 319.5625 204.257812 321.230469 204.414062 C 322.894531 204.574219 324.503906 204.746094 326.054688 204.925781 C 327.601562 205.109375 329.085938 205.300781 330.503906 205.503906 C 331.921875 205.707031 333.265625 205.917969 334.535156 206.140625 C 335.808594 206.363281 337 206.59375 338.113281 206.832031 C 339.226562 207.070312 340.257812 207.316406 341.203125 207.566406 C 342.148438 207.820312 343.003906 208.078125 343.769531 208.34375 C 344.535156 208.609375 345.210938 208.878906 345.792969 209.152344 C 346.375 209.429688 346.859375 209.707031 347.253906 209.988281 C 347.644531 210.269531 347.9375 210.550781 348.132812 210.835938 C 348.328125 211.121094 348.429688 211.410156 348.429688 211.695312 Z M 348.429688 211.695312 " fill-opacity="1" fill-rule="nonzero"/><path fill="rgb(24.708557%, 23.919678%, 33.729553%)" d="M 369.410156 265.980469 L 411.375 265.980469 C 411.839844 265.980469 412.285156 266.070312 412.714844 266.25 C 413.140625 266.425781 413.519531 266.679688 413.847656 267.007812 C 414.175781 267.335938 414.429688 267.714844 414.605469 268.144531 C 414.785156 268.574219 414.871094 269.019531 414.871094 269.484375 C 414.871094 269.949219 414.785156 270.394531 414.605469 270.824219 C 414.429688 271.253906 414.175781 271.632812 413.847656 271.960938 C 413.519531 272.289062 413.140625 272.542969 412.714844 272.71875 C 412.285156 272.898438 411.839844 272.988281 411.375 272.988281 L 369.410156 272.988281 C 368.945312 272.988281 368.5 272.898438 368.070312 272.71875 C 367.644531 272.542969 367.265625 272.289062 366.9375 271.960938 C 366.609375 271.632812 366.355469 271.253906 366.179688 270.824219 C 366.003906 270.394531 365.914062 269.949219 365.914062 269.484375 C 365.914062 269.019531 366.003906 268.574219 366.179688 268.144531 C 366.355469 267.714844 366.609375 267.335938 366.9375 267.007812 C 367.265625 266.679688 367.644531 266.425781 368.070312 266.25 C 368.5 266.070312 368.945312 265.980469 369.410156 265.980469 Z M 369.410156 265.980469 " fill-opacity="1" fill-rule="nonzero"/><g clip-path="url(#clip-1)"><path fill="rgb(24.708557%, 23.919678%, 33.729553%)" d="M 431.710938 203.539062 L 417.851562 269.480469 L 421.460938 286.359375 L 428.277344 318.210938 L 428.277344 332.527344 C 428.277344 332.546875 428.277344 332.566406 428.273438 332.585938 C 428.269531 332.902344 428.214844 333.210938 428.101562 333.511719 L 422.625 333.511719 C 422.511719 333.210938 422.457031 332.902344 422.453125 332.585938 C 422.449219 332.566406 422.449219 332.546875 422.449219 332.527344 L 422.449219 318.824219 L 416.261719 289.914062 L 415.011719 284.078125 L 412.589844 272.765625 L 411.890625 269.488281 L 411.890625 269.484375 L 412.582031 266.199219 L 413.117188 263.667969 L 426.007812 202.339844 C 426.085938 201.960938 426.234375 201.613281 426.453125 201.292969 C 426.671875 200.972656 426.941406 200.707031 427.265625 200.496094 C 427.589844 200.285156 427.941406 200.140625 428.320312 200.070312 C 428.703125 200 429.082031 200.003906 429.457031 200.082031 C 429.835938 200.160156 430.1875 200.308594 430.503906 200.527344 C 430.824219 200.746094 431.089844 201.019531 431.300781 201.34375 C 431.511719 201.667969 431.652344 202.019531 431.722656 202.398438 C 431.796875 202.78125 431.792969 203.160156 431.710938 203.539062 Z M 431.710938 203.539062 " fill-opacity="1" fill-rule="nonzero"/></g><g clip-path="url(#clip-2)"><path fill="rgb(24.708557%, 23.919678%, 33.729553%)" d="M 372.324219 269.484375 L 372.324219 332.527344 C 372.324219 332.546875 372.324219 332.566406 372.320312 332.585938 C 372.316406 332.902344 372.261719 333.210938 372.148438 333.511719 L 366.671875 333.511719 C 366.558594 333.210938 366.503906 332.902344 366.5 332.585938 C 366.496094 332.566406 366.496094 332.546875 366.496094 332.527344 L 366.496094 269.484375 C 366.496094 269.097656 366.570312 268.726562 366.71875 268.367188 C 366.867188 268.007812 367.078125 267.695312 367.347656 267.421875 C 367.621094 267.148438 367.9375 266.9375 368.296875 266.789062 C 368.652344 266.640625 369.023438 266.566406 369.410156 266.566406 C 369.796875 266.566406 370.167969 266.640625 370.527344 266.789062 C 370.882812 266.9375 371.199219 267.148438 371.472656 267.421875 C 371.742188 267.695312 371.953125 268.007812 372.101562 268.367188 C 372.25 268.726562 372.324219 269.097656 372.324219 269.484375 Z M 372.324219 269.484375 " fill-opacity="1" fill-rule="nonzero"/></g><path fill="rgb(24.708557%, 23.919678%, 33.729553%)" d="M 376.40625 258.976562 L 404.378906 258.976562 C 405.070312 258.976562 405.75 259.042969 406.425781 259.179688 C 407.101562 259.3125 407.757812 259.511719 408.394531 259.777344 C 409.03125 260.039062 409.636719 260.363281 410.210938 260.746094 C 410.78125 261.132812 411.3125 261.566406 411.800781 262.054688 C 412.285156 262.542969 412.722656 263.074219 413.105469 263.648438 C 413.488281 264.21875 413.808594 264.824219 414.074219 265.464844 C 414.335938 266.101562 414.535156 266.757812 414.671875 267.433594 C 414.804688 268.109375 414.871094 268.792969 414.871094 269.484375 L 365.914062 269.484375 C 365.914062 268.792969 365.980469 268.109375 366.113281 267.433594 C 366.25 266.757812 366.449219 266.101562 366.710938 265.464844 C 366.976562 264.824219 367.296875 264.21875 367.679688 263.648438 C 368.0625 263.074219 368.5 262.542969 368.984375 262.054688 C 369.472656 261.566406 370.003906 261.132812 370.574219 260.746094 C 371.148438 260.363281 371.753906 260.039062 372.390625 259.777344 C 373.027344 259.511719 373.683594 259.3125 374.359375 259.179688 C 375.035156 259.042969 375.714844 258.976562 376.40625 258.976562 Z M 376.40625 258.976562 " fill-opacity="1" fill-rule="nonzero"/><path fill="rgb(24.708557%, 23.919678%, 33.729553%)" d="M 418.367188 289.914062 L 369.410156 289.914062 C 369.023438 289.914062 368.652344 289.839844 368.296875 289.691406 C 367.9375 289.542969 367.621094 289.332031 367.347656 289.058594 C 367.078125 288.785156 366.867188 288.46875 366.71875 288.113281 C 366.570312 287.753906 366.496094 287.382812 366.496094 286.996094 C 366.496094 286.609375 366.570312 286.238281 366.71875 285.878906 C 366.867188 285.519531 367.078125 285.207031 367.347656 284.933594 C 367.621094 284.660156 367.9375 284.449219 368.296875 284.300781 C 368.652344 284.152344 369.023438 284.078125 369.410156 284.078125 L 418.367188 284.078125 C 418.753906 284.078125 419.128906 284.152344 419.484375 284.300781 C 419.839844 284.449219 420.15625 284.660156 420.429688 284.933594 C 420.703125 285.207031 420.914062 285.519531 421.0625 285.878906 C 421.210938 286.238281 421.285156 286.609375 421.285156 286.996094 C 421.285156 287.382812 421.210938 287.753906 421.0625 288.113281 C 420.914062 288.46875 420.703125 288.785156 420.429688 289.058594 C 420.15625 289.332031 419.839844 289.542969 419.484375 289.691406 C 419.128906 289.839844 418.753906 289.914062 418.367188 289.914062 Z M 418.367188 289.914062 " fill-opacity="1" fill-rule="nonzero"/><path fill="rgb(24.708557%, 23.919678%, 33.729553%)" d="M 240.019531 273.09375 L 190.636719 273.09375 C 190.171875 273.09375 189.726562 273.003906 189.296875 272.828125 C 188.871094 272.648438 188.492188 272.394531 188.164062 272.066406 C 187.835938 271.738281 187.582031 271.359375 187.40625 270.929688 C 187.226562 270.503906 187.140625 270.054688 187.140625 269.589844 L 187.140625 268.53125 C 187.140625 268.066406 187.226562 267.617188 187.40625 267.1875 C 187.582031 266.761719 187.835938 266.382812 188.164062 266.054688 C 188.492188 265.726562 188.871094 265.472656 189.296875 265.292969 C 189.726562 265.117188 190.171875 265.027344 190.636719 265.027344 L 240.019531 265.027344 C 240.484375 265.027344 240.929688 265.117188 241.355469 265.292969 C 241.785156 265.472656 242.164062 265.726562 242.492188 266.054688 C 242.820312 266.382812 243.074219 266.761719 243.25 267.1875 C 243.425781 267.617188 243.515625 268.066406 243.515625 268.53125 L 243.515625 269.589844 C 243.515625 270.054688 243.425781 270.503906 243.25 270.929688 C 243.074219 271.359375 242.820312 271.738281 242.492188 272.066406 C 242.164062 272.394531 241.785156 272.648438 241.355469 272.828125 C 240.929688 273.003906 240.484375 273.09375 240.019531 273.09375 Z M 240.019531 273.09375 " fill-opacity="1" fill-rule="nonzero"/><g clip-path="url(#clip-3)"><path fill="rgb(24.708557%, 23.919678%, 33.729553%)" d="M 190.128906 269.105469 L 189.234375 272.796875 L 185.953125 286.308594 L 184.539062 292.144531 L 177.972656 319.222656 L 177.972656 330.96875 C 177.976562 331.558594 177.8125 332.097656 177.484375 332.585938 C 177.226562 332.976562 176.894531 333.285156 176.484375 333.511719 L 173.632812 333.511719 C 173.222656 333.285156 172.890625 332.976562 172.632812 332.585938 C 172.304688 332.097656 172.144531 331.558594 172.144531 330.96875 L 172.144531 318.519531 L 179.441406 288.441406 L 184.152344 269.011719 L 168.183594 193.03125 C 168.101562 192.652344 168.097656 192.273438 168.167969 191.894531 C 168.238281 191.511719 168.378906 191.160156 168.589844 190.835938 C 168.800781 190.511719 169.066406 190.238281 169.386719 190.019531 C 169.707031 189.800781 170.054688 189.652344 170.433594 189.574219 C 170.8125 189.496094 171.191406 189.492188 171.570312 189.5625 C 171.949219 189.632812 172.300781 189.777344 172.625 189.988281 C 172.949219 190.199219 173.21875 190.464844 173.4375 190.785156 C 173.65625 191.105469 173.804688 191.453125 173.882812 191.832031 L 188.644531 262.046875 L 189.324219 265.285156 L 190.117188 269.058594 Z M 190.128906 269.105469 " fill-opacity="1" fill-rule="nonzero"/></g><g clip-path="url(#clip-4)"><path fill="rgb(24.708557%, 23.919678%, 33.729553%)" d="M 242.40625 269.058594 L 242.40625 330.96875 C 242.40625 331.558594 242.242188 332.097656 241.914062 332.585938 C 241.660156 332.976562 241.328125 333.285156 240.917969 333.511719 L 238.0625 333.511719 C 237.652344 333.285156 237.320312 332.976562 237.066406 332.585938 C 236.738281 332.097656 236.574219 331.558594 236.578125 330.96875 L 236.578125 269.058594 C 236.578125 268.671875 236.652344 268.300781 236.796875 267.941406 C 236.945312 267.585938 237.15625 267.269531 237.429688 266.996094 C 237.703125 266.722656 238.019531 266.511719 238.375 266.363281 C 238.734375 266.214844 239.105469 266.140625 239.492188 266.140625 C 239.878906 266.140625 240.25 266.214844 240.605469 266.363281 C 240.964844 266.511719 241.277344 266.722656 241.550781 266.996094 C 241.824219 267.269531 242.035156 267.585938 242.183594 267.941406 C 242.332031 268.300781 242.40625 268.671875 242.40625 269.058594 Z M 242.40625 269.058594 " fill-opacity="1" fill-rule="nonzero"/></g><path fill="rgb(24.708557%, 23.919678%, 33.729553%)" d="M 243.515625 269.058594 L 187.140625 269.058594 L 187.140625 267.46875 C 187.140625 266.777344 187.207031 266.09375 187.339844 265.417969 C 187.476562 264.742188 187.675781 264.085938 187.9375 263.445312 C 188.203125 262.808594 188.523438 262.203125 188.90625 261.628906 C 189.289062 261.054688 189.726562 260.527344 190.210938 260.039062 C 190.699219 259.550781 191.230469 259.113281 191.800781 258.730469 C 192.375 258.347656 192.980469 258.023438 193.617188 257.761719 C 194.253906 257.496094 194.90625 257.296875 195.582031 257.164062 C 196.257812 257.027344 196.941406 256.960938 197.628906 256.960938 L 233.023438 256.960938 C 233.714844 256.960938 234.394531 257.027344 235.070312 257.164062 C 235.746094 257.296875 236.402344 257.496094 237.039062 257.761719 C 237.675781 258.023438 238.28125 258.347656 238.855469 258.730469 C 239.425781 259.113281 239.957031 259.550781 240.445312 260.039062 C 240.929688 260.527344 241.367188 261.054688 241.75 261.628906 C 242.128906 262.203125 242.453125 262.808594 242.71875 263.445312 C 242.980469 264.085938 243.179688 264.742188 243.316406 265.417969 C 243.449219 266.09375 243.515625 266.777344 243.515625 267.46875 Z M 243.515625 269.058594 " fill-opacity="1" fill-rule="nonzero"/><path fill="rgb(24.708557%, 23.919678%, 33.729553%)" d="M 239.488281 292.144531 L 183.113281 292.144531 C 182.726562 292.144531 182.355469 292.070312 181.996094 291.921875 C 181.640625 291.773438 181.324219 291.5625 181.050781 291.289062 C 180.777344 291.015625 180.566406 290.699219 180.421875 290.339844 C 180.273438 289.984375 180.199219 289.613281 180.199219 289.222656 C 180.199219 288.835938 180.273438 288.464844 180.421875 288.109375 C 180.566406 287.75 180.777344 287.433594 181.050781 287.160156 C 181.324219 286.886719 181.640625 286.675781 181.996094 286.527344 C 182.355469 286.378906 182.726562 286.304688 183.113281 286.304688 L 239.488281 286.304688 C 239.875 286.304688 240.246094 286.378906 240.605469 286.527344 C 240.960938 286.675781 241.277344 286.886719 241.550781 287.160156 C 241.824219 287.433594 242.035156 287.75 242.179688 288.109375 C 242.328125 288.464844 242.402344 288.835938 242.402344 289.222656 C 242.402344 289.613281 242.328125 289.984375 242.183594 290.339844 C 242.035156 290.699219 241.824219 291.015625 241.550781 291.289062 C 241.277344 291.5625 240.960938 291.773438 240.605469 291.921875 C 240.246094 292.070312 239.875 292.144531 239.488281 292.144531 Z M 239.488281 292.144531 " fill-opacity="1" fill-rule="nonzero"/><path fill="rgb(61.959839%, 38.038635%, 41.569519%)" d="M 311.941406 317.601562 L 305.816406 314.667969 L 314.230469 289.027344 L 323.269531 293.359375 Z M 311.941406 317.601562 " fill-opacity="1" fill-rule="nonzero"/><path fill="rgb(61.959839%, 38.038635%, 41.569519%)" d="M 353.453125 315.28125 L 346.867188 316.90625 L 337.324219 291.671875 L 347.042969 289.269531 Z M 353.453125 315.28125 " fill-opacity="1" fill-rule="nonzero"/><path fill="rgb(61.959839%, 38.038635%, 41.569519%)" d="M 328.207031 206.15625 C 328.425781 206.507812 328.671875 206.835938 328.953125 207.140625 C 329.234375 207.445312 329.539062 207.71875 329.871094 207.960938 C 330.203125 208.207031 330.558594 208.417969 330.929688 208.59375 C 331.304688 208.769531 331.691406 208.90625 332.09375 209.007812 C 332.492188 209.105469 332.898438 209.167969 333.308594 209.191406 C 333.722656 209.210938 334.132812 209.195312 334.542969 209.136719 C 334.949219 209.078125 335.347656 208.980469 335.738281 208.84375 C 336.128906 208.710938 336.5 208.539062 336.859375 208.332031 C 337.148438 208.15625 337.421875 207.957031 337.679688 207.734375 L 357.042969 218.863281 L 356.203125 207.4375 L 337.941406 198.621094 C 337.445312 198.121094 336.882812 197.714844 336.25 197.402344 C 335.621094 197.09375 334.953125 196.890625 334.257812 196.800781 C 333.558594 196.707031 332.863281 196.734375 332.171875 196.871094 C 331.484375 197.011719 330.835938 197.257812 330.226562 197.617188 C 329.875 197.824219 329.550781 198.070312 329.25 198.34375 C 328.949219 198.621094 328.675781 198.921875 328.433594 199.253906 C 328.195312 199.582031 327.988281 199.933594 327.816406 200.304688 C 327.644531 200.675781 327.515625 201.0625 327.421875 201.460938 C 327.324219 201.859375 327.273438 202.261719 327.257812 202.671875 C 327.246094 203.078125 327.273438 203.484375 327.339844 203.886719 C 327.40625 204.292969 327.515625 204.683594 327.660156 205.066406 C 327.808594 205.449219 327.988281 205.8125 328.207031 206.15625 Z M 328.207031 206.15625 " fill-opacity="1" fill-rule="nonzero"/><path fill="rgb(90.19928%, 90.19928%, 90.19928%)" d="M 348.71875 214.671875 L 352.140625 216.761719 L 367.515625 226.152344 C 368.019531 226.46875 368.550781 226.730469 369.105469 226.941406 C 369.664062 227.15625 370.234375 227.308594 370.824219 227.410156 C 371.410156 227.507812 372.003906 227.546875 372.597656 227.527344 C 373.191406 227.511719 373.78125 227.433594 374.359375 227.300781 C 374.941406 227.167969 375.503906 226.976562 376.046875 226.730469 C 376.589844 226.488281 377.101562 226.191406 377.585938 225.84375 C 378.074219 225.5 378.519531 225.109375 378.925781 224.671875 C 379.335938 224.238281 379.695312 223.769531 380.011719 223.261719 C 380.582031 222.324219 380.960938 221.3125 381.15625 220.230469 C 381.351562 219.152344 381.347656 218.070312 381.140625 216.992188 L 374.308594 182.804688 C 374.183594 182.132812 373.988281 181.484375 373.71875 180.855469 C 373.453125 180.226562 373.125 179.632812 372.730469 179.074219 C 372.335938 178.519531 371.886719 178.011719 371.382812 177.550781 C 370.878906 177.089844 370.332031 176.6875 369.742188 176.347656 C 369.152344 176.003906 368.53125 175.730469 367.882812 175.523438 C 367.234375 175.316406 366.566406 175.179688 365.890625 175.117188 C 365.210938 175.050781 364.53125 175.0625 363.855469 175.144531 C 363.179688 175.226562 362.519531 175.378906 361.875 175.605469 C 361.339844 175.792969 360.824219 176.03125 360.335938 176.316406 C 359.84375 176.601562 359.382812 176.933594 358.953125 177.304688 C 358.523438 177.679688 358.132812 178.089844 357.78125 178.535156 C 357.429688 178.984375 357.125 179.457031 356.863281 179.964844 C 356.601562 180.46875 356.386719 180.992188 356.226562 181.539062 C 356.0625 182.085938 355.953125 182.640625 355.894531 183.207031 C 355.835938 183.773438 355.832031 184.339844 355.878906 184.90625 C 355.929688 185.472656 356.03125 186.03125 356.183594 186.578125 L 363.328125 210.839844 L 352.378906 205.726562 Z M 348.71875 214.671875 " fill-opacity="1" fill-rule="nonzero"/><path fill="rgb(18.429565%, 18.03894%, 25.489807%)" d="M 340.625 308.207031 L 330.085938 287.039062 L 330.085938 286.992188 L 331.128906 248.164062 C 331.140625 247.816406 331.167969 247.46875 331.210938 247.128906 C 331.394531 245.558594 331.878906 244.082031 332.65625 242.703125 C 333.433594 241.324219 334.449219 240.152344 335.699219 239.179688 C 336.894531 238.242188 338.226562 237.574219 339.691406 237.171875 C 341.15625 236.769531 342.644531 236.667969 344.152344 236.867188 L 374.289062 240.773438 L 375.332031 236.492188 L 375.527344 236.421875 L 404.402344 225.820312 L 404.570312 226.09375 C 408.351562 232.253906 410.996094 244.566406 411.714844 248.191406 L 411.726562 248.246094 C 411.742188 248.320312 411.75 248.367188 411.753906 248.378906 C 413.238281 254.566406 407.097656 264.820312 400.976562 266.359375 C 388.089844 269.648438 376.5625 267.082031 363.214844 264.109375 C 358.429688 263.042969 353.484375 261.941406 348.035156 260.992188 L 348.195312 264.203125 C 348.332031 266.6875 348.835938 269.097656 349.71875 271.425781 C 350.6875 274.273438 351.457031 276.527344 349.832031 281.21875 L 349.046875 283.488281 C 349.460938 284.628906 349.597656 285.804688 349.457031 287.011719 C 349.316406 288.21875 348.917969 289.332031 348.253906 290.347656 L 348.097656 290.589844 L 355.046875 308.203125 Z M 340.625 308.207031 " fill-opacity="1" fill-rule="nonzero"/><path fill="rgb(18.429565%, 18.03894%, 25.489807%)" d="M 323.308594 298.847656 L 310.742188 297.675781 L 315.191406 283.414062 C 316.117188 274.050781 318.40625 265.03125 322.0625 256.363281 L 328.132812 241.949219 C 328.148438 241.628906 328.175781 241.304688 328.214844 240.988281 C 328.398438 239.414062 328.882812 237.941406 329.660156 236.5625 C 330.4375 235.183594 331.453125 234.007812 332.703125 233.039062 C 333.898438 232.101562 335.230469 231.433594 336.695312 231.03125 C 338.160156 230.628906 339.648438 230.527344 341.152344 230.726562 L 371.246094 234.625 L 372.558594 223.609375 L 401.441406 219.738281 L 401.574219 219.953125 C 406.621094 228.179688 409.828125 234.621094 411.660156 240.21875 C 411.75 240.507812 411.832031 240.796875 411.902344 241.089844 C 413.398438 247.316406 409.664062 253.632812 403.574219 255.167969 C 388.058594 259.128906 369.398438 259.019531 344.863281 254.820312 L 332.992188 283.117188 C 331.851562 285.828125 330.457031 288.394531 328.796875 290.820312 Z M 323.308594 298.847656 " fill-opacity="1" fill-rule="nonzero"/><path fill="rgb(61.959839%, 38.038635%, 41.569519%)" d="M 381.707031 141.078125 C 381.707031 142.058594 381.613281 143.027344 381.425781 143.988281 C 381.238281 144.945312 380.964844 145.878906 380.597656 146.785156 C 380.230469 147.6875 379.785156 148.546875 379.253906 149.359375 C 378.722656 150.175781 378.117188 150.925781 377.441406 151.617188 C 376.765625 152.3125 376.03125 152.929688 375.234375 153.472656 C 374.441406 154.015625 373.601562 154.476562 372.71875 154.851562 C 371.835938 155.222656 370.925781 155.507812 369.988281 155.699219 C 369.050781 155.890625 368.105469 155.984375 367.148438 155.984375 C 366.191406 155.984375 365.246094 155.890625 364.308594 155.699219 C 363.371094 155.507812 362.460938 155.222656 361.578125 154.851562 C 360.695312 154.476562 359.855469 154.015625 359.058594 153.472656 C 358.265625 152.929688 357.53125 152.3125 356.855469 151.617188 C 356.175781 150.925781 355.574219 150.175781 355.042969 149.359375 C 354.511719 148.546875 354.0625 147.6875 353.699219 146.785156 C 353.332031 145.878906 353.054688 144.945312 352.871094 143.988281 C 352.683594 143.027344 352.589844 142.058594 352.589844 141.078125 C 352.589844 140.101562 352.683594 139.132812 352.871094 138.171875 C 353.054688 137.210938 353.332031 136.28125 353.699219 135.375 C 354.0625 134.472656 354.511719 133.613281 355.042969 132.796875 C 355.574219 131.984375 356.175781 131.230469 356.855469 130.539062 C 357.53125 129.847656 358.265625 129.230469 359.058594 128.6875 C 359.855469 128.140625 360.695312 127.683594 361.578125 127.308594 C 362.460938 126.933594 363.371094 126.652344 364.308594 126.460938 C 365.246094 126.269531 366.191406 126.175781 367.148438 126.175781 C 368.105469 126.175781 369.050781 126.269531 369.988281 126.460938 C 370.925781 126.652344 371.835938 126.933594 372.71875 127.308594 C 373.601562 127.683594 374.441406 128.140625 375.234375 128.6875 C 376.03125 129.230469 376.765625 129.847656 377.441406 130.539062 C 378.117188 131.230469 378.722656 131.984375 379.253906 132.796875 C 379.785156 133.613281 380.230469 134.472656 380.597656 135.375 C 380.964844 136.28125 381.238281 137.210938 381.425781 138.171875 C 381.613281 139.132812 381.707031 140.101562 381.707031 141.078125 Z M 381.707031 141.078125 " fill-opacity="1" fill-rule="nonzero"/><path fill="rgb(89.408875%, 89.408875%, 89.408875%)" d="M 371.351562 235.144531 L 369.261719 227.652344 L 368.75 223.953125 L 365.746094 224.054688 L 359.855469 210.433594 L 357.566406 206.839844 C 357.097656 206.347656 356.675781 205.875 356.296875 205.421875 C 353.894531 202.703125 352.011719 199.660156 350.640625 196.300781 C 349.683594 193.886719 349.132812 191.382812 348.984375 188.789062 C 348.558594 181.179688 351.761719 173.125 358.78125 164.175781 C 358.664062 163.855469 358.589844 163.527344 358.550781 163.191406 C 358.519531 162.921875 358.515625 162.652344 358.539062 162.382812 C 358.558594 162.113281 358.605469 161.847656 358.679688 161.585938 C 358.753906 161.324219 358.851562 161.074219 358.972656 160.832031 C 359.097656 160.589844 359.242188 160.363281 359.410156 160.152344 C 359.578125 159.9375 359.761719 159.742188 359.96875 159.566406 C 360.171875 159.390625 360.394531 159.234375 360.628906 159.101562 C 360.863281 158.96875 361.109375 158.859375 361.367188 158.773438 C 361.625 158.6875 361.886719 158.628906 362.15625 158.59375 L 368.925781 157.832031 C 370.03125 157.707031 371.019531 157.996094 371.886719 158.699219 C 372.792969 159.425781 373.304688 160.367188 373.421875 161.523438 C 373.515625 162.390625 373.355469 163.210938 372.941406 163.980469 C 373.800781 164.089844 374.644531 164.261719 375.480469 164.492188 C 376.3125 164.722656 377.125 165.011719 377.917969 165.359375 C 378.710938 165.707031 379.476562 166.109375 380.210938 166.566406 C 380.945312 167.023438 381.640625 167.53125 382.304688 168.089844 C 382.964844 168.644531 383.585938 169.25 384.160156 169.894531 C 384.734375 170.542969 385.261719 171.226562 385.738281 171.949219 C 386.214844 172.671875 386.640625 173.425781 387.007812 174.207031 C 387.378906 174.992188 387.691406 175.796875 387.945312 176.625 C 392.007812 184.21875 395.214844 192.15625 397.574219 200.441406 C 398.035156 202.0625 397.832031 203.726562 397.632812 205.339844 C 397.445312 206.828125 397.257812 208.371094 397.578125 209.90625 C 397.902344 211.464844 398.6875 213.03125 399.515625 214.691406 C 400.46875 216.589844 401.453125 218.550781 401.71875 220.554688 L 401.734375 220.695312 Z M 371.351562 235.144531 " fill-opacity="1" fill-rule="nonzero"/><path fill="rgb(0%, 0%, 0%)" d="M 350.820312 196.226562 C 352.183594 199.570312 354.058594 202.589844 356.445312 205.296875 C 356.851562 205.78125 357.28125 206.257812 357.730469 206.734375 L 360.03125 210.355469 C 368.523438 203.980469 375.398438 178.890625 375.398438 178.890625 L 365.820312 177.023438 Z M 350.820312 196.226562 " fill-opacity="0.2" fill-rule="nonzero"/><path fill="rgb(61.959839%, 38.038635%, 41.569519%)" d="M 345.023438 157.378906 C 345.230469 157.734375 345.402344 158.109375 345.535156 158.5 C 345.671875 158.890625 345.769531 159.289062 345.828125 159.699219 C 345.886719 160.109375 345.902344 160.519531 345.882812 160.933594 C 345.863281 161.34375 345.800781 161.753906 345.699219 162.152344 C 345.601562 162.554688 345.464844 162.941406 345.289062 163.316406 C 345.113281 163.691406 344.90625 164.046875 344.660156 164.378906 C 344.417969 164.714844 344.144531 165.023438 343.84375 165.304688 C 343.539062 165.585938 343.210938 165.832031 342.859375 166.050781 C 342.570312 166.226562 342.265625 166.375 341.949219 166.5 L 342.628906 188.847656 L 332.964844 182.757812 L 333.800781 162.464844 C 333.59375 161.789062 333.503906 161.101562 333.527344 160.394531 C 333.550781 159.691406 333.683594 159.007812 333.933594 158.347656 C 334.183594 157.6875 334.53125 157.082031 334.980469 156.539062 C 335.425781 155.992188 335.949219 155.535156 336.550781 155.164062 C 336.898438 154.953125 337.265625 154.777344 337.648438 154.640625 C 338.035156 154.503906 338.429688 154.402344 338.832031 154.34375 C 339.234375 154.285156 339.640625 154.269531 340.050781 154.289062 C 340.457031 154.3125 340.859375 154.375 341.253906 154.480469 C 341.648438 154.582031 342.027344 154.722656 342.394531 154.902344 C 342.761719 155.082031 343.105469 155.296875 343.429688 155.546875 C 343.753906 155.792969 344.050781 156.074219 344.316406 156.382812 C 344.585938 156.691406 344.820312 157.023438 345.023438 157.378906 Z M 345.023438 157.378906 " fill-opacity="1" fill-rule="nonzero"/><path fill="rgb(90.19928%, 90.19928%, 90.19928%)" d="M 343.476562 180.414062 L 332.847656 181.925781 L 333.304688 203.96875 C 333.320312 204.753906 333.429688 205.527344 333.640625 206.285156 C 333.851562 207.042969 334.15625 207.761719 334.546875 208.441406 C 334.941406 209.121094 335.414062 209.742188 335.96875 210.300781 C 336.519531 210.859375 337.132812 211.339844 337.808594 211.742188 C 338.632812 212.226562 339.511719 212.570312 340.449219 212.769531 C 341.382812 212.96875 342.328125 213.011719 343.277344 212.90625 C 344.226562 212.796875 345.136719 212.539062 346.003906 212.136719 C 346.871094 211.730469 347.652344 211.199219 348.347656 210.542969 L 373.4375 186.371094 C 373.875 185.957031 374.269531 185.503906 374.621094 185.011719 C 374.972656 184.519531 375.277344 184.003906 375.527344 183.453125 C 375.78125 182.90625 375.980469 182.339844 376.125 181.753906 C 376.269531 181.167969 376.359375 180.574219 376.390625 179.96875 C 376.425781 179.367188 376.398438 178.765625 376.316406 178.167969 C 376.234375 177.570312 376.097656 176.984375 375.90625 176.414062 C 375.714844 175.839844 375.46875 175.292969 375.171875 174.765625 C 374.875 174.242188 374.53125 173.746094 374.140625 173.289062 C 373.75 172.824219 373.320312 172.40625 372.84375 172.03125 C 372.371094 171.65625 371.863281 171.332031 371.324219 171.058594 C 370.785156 170.785156 370.226562 170.566406 369.644531 170.40625 C 369.058594 170.246094 368.46875 170.144531 367.863281 170.105469 C 367.261719 170.0625 366.660156 170.082031 366.0625 170.160156 C 365.460938 170.242188 364.878906 170.378906 364.304688 170.578125 C 363.734375 170.773438 363.1875 171.027344 362.667969 171.332031 C 362.148438 171.640625 361.664062 171.996094 361.214844 172.402344 C 360.964844 172.625 360.730469 172.859375 360.507812 173.105469 L 343.9375 192.195312 Z M 343.476562 180.414062 " fill-opacity="1" fill-rule="nonzero"/><path fill="rgb(100%, 71.369934%, 71.369934%)" d="M 254.585938 324.1875 L 262.128906 324.1875 L 265.71875 295.042969 L 254.585938 295.046875 Z M 254.585938 324.1875 " fill-opacity="1" fill-rule="nonzero"/><path fill="rgb(100%, 71.369934%, 71.369934%)" d="M 226.882812 141.339844 C 226.882812 142.328125 226.789062 143.308594 226.59375 144.28125 C 226.402344 145.25 226.117188 146.195312 225.738281 147.109375 C 225.359375 148.023438 224.898438 148.894531 224.347656 149.714844 C 223.796875 150.539062 223.175781 151.300781 222.476562 152 C 221.777344 152.699219 221.015625 153.324219 220.195312 153.875 C 219.371094 154.425781 218.503906 154.890625 217.589844 155.269531 C 216.675781 155.648438 215.734375 155.933594 214.765625 156.128906 C 213.796875 156.320312 212.816406 156.417969 211.828125 156.417969 C 210.839844 156.417969 209.859375 156.320312 208.890625 156.128906 C 207.921875 155.933594 206.980469 155.648438 206.066406 155.269531 C 205.152344 154.890625 204.285156 154.425781 203.464844 153.875 C 202.640625 153.324219 201.882812 152.699219 201.183594 152 C 200.484375 151.300781 199.859375 150.539062 199.308594 149.714844 C 198.761719 148.894531 198.296875 148.023438 197.917969 147.109375 C 197.539062 146.195312 197.253906 145.25 197.0625 144.28125 C 196.871094 143.308594 196.773438 142.328125 196.773438 141.339844 C 196.773438 140.347656 196.871094 139.367188 197.0625 138.398438 C 197.253906 137.425781 197.539062 136.484375 197.917969 135.566406 C 198.296875 134.652344 198.761719 133.785156 199.308594 132.960938 C 199.859375 132.136719 200.484375 131.375 201.183594 130.675781 C 201.882812 129.976562 202.640625 129.351562 203.464844 128.800781 C 204.285156 128.25 205.152344 127.785156 206.066406 127.40625 C 206.980469 127.027344 207.921875 126.742188 208.890625 126.550781 C 209.859375 126.355469 210.839844 126.261719 211.828125 126.261719 C 212.816406 126.261719 213.796875 126.355469 214.765625 126.550781 C 215.734375 126.742188 216.675781 127.027344 217.589844 127.40625 C 218.503906 127.785156 219.371094 128.25 220.195312 128.800781 C 221.015625 129.351562 221.777344 129.976562 222.476562 130.675781 C 223.175781 131.375 223.796875 132.136719 224.347656 132.960938 C 224.898438 133.785156 225.359375 134.652344 225.738281 135.566406 C 226.117188 136.484375 226.402344 137.425781 226.59375 138.398438 C 226.789062 139.367188 226.882812 140.347656 226.882812 141.339844 Z M 226.882812 141.339844 " fill-opacity="1" fill-rule="nonzero"/><path fill="rgb(18.429565%, 18.03894%, 25.489807%)" d="M 264.59375 315.210938 L 253.910156 315.210938 L 251.1875 311.554688 L 250.449219 308.109375 L 249.816406 307.492188 C 249.386719 307.078125 249.035156 306.605469 248.765625 306.074219 C 248.492188 305.542969 248.316406 304.980469 248.234375 304.386719 C 248.15625 303.796875 248.171875 303.207031 248.292969 302.621094 C 248.410156 302.035156 248.621094 301.484375 248.921875 300.972656 L 241.179688 264.796875 C 239.152344 264.617188 216.285156 262.570312 200.390625 259.75 C 196.320312 259.03125 193.144531 257.050781 190.949219 253.867188 C 185.554688 246.039062 187.863281 233.375 187.890625 233.25 L 187.914062 233.109375 L 188.058594 233.09375 L 225.1875 228.917969 L 225.238281 228.941406 C 226.46875 229.527344 255.46875 243.3125 260.207031 248.058594 C 262.347656 250.203125 267.121094 262.9375 268.1875 276.472656 C 268.378906 278.898438 267.691406 281.367188 267.023438 283.757812 C 266.402344 285.992188 265.757812 288.300781 265.882812 290.488281 C 266.082031 293.859375 266.265625 297.394531 266.4375 300.996094 C 266.464844 301.570312 266.898438 302.164062 267.316406 302.738281 C 267.75 303.339844 268.164062 303.90625 268.191406 304.5 C 268.445312 310.253906 264.6875 315.085938 264.652344 315.136719 Z M 264.59375 315.210938 " fill-opacity="1" fill-rule="nonzero"/><path fill="rgb(100%, 71.369934%, 71.369934%)" d="M 267.023438 181.5 C 266.621094 181.390625 266.210938 181.324219 265.789062 181.304688 C 265.371094 181.285156 264.957031 181.308594 264.542969 181.378906 C 264.128906 181.453125 263.730469 181.566406 263.339844 181.726562 C 262.953125 181.882812 262.585938 182.082031 262.242188 182.324219 C 261.898438 182.5625 261.582031 182.835938 261.296875 183.144531 C 261.015625 183.453125 260.765625 183.789062 260.554688 184.152344 C 260.34375 184.515625 260.175781 184.894531 260.046875 185.296875 C 259.921875 185.695312 259.839844 186.105469 259.800781 186.523438 L 247.289062 190.441406 L 247.8125 198.632812 L 265.402344 192.855469 C 265.75 192.863281 266.097656 192.839844 266.445312 192.785156 C 266.789062 192.730469 267.128906 192.644531 267.457031 192.527344 C 267.789062 192.410156 268.105469 192.265625 268.410156 192.09375 C 268.710938 191.917969 268.996094 191.71875 269.265625 191.492188 C 269.53125 191.265625 269.777344 191.015625 270 190.746094 C 270.222656 190.472656 270.417969 190.183594 270.585938 189.878906 C 270.753906 189.570312 270.894531 189.25 271.007812 188.917969 C 271.117188 188.585938 271.199219 188.246094 271.25 187.902344 C 271.296875 187.554688 271.316406 187.203125 271.300781 186.855469 C 271.289062 186.503906 271.242188 186.160156 271.167969 185.816406 C 271.089844 185.472656 270.984375 185.140625 270.847656 184.820312 C 270.710938 184.496094 270.542969 184.191406 270.351562 183.898438 C 270.15625 183.605469 269.941406 183.332031 269.699219 183.078125 C 269.457031 182.828125 269.191406 182.597656 268.90625 182.394531 C 268.625 182.1875 268.324219 182.011719 268.007812 181.859375 C 267.691406 181.710938 267.363281 181.589844 267.023438 181.5 Z M 267.023438 181.5 " fill-opacity="1" fill-rule="nonzero"/><path fill="rgb(7.449341%, 38.819885%, 93.728638%)" d="M 258.863281 195.0625 L 249.511719 198.605469 L 249.273438 199.070312 C 249.132812 199.34375 248.964844 199.605469 248.773438 199.847656 C 248.578125 200.089844 248.363281 200.3125 248.128906 200.511719 C 247.890625 200.710938 247.636719 200.886719 247.367188 201.039062 C 247.097656 201.1875 246.8125 201.308594 246.519531 201.40625 C 246.222656 201.5 245.921875 201.5625 245.613281 201.597656 C 245.304688 201.632812 244.996094 201.636719 244.6875 201.613281 C 244.378906 201.585938 244.078125 201.53125 243.78125 201.445312 C 243.480469 201.359375 243.195312 201.246094 242.921875 201.105469 L 221.90625 209.070312 C 221.90625 209.070312 212.519531 199.664062 205.839844 191.269531 L 208.117188 177.242188 C 208.648438 173.960938 209.75 170.882812 211.421875 168.007812 C 225.125 171.019531 232.992188 190.203125 232.992188 190.203125 L 257.6875 185.484375 Z M 258.863281 195.0625 " fill-opacity="1" fill-rule="nonzero"/><path fill="rgb(18.429565%, 18.03894%, 25.489807%)" d="M 209.6875 155.613281 C 205.917969 156.632812 201.765625 155.277344 198.824219 152.703125 C 195.882812 150.132812 194.042969 146.488281 192.980469 142.726562 C 192.203125 139.96875 191.835938 136.910156 193.0625 134.324219 C 194.285156 131.734375 197.585938 129.988281 200.128906 131.296875 C 198.558594 129.464844 199.34375 126.4375 201.175781 124.871094 C 203.011719 123.304688 205.527344 122.855469 207.925781 122.609375 C 211.402344 122.253906 214.996094 122.210938 218.308594 123.339844 C 221.617188 124.46875 224.628906 126.9375 225.664062 130.285156 C 226.191406 130.53125 226.746094 130.683594 227.328125 130.746094 C 227.90625 130.808594 228.484375 130.777344 229.050781 130.648438 C 229.621094 130.519531 230.15625 130.300781 230.652344 129.996094 C 231.148438 129.6875 231.585938 129.3125 231.957031 128.859375 C 232.050781 129.378906 232.0625 129.898438 231.988281 130.417969 C 231.914062 130.9375 231.753906 131.433594 231.519531 131.902344 C 231.28125 132.371094 230.972656 132.789062 230.597656 133.15625 C 230.222656 133.527344 229.796875 133.824219 229.324219 134.050781 L 234.394531 132.402344 C 235.265625 134.253906 233.738281 136.542969 231.785156 137.132812 C 229.828125 137.726562 227.71875 137.078125 225.863281 136.222656 C 224.007812 135.367188 222.210938 134.285156 220.195312 133.953125 C 218.179688 133.617188 215.816406 134.265625 214.882812 136.085938 C 214.394531 137.039062 214.367188 138.15625 214.085938 139.191406 C 213.800781 140.222656 213.085938 141.292969 212.019531 141.378906 C 211.34375 141.433594 210.683594 141.074219 210.011719 141.144531 C 209.179688 141.238281 208.542969 141.992188 208.320312 142.800781 C 208.152344 143.632812 208.148438 144.46875 208.3125 145.300781 L 209.601562 155.164062 " fill-opacity="1" fill-rule="nonzero"/><path fill="rgb(7.449341%, 38.819885%, 93.728638%)" d="M 191.035156 255.667969 C 191.03125 255.667969 191.03125 255.667969 191.027344 255.667969 L 190.910156 255.644531 L 190.875 255.53125 C 190.441406 254.070312 189.890625 252.578125 189.359375 251.136719 C 188.574219 249.136719 187.910156 247.09375 187.375 245.011719 C 186.953125 243.023438 186.660156 241.011719 186.496094 238.984375 C 186.347656 237.511719 186.195312 235.992188 185.933594 234.496094 C 185.816406 233.828125 186.257812 233.199219 186.683594 232.589844 C 187.078125 232.027344 187.449219 231.492188 187.371094 230.988281 C 187.292969 230.472656 186.71875 229.90625 186.167969 229.359375 C 185.5625 228.757812 184.9375 228.136719 184.847656 227.480469 C 183.640625 218.550781 183.078125 209.578125 183.167969 200.566406 C 183.292969 188.113281 183.851562 179.625 184.835938 175.339844 C 187.480469 163.808594 199.699219 161.707031 201.609375 161.445312 C 201.710938 161.171875 201.839844 160.914062 201.996094 160.671875 C 202.152344 160.425781 202.328125 160.199219 202.53125 159.988281 C 202.734375 159.78125 202.953125 159.59375 203.191406 159.433594 C 203.433594 159.269531 203.6875 159.132812 203.953125 159.023438 C 204.222656 158.910156 204.5 158.828125 204.78125 158.777344 C 205.066406 158.722656 205.355469 158.699219 205.644531 158.703125 C 205.933594 158.710938 206.21875 158.742188 206.503906 158.808594 C 206.785156 158.875 207.058594 158.964844 207.320312 159.085938 L 216.003906 163.066406 C 217.78125 163.886719 219.324219 165.023438 220.632812 166.488281 C 221.9375 167.949219 222.898438 169.609375 223.515625 171.472656 L 224.804688 175.40625 L 225.453125 201.839844 L 221.871094 220.453125 L 228.867188 230.957031 C 191.589844 251.453125 191.15625 255.667969 191.035156 255.667969 Z M 191.035156 255.667969 " fill-opacity="1" fill-rule="nonzero"/><path fill="rgb(18.429565%, 18.03894%, 25.489807%)" d="M 250.527344 321.25 L 252.980469 321.25 L 262.554688 317.347656 L 267.6875 321.25 C 268.40625 321.25 269.117188 321.320312 269.824219 321.460938 C 270.527344 321.601562 271.210938 321.808594 271.875 322.082031 C 272.539062 322.359375 273.167969 322.695312 273.765625 323.09375 C 274.363281 323.496094 274.914062 323.949219 275.421875 324.457031 C 275.929688 324.964844 276.382812 325.519531 276.78125 326.117188 C 277.179688 326.714844 277.519531 327.347656 277.792969 328.011719 C 278.066406 328.675781 278.273438 329.359375 278.414062 330.066406 C 278.554688 330.769531 278.625 331.480469 278.625 332.203125 L 278.625 332.558594 L 250.527344 332.558594 Z M 250.527344 321.25 " fill-opacity="1" fill-rule="nonzero"/><path fill="rgb(100%, 71.369934%, 71.369934%)" d="M 270.15625 200.363281 C 269.796875 200.148438 269.414062 199.980469 269.015625 199.851562 C 268.617188 199.722656 268.210938 199.636719 267.792969 199.597656 C 267.375 199.558594 266.957031 199.5625 266.542969 199.617188 C 266.125 199.667969 265.71875 199.765625 265.324219 199.90625 C 264.929688 200.046875 264.554688 200.230469 264.199219 200.453125 C 263.847656 200.675781 263.519531 200.9375 263.222656 201.230469 C 262.921875 201.527344 262.660156 201.851562 262.433594 202.203125 C 262.207031 202.554688 262.019531 202.929688 261.875 203.324219 L 248.777344 203.835938 L 247.011719 209.945312 L 265.632812 210.898438 C 265.96875 211 266.308594 211.066406 266.65625 211.105469 C 267.003906 211.140625 267.355469 211.148438 267.703125 211.121094 C 268.050781 211.09375 268.394531 211.035156 268.734375 210.949219 C 269.074219 210.859375 269.402344 210.738281 269.71875 210.589844 C 270.035156 210.441406 270.335938 210.265625 270.621094 210.0625 C 270.90625 209.859375 271.167969 209.632812 271.414062 209.378906 C 271.65625 209.128906 271.875 208.855469 272.070312 208.5625 C 272.261719 208.273438 272.429688 207.964844 272.566406 207.644531 C 272.707031 207.320312 272.8125 206.988281 272.890625 206.648438 C 272.96875 206.304688 273.015625 205.960938 273.03125 205.609375 C 273.046875 205.261719 273.03125 204.910156 272.980469 204.5625 C 272.933594 204.21875 272.855469 203.878906 272.742188 203.542969 C 272.632812 203.210938 272.496094 202.890625 272.328125 202.585938 C 272.15625 202.277344 271.964844 201.988281 271.742188 201.714844 C 271.523438 201.445312 271.277344 201.195312 271.011719 200.964844 C 270.746094 200.738281 270.460938 200.539062 270.15625 200.363281 Z M 270.15625 200.363281 " fill-opacity="1" fill-rule="nonzero"/><path fill="rgb(7.449341%, 38.819885%, 93.728638%)" d="M 259.398438 211.558594 L 245.945312 211.390625 L 244.242188 211.367188 L 216.871094 211.019531 C 216.871094 211.019531 209.441406 203.917969 202.96875 196.609375 L 203.875 190.035156 C 204.316406 186.8125 205.3125 183.769531 206.859375 180.90625 C 208.40625 178.042969 210.410156 175.546875 212.863281 173.414062 C 222.132812 179.617188 227.507812 191.894531 227.507812 191.894531 L 236.523438 195.933594 C 239.695312 196.078125 242.804688 196.59375 245.847656 197.488281 C 248.894531 198.382812 251.792969 199.625 254.539062 201.21875 L 257.503906 202.941406 Z M 259.398438 211.558594 " fill-opacity="1" fill-rule="nonzero"/><path fill="rgb(18.429565%, 18.03894%, 25.489807%)" d="M 358.257812 327.710938 L 353.78125 328.816406 L 351.941406 324.78125 L 350.9375 329.519531 L 339.0625 332.453125 C 338.78125 332.523438 338.492188 332.546875 338.199219 332.527344 C 337.90625 332.503906 337.625 332.4375 337.355469 332.324219 C 337.082031 332.214844 336.835938 332.0625 336.613281 331.871094 C 336.390625 331.679688 336.207031 331.457031 336.054688 331.207031 C 335.902344 330.957031 335.792969 330.6875 335.726562 330.402344 C 335.660156 330.113281 335.640625 329.824219 335.667969 329.535156 C 335.695312 329.242188 335.765625 328.960938 335.882812 328.691406 C 335.996094 328.421875 336.152344 328.175781 336.347656 327.957031 L 344.210938 319.054688 L 343.15625 314.777344 L 353.277344 312.910156 Z M 358.257812 327.710938 " fill-opacity="1" fill-rule="nonzero"/><path fill="rgb(18.429565%, 18.03894%, 25.489807%)" d="M 310.835938 329.09375 L 306.570312 327.347656 L 307.453125 323 L 303.855469 326.238281 L 292.535156 321.613281 C 292.261719 321.5 292.015625 321.351562 291.792969 321.160156 C 291.570312 320.96875 291.378906 320.75 291.226562 320.5 C 291.074219 320.25 290.964844 319.980469 290.898438 319.695312 C 290.828125 319.410156 290.808594 319.121094 290.832031 318.828125 C 290.859375 318.535156 290.929688 318.253906 291.042969 317.984375 C 291.15625 317.714844 291.3125 317.46875 291.503906 317.246094 C 291.699219 317.027344 291.921875 316.84375 292.171875 316.691406 C 292.425781 316.542969 292.695312 316.4375 292.980469 316.375 L 304.570312 313.816406 L 306.234375 309.734375 L 315.511719 314.191406 Z M 310.835938 329.09375 " fill-opacity="1" fill-rule="nonzero"/><path fill="rgb(89.408875%, 89.408875%, 89.408875%)" d="M 295.972656 210.140625 L 292.476562 210.140625 C 291.542969 210.136719 290.621094 210.046875 289.710938 209.863281 C 288.796875 209.679688 287.910156 209.410156 287.050781 209.054688 C 286.191406 208.695312 285.375 208.257812 284.597656 207.742188 C 283.824219 207.222656 283.109375 206.632812 282.449219 205.972656 C 281.792969 205.316406 281.203125 204.597656 280.6875 203.824219 C 280.171875 203.046875 279.734375 202.230469 279.375 201.367188 C 279.019531 200.507812 278.75 199.621094 278.566406 198.703125 C 278.386719 197.789062 278.292969 196.867188 278.292969 195.933594 L 278.292969 195.742188 L 310.15625 195.742188 L 310.15625 195.933594 C 310.152344 196.867188 310.0625 197.789062 309.878906 198.703125 C 309.695312 199.621094 309.425781 200.507812 309.070312 201.367188 C 308.714844 202.230469 308.277344 203.046875 307.757812 203.824219 C 307.242188 204.597656 306.652344 205.316406 305.996094 205.972656 C 305.335938 206.632812 304.621094 207.222656 303.847656 207.738281 C 303.074219 208.257812 302.257812 208.695312 301.398438 209.054688 C 300.535156 209.410156 299.652344 209.679688 298.738281 209.863281 C 297.824219 210.046875 296.902344 210.136719 295.972656 210.140625 Z M 295.972656 210.140625 " fill-opacity="1" fill-rule="nonzero"/><path fill="rgb(24.708557%, 23.919678%, 33.729553%)" d="M 292.476562 190.679688 C 292.476562 191.648438 290.726562 192.433594 290.726562 192.433594 C 290.726562 192.433594 288.976562 191.648438 288.976562 190.679688 C 288.976562 189.714844 290.726562 188.929688 290.726562 188.929688 C 290.726562 188.929688 292.476562 189.714844 292.476562 190.679688 Z M 292.476562 190.679688 " fill-opacity="1" fill-rule="nonzero"/><path fill="rgb(24.708557%, 23.919678%, 33.729553%)" d="M 302.964844 190.679688 C 302.964844 191.648438 301.21875 192.433594 301.21875 192.433594 C 301.21875 192.433594 299.46875 191.648438 299.46875 190.679688 C 299.46875 189.714844 301.21875 188.929688 301.21875 188.929688 C 301.21875 188.929688 302.964844 189.714844 302.964844 190.679688 Z M 302.964844 190.679688 " fill-opacity="1" fill-rule="nonzero"/><path fill="rgb(24.708557%, 23.919678%, 33.729553%)" d="M 295.972656 194.183594 C 295.972656 195.152344 294.222656 195.933594 294.222656 195.933594 C 294.222656 195.933594 292.476562 195.152344 292.476562 194.183594 C 292.476562 193.214844 294.222656 192.433594 294.222656 192.433594 C 294.222656 192.433594 295.972656 193.214844 295.972656 194.183594 Z M 295.972656 194.183594 " fill-opacity="1" fill-rule="nonzero"/><path fill="rgb(24.708557%, 23.919678%, 33.729553%)" d="M 285.480469 185.234375 C 285.480469 185.464844 285.4375 185.6875 285.347656 185.902344 C 285.257812 186.117188 285.132812 186.308594 284.96875 186.472656 C 284.804688 186.636719 284.617188 186.761719 284.402344 186.851562 C 284.1875 186.941406 283.964844 186.984375 283.734375 186.984375 C 283.5 186.984375 283.277344 186.941406 283.0625 186.851562 C 282.847656 186.761719 282.660156 186.636719 282.496094 186.472656 C 282.332031 186.308594 282.207031 186.117188 282.117188 185.902344 C 282.027344 185.6875 281.984375 185.464844 281.984375 185.234375 C 281.984375 185 282.027344 184.777344 282.117188 184.5625 C 282.207031 184.347656 282.332031 184.160156 282.496094 183.996094 C 282.660156 183.832031 282.847656 183.703125 283.0625 183.617188 C 283.277344 183.527344 283.5 183.480469 283.734375 183.480469 C 283.964844 183.480469 284.1875 183.527344 284.402344 183.617188 C 284.617188 183.703125 284.804688 183.832031 284.96875 183.996094 C 285.132812 184.160156 285.257812 184.347656 285.347656 184.5625 C 285.4375 184.777344 285.480469 185 285.480469 185.234375 Z M 285.480469 185.234375 " fill-opacity="1" fill-rule="nonzero"/><path fill="rgb(89.408875%, 89.408875%, 89.408875%)" d="M 258.300781 181.46875 L 285.878906 185.285156 C 286.132812 185.320312 286.367188 185.402344 286.585938 185.535156 C 286.804688 185.664062 286.988281 185.832031 287.136719 186.039062 C 287.285156 186.246094 287.386719 186.476562 287.441406 186.722656 C 287.5 186.972656 287.503906 187.222656 287.457031 187.472656 C 287.410156 187.722656 287.316406 187.953125 287.175781 188.167969 C 287.035156 188.378906 286.859375 188.554688 286.648438 188.695312 C 286.433594 188.835938 286.203125 188.925781 285.953125 188.972656 C 285.699219 189.015625 285.453125 189.007812 285.203125 188.953125 L 258.085938 182.652344 C 257.929688 182.617188 257.804688 182.53125 257.71875 182.394531 C 257.628906 182.261719 257.601562 182.113281 257.628906 181.957031 C 257.660156 181.796875 257.738281 181.671875 257.867188 181.578125 C 258 181.484375 258.144531 181.449219 258.300781 181.46875 Z M 258.300781 181.46875 " fill-opacity="1" fill-rule="nonzero"/><g clip-path="url(#clip-5)"><path fill="rgb(94.119263%, 94.119263%, 94.119263%)" d="M 291.8125 94.449219 L 291.8125 41.832031 L 288.316406 41.832031 L 288.316406 94.449219 C 287.132812 94.558594 285.96875 94.773438 284.824219 95.097656 C 283.679688 95.425781 282.574219 95.851562 281.507812 96.382812 C 280.445312 96.910156 279.4375 97.535156 278.488281 98.25 C 277.539062 98.96875 276.660156 99.765625 275.859375 100.644531 C 275.058594 101.523438 274.34375 102.472656 273.71875 103.484375 C 273.089844 104.496094 272.5625 105.554688 272.132812 106.667969 C 271.703125 107.777344 271.378906 108.917969 271.160156 110.089844 C 270.941406 111.257812 270.832031 112.4375 270.832031 113.628906 L 270.832031 118.882812 L 283.070312 118.882812 C 283.070312 119.34375 283.117188 119.800781 283.207031 120.25 C 283.296875 120.703125 283.429688 121.140625 283.605469 121.5625 C 283.777344 121.988281 283.996094 122.394531 284.25 122.773438 C 284.503906 123.15625 284.796875 123.511719 285.121094 123.835938 C 285.445312 124.160156 285.796875 124.453125 286.179688 124.707031 C 286.5625 124.964844 286.964844 125.179688 287.390625 125.355469 C 287.8125 125.53125 288.25 125.664062 288.699219 125.753906 C 289.152344 125.84375 289.605469 125.886719 290.066406 125.886719 C 290.523438 125.886719 290.980469 125.84375 291.429688 125.753906 C 291.878906 125.664062 292.316406 125.53125 292.742188 125.355469 C 293.167969 125.179688 293.570312 124.964844 293.949219 124.707031 C 294.332031 124.453125 294.6875 124.160156 295.011719 123.835938 C 295.335938 123.511719 295.625 123.15625 295.878906 122.773438 C 296.136719 122.394531 296.351562 121.988281 296.527344 121.5625 C 296.703125 121.140625 296.835938 120.703125 296.925781 120.25 C 297.015625 119.800781 297.058594 119.34375 297.058594 118.882812 L 309.300781 118.882812 L 309.300781 113.628906 C 309.300781 112.4375 309.191406 111.257812 308.96875 110.085938 C 308.75 108.917969 308.425781 107.777344 307.996094 106.667969 C 307.566406 105.554688 307.039062 104.496094 306.414062 103.480469 C 305.785156 102.46875 305.070312 101.523438 304.269531 100.644531 C 303.46875 99.765625 302.59375 98.96875 301.640625 98.25 C 300.691406 97.535156 299.683594 96.910156 298.621094 96.378906 C 297.554688 95.851562 296.449219 95.421875 295.304688 95.097656 C 294.164062 94.773438 293 94.558594 291.8125 94.449219 Z M 291.8125 94.449219 " fill-opacity="1" fill-rule="nonzero"/></g><g clip-path="url(#clip-6)"><path fill="rgb(94.119263%, 94.119263%, 94.119263%)" d="M 336.839844 81.296875 L 336.839844 41.832031 L 334.214844 41.832031 L 334.214844 81.296875 C 333.328125 81.375 332.453125 81.539062 331.597656 81.78125 C 330.738281 82.027344 329.910156 82.347656 329.109375 82.742188 C 328.3125 83.140625 327.554688 83.609375 326.84375 84.144531 C 326.132812 84.683594 325.472656 85.28125 324.875 85.941406 C 324.273438 86.601562 323.734375 87.3125 323.265625 88.070312 C 322.796875 88.828125 322.398438 89.625 322.078125 90.457031 C 321.753906 91.289062 321.511719 92.144531 321.347656 93.023438 C 321.183594 93.902344 321.101562 94.789062 321.101562 95.679688 L 321.101562 99.621094 L 330.28125 99.621094 C 330.28125 99.964844 330.316406 100.308594 330.382812 100.644531 C 330.449219 100.984375 330.550781 101.3125 330.679688 101.632812 C 330.8125 101.949219 330.972656 102.253906 331.164062 102.539062 C 331.355469 102.828125 331.574219 103.089844 331.816406 103.335938 C 332.0625 103.578125 332.328125 103.796875 332.613281 103.988281 C 332.898438 104.179688 333.203125 104.34375 333.519531 104.472656 C 333.835938 104.605469 334.164062 104.707031 334.503906 104.773438 C 334.839844 104.839844 335.183594 104.875 335.527344 104.875 C 335.871094 104.875 336.210938 104.839844 336.550781 104.773438 C 336.886719 104.707031 337.214844 104.605469 337.535156 104.472656 C 337.851562 104.34375 338.15625 104.179688 338.441406 103.988281 C 338.726562 103.796875 338.992188 103.578125 339.234375 103.335938 C 339.480469 103.089844 339.695312 102.828125 339.886719 102.539062 C 340.078125 102.253906 340.242188 101.949219 340.375 101.632812 C 340.503906 101.3125 340.605469 100.984375 340.671875 100.644531 C 340.738281 100.308594 340.773438 99.964844 340.773438 99.621094 L 349.953125 99.621094 L 349.953125 95.679688 C 349.953125 94.789062 349.871094 93.902344 349.707031 93.023438 C 349.542969 92.144531 349.296875 91.289062 348.976562 90.457031 C 348.652344 89.625 348.257812 88.828125 347.789062 88.070312 C 347.316406 87.3125 346.78125 86.601562 346.179688 85.941406 C 345.578125 85.28125 344.921875 84.683594 344.210938 84.144531 C 343.496094 83.609375 342.742188 83.140625 341.941406 82.742188 C 341.144531 82.347656 340.316406 82.027344 339.457031 81.78125 C 338.601562 81.539062 337.726562 81.375 336.839844 81.296875 Z M 336.839844 81.296875 " fill-opacity="1" fill-rule="nonzero"/></g><g clip-path="url(#clip-7)"><path fill="rgb(94.119263%, 94.119263%, 94.119263%)" d="M 248.246094 81.296875 L 248.246094 41.832031 L 245.625 41.832031 L 245.625 81.296875 C 244.734375 81.375 243.863281 81.539062 243.003906 81.78125 C 242.144531 82.027344 241.316406 82.347656 240.519531 82.742188 C 239.71875 83.140625 238.964844 83.609375 238.25 84.144531 C 237.539062 84.683594 236.882812 85.28125 236.28125 85.941406 C 235.679688 86.601562 235.144531 87.3125 234.675781 88.070312 C 234.203125 88.828125 233.808594 89.625 233.484375 90.457031 C 233.164062 91.289062 232.917969 92.144531 232.753906 93.023438 C 232.589844 93.902344 232.507812 94.789062 232.507812 95.679688 L 232.507812 99.621094 L 241.6875 99.621094 C 241.6875 99.964844 241.722656 100.308594 241.789062 100.644531 C 241.855469 100.984375 241.957031 101.3125 242.089844 101.632812 C 242.21875 101.949219 242.382812 102.253906 242.574219 102.539062 C 242.765625 102.828125 242.980469 103.089844 243.226562 103.335938 C 243.46875 103.578125 243.734375 103.796875 244.019531 103.988281 C 244.308594 104.179688 244.609375 104.34375 244.925781 104.472656 C 245.246094 104.605469 245.574219 104.707031 245.910156 104.773438 C 246.25 104.839844 246.589844 104.875 246.933594 104.875 C 247.28125 104.875 247.621094 104.839844 247.957031 104.773438 C 248.296875 104.707031 248.625 104.605469 248.941406 104.472656 C 249.261719 104.34375 249.5625 104.179688 249.847656 103.988281 C 250.136719 103.796875 250.402344 103.578125 250.644531 103.335938 C 250.886719 103.089844 251.105469 102.828125 251.296875 102.539062 C 251.488281 102.253906 251.648438 101.949219 251.78125 101.632812 C 251.914062 101.3125 252.011719 100.984375 252.078125 100.644531 C 252.148438 100.308594 252.179688 99.964844 252.179688 99.621094 L 261.359375 99.621094 L 261.359375 95.679688 C 261.359375 94.789062 261.277344 93.902344 261.113281 93.023438 C 260.949219 92.144531 260.707031 91.289062 260.382812 90.457031 C 260.0625 89.625 259.664062 88.828125 259.195312 88.070312 C 258.726562 87.3125 258.191406 86.601562 257.589844 85.941406 C 256.988281 85.28125 256.328125 84.683594 255.617188 84.144531 C 254.90625 83.609375 254.148438 83.140625 253.351562 82.742188 C 252.550781 82.347656 251.722656 82.027344 250.867188 81.78125 C 250.007812 81.539062 249.132812 81.375 248.246094 81.296875 Z M 248.246094 81.296875 " fill-opacity="1" fill-rule="nonzero"/></g><path fill="rgb(18.429565%, 18.03894%, 25.489807%)" d="M 406.105469 134.613281 C 403.628906 131.726562 402.453125 127.890625 400.476562 124.609375 C 398.496094 121.328125 395.054688 118.390625 391.417969 119.152344 C 388.910156 119.679688 386.972656 121.894531 385.992188 124.363281 C 385.011719 126.835938 384.828125 129.558594 384.65625 132.226562 C 384.714844 126.742188 381.109375 121.425781 376.140625 119.675781 C 371.167969 117.925781 365.222656 119.878906 362.097656 124.285156 C 361.761719 123.972656 361.398438 123.691406 361.007812 123.445312 C 360.621094 123.195312 360.210938 122.984375 359.785156 122.8125 C 359.359375 122.640625 358.917969 122.507812 358.46875 122.414062 C 358.015625 122.320312 357.5625 122.269531 357.101562 122.261719 C 356.640625 122.25 356.183594 122.285156 355.726562 122.355469 C 355.273438 122.429688 354.828125 122.546875 354.394531 122.699219 C 353.960938 122.855469 353.542969 123.046875 353.144531 123.277344 C 352.746094 123.507812 352.371094 123.773438 352.019531 124.074219 C 349.226562 126.574219 348.609375 131.332031 350.664062 134.519531 C 352.71875 137.710938 357.167969 138.898438 360.429688 137.128906 L 361.585938 138.191406 C 360.9375 140.46875 362.195312 143.15625 364.3125 144.011719 C 366.03125 144.707031 368.453125 144.59375 369.097656 146.398438 C 369.546875 147.65625 368.707031 149.003906 367.8125 149.972656 C 366.921875 150.941406 365.863281 151.941406 365.753906 153.285156 C 365.59375 155.308594 367.679688 156.726562 369.578125 157.152344 C 374.152344 158.179688 379.230469 156.058594 381.871094 152.015625 C 381.921875 151.9375 381.976562 151.859375 382.035156 151.78125 C 382.773438 150.832031 383.410156 149.820312 383.945312 148.742188 C 384.480469 147.664062 384.898438 146.542969 385.203125 145.378906 C 385.511719 144.214844 385.695312 143.035156 385.761719 141.832031 C 385.824219 140.632812 385.769531 139.4375 385.589844 138.246094 C 385.441406 137.3125 385.589844 136.617188 386.234375 136.394531 C 389.015625 135.4375 396.808594 137.445312 399.167969 139.261719 C 401.527344 141.078125 403.414062 143.480469 405.6875 145.410156 C 407.957031 147.34375 410.855469 148.835938 413.738281 148.308594 C 416.050781 147.886719 418.015625 146.207031 419.335938 144.179688 C 420.65625 142.15625 421.417969 139.792969 422.101562 137.445312 C 416.992188 140.402344 410 139.164062 406.105469 134.613281 Z M 406.105469 134.613281 " fill-opacity="1" fill-rule="nonzero"/></svg>