<?xml version="1.0" encoding="UTF-8"?><svg xmlns="http://www.w3.org/2000/svg" xmlns:xlink="http://www.w3.org/1999/xlink" width="600" zoomAndPan="magnify" viewBox="0 0 600 374.999991" height="374.999991" preserveAspectRatio="xMidYMid meet" version="1.0"><defs><clipPath id="clip-0"><path d="M 330 79.707031 L 346 79.707031 L 346 112 L 330 112 Z M 330 79.707031 " clip-rule="nonzero"/></clipPath><clipPath id="clip-1"><path d="M 301 326 L 322 326 L 322 337.707031 L 301 337.707031 Z M 301 326 " clip-rule="nonzero"/></clipPath><clipPath id="clip-2"><path d="M 331 319 L 352 319 L 352 337.707031 L 331 337.707031 Z M 331 319 " clip-rule="nonzero"/></clipPath><clipPath id="clip-3"><path d="M 220 319 L 241 319 L 241 337.707031 L 220 337.707031 Z M 220 319 " clip-rule="nonzero"/></clipPath><clipPath id="clip-4"><path d="M 198.648438 336 L 385 336 L 385 337.707031 L 198.648438 337.707031 Z M 198.648438 336 " clip-rule="nonzero"/></clipPath></defs><g clip-path="url(#clip-0)"><path fill="rgb(100%, 71.369934%, 71.369934%)" d="M 345.660156 83.519531 C 345.785156 83.878906 345.878906 84.242188 345.933594 84.617188 C 345.992188 84.992188 346.011719 85.367188 345.992188 85.746094 C 345.976562 86.125 345.921875 86.496094 345.832031 86.863281 C 345.742188 87.230469 345.621094 87.585938 345.460938 87.929688 C 345.300781 88.273438 345.113281 88.597656 344.890625 88.90625 C 344.667969 89.210938 344.417969 89.492188 344.140625 89.75 C 343.863281 90.007812 343.566406 90.238281 343.242188 90.4375 C 342.921875 90.636719 342.585938 90.800781 342.230469 90.933594 C 341.914062 91.054688 341.589844 91.144531 341.257812 91.203125 L 337.953125 111.453125 L 330.207031 104.289062 L 334.53125 86.160156 C 334.492188 85.78125 334.488281 85.402344 334.523438 85.023438 C 334.558594 84.644531 334.628906 84.273438 334.734375 83.90625 C 334.84375 83.542969 334.984375 83.191406 335.15625 82.855469 C 335.332031 82.515625 335.539062 82.199219 335.777344 81.902344 C 336.011719 81.605469 336.277344 81.332031 336.566406 81.085938 C 336.855469 80.84375 337.167969 80.625 337.5 80.441406 C 337.832031 80.257812 338.175781 80.105469 338.539062 79.988281 C 338.898438 79.871094 339.269531 79.789062 339.648438 79.746094 C 340.289062 79.671875 340.921875 79.707031 341.550781 79.847656 C 342.179688 79.992188 342.765625 80.234375 343.3125 80.578125 C 343.859375 80.921875 344.335938 81.34375 344.738281 81.847656 C 345.140625 82.355469 345.445312 82.910156 345.660156 83.519531 Z M 345.660156 83.519531 " fill-opacity="1" fill-rule="nonzero"/></g><path fill="rgb(90.19928%, 90.589905%, 90.979004%)" d="M 288.492188 129.398438 C 288.492188 129.398438 294.503906 121.445312 316.320312 121.664062 L 328.703125 117.15625 L 331.535156 91.179688 L 341.4375 93.542969 L 340.023438 125.660156 L 318.800781 137.941406 L 290.972656 143.609375 Z M 288.492188 129.398438 " fill-opacity="1" fill-rule="nonzero"/><path fill="rgb(100%, 71.369934%, 71.369934%)" d="M 254.96875 325.238281 L 260.683594 327.679688 L 272.796875 306.765625 L 264.363281 303.164062 Z M 254.96875 325.238281 " fill-opacity="1" fill-rule="nonzero"/><path fill="rgb(100%, 71.369934%, 71.369934%)" d="M 302.195312 330.65625 L 308.410156 330.65625 L 311.363281 306.660156 L 302.195312 306.660156 Z M 302.195312 330.65625 " fill-opacity="1" fill-rule="nonzero"/><g clip-path="url(#clip-1)"><path fill="rgb(18.429565%, 18.03894%, 25.489807%)" d="M 301.976562 337.144531 L 321.082031 337.144531 L 321.082031 336.902344 C 321.082031 336.414062 321.035156 335.929688 320.9375 335.449219 C 320.84375 334.96875 320.703125 334.503906 320.515625 334.050781 C 320.328125 333.601562 320.097656 333.171875 319.828125 332.765625 C 319.554688 332.359375 319.25 331.984375 318.902344 331.636719 C 318.558594 331.292969 318.183594 330.984375 317.777344 330.710938 C 317.371094 330.441406 316.941406 330.210938 316.492188 330.023438 C 316.039062 329.835938 315.574219 329.695312 315.097656 329.597656 C 314.617188 329.503906 314.132812 329.457031 313.644531 329.457031 L 310.15625 326.804688 L 303.644531 329.457031 L 301.976562 329.457031 Z M 301.976562 337.144531 " fill-opacity="1" fill-rule="nonzero"/></g><path fill="rgb(18.429565%, 18.03894%, 25.489807%)" d="M 251.496094 329.394531 L 269.070312 336.894531 L 269.164062 336.671875 C 269.355469 336.222656 269.5 335.757812 269.601562 335.277344 C 269.699219 334.800781 269.753906 334.316406 269.757812 333.828125 C 269.761719 333.339844 269.722656 332.855469 269.628906 332.375 C 269.539062 331.894531 269.402344 331.425781 269.222656 330.972656 C 269.039062 330.519531 268.816406 330.085938 268.546875 329.679688 C 268.28125 329.269531 267.976562 328.890625 267.632812 328.539062 C 267.292969 328.191406 266.921875 327.878906 266.515625 327.601562 C 266.113281 327.328125 265.6875 327.09375 265.238281 326.902344 L 263.066406 323.09375 L 256.039062 322.976562 L 254.503906 322.320312 Z M 251.496094 329.394531 " fill-opacity="1" fill-rule="nonzero"/><path fill="rgb(18.429565%, 18.03894%, 25.489807%)" d="M 308.289062 188.644531 L 317.730469 246.210938 L 315.164062 254.792969 L 318.535156 260.867188 L 313.582031 314.226562 L 315.59375 318.65625 L 309.976562 322.125 L 298.550781 322.125 L 297.945312 273.820312 L 295.121094 266.726562 L 295.121094 262.816406 L 289.375 233.363281 L 288.316406 267.054688 L 286.644531 274.160156 L 288.050781 279.21875 L 286.214844 282.761719 L 270.496094 316.566406 L 257.679688 316.566406 L 258.671875 308.921875 C 256.378906 307.757812 262.121094 304.355469 262.671875 301.839844 L 260.785156 297.585938 L 262.671875 289.558594 L 264.402344 273.867188 L 262.578125 240.75 L 263.433594 196.148438 L 278.421875 184.671875 Z M 308.289062 188.644531 " fill-opacity="1" fill-rule="nonzero"/><path fill="rgb(100%, 71.369934%, 71.369934%)" d="M 298.246094 99.863281 C 298.246094 100.710938 298.164062 101.554688 297.996094 102.390625 C 297.832031 103.226562 297.585938 104.035156 297.261719 104.824219 C 296.9375 105.609375 296.535156 106.359375 296.066406 107.066406 C 295.59375 107.773438 295.054688 108.429688 294.453125 109.03125 C 293.851562 109.632812 293.199219 110.171875 292.492188 110.644531 C 291.785156 111.117188 291.039062 111.515625 290.253906 111.839844 C 289.46875 112.167969 288.660156 112.414062 287.824219 112.578125 C 286.992188 112.746094 286.148438 112.828125 285.296875 112.828125 C 284.449219 112.828125 283.605469 112.746094 282.773438 112.578125 C 281.9375 112.414062 281.128906 112.167969 280.34375 111.839844 C 279.558594 111.515625 278.8125 111.117188 278.105469 110.644531 C 277.398438 110.171875 276.742188 109.632812 276.140625 109.03125 C 275.539062 108.429688 275.003906 107.773438 274.53125 107.066406 C 274.058594 106.359375 273.660156 105.609375 273.335938 104.824219 C 273.011719 104.035156 272.765625 103.226562 272.597656 102.390625 C 272.433594 101.554688 272.347656 100.710938 272.347656 99.863281 C 272.347656 99.011719 272.433594 98.167969 272.597656 97.332031 C 272.765625 96.496094 273.011719 95.6875 273.335938 94.898438 C 273.660156 94.113281 274.058594 93.367188 274.53125 92.65625 C 275.003906 91.949219 275.539062 91.292969 276.140625 90.691406 C 276.742188 90.089844 277.398438 89.554688 278.105469 89.078125 C 278.8125 88.605469 279.558594 88.207031 280.34375 87.882812 C 281.128906 87.554688 281.9375 87.308594 282.773438 87.144531 C 283.605469 86.976562 284.449219 86.894531 285.296875 86.894531 C 286.148438 86.894531 286.992188 86.976562 287.824219 87.144531 C 288.660156 87.308594 289.46875 87.554688 290.253906 87.882812 C 291.039062 88.207031 291.785156 88.605469 292.492188 89.078125 C 293.199219 89.554688 293.851562 90.089844 294.453125 90.691406 C 295.054688 91.292969 295.59375 91.949219 296.066406 92.65625 C 296.535156 93.367188 296.9375 94.113281 297.261719 94.898438 C 297.585938 95.6875 297.832031 96.496094 297.996094 97.332031 C 298.164062 98.167969 298.246094 99.011719 298.246094 99.863281 Z M 298.246094 99.863281 " fill-opacity="1" fill-rule="nonzero"/><path fill="rgb(90.19928%, 90.589905%, 90.979004%)" d="M 263.382812 198.179688 C 263.359375 198.179688 263.335938 198.175781 263.316406 198.167969 C 263.074219 198.101562 262.886719 198.050781 263.75 190.578125 L 264.679688 184.675781 L 263.773438 179.460938 L 262.242188 177.929688 L 264.699219 175.46875 L 263.195312 164.308594 L 259.101562 142.65625 C 258.925781 141.726562 258.828125 140.792969 258.804688 139.847656 C 258.785156 138.902344 258.839844 137.964844 258.972656 137.027344 C 259.105469 136.09375 259.3125 135.175781 259.59375 134.277344 C 259.878906 133.375 260.230469 132.503906 260.65625 131.660156 C 261.082031 130.816406 261.574219 130.015625 262.128906 129.253906 C 262.6875 128.492188 263.300781 127.78125 263.972656 127.117188 C 264.648438 126.457031 265.371094 125.855469 266.140625 125.3125 C 266.914062 124.769531 267.722656 124.296875 268.574219 123.886719 L 276.632812 116.398438 L 291.464844 116.289062 L 296.207031 122.464844 L 308.761719 126.734375 L 306.679688 169.855469 L 308.140625 173.269531 L 308.015625 173.382812 C 308.003906 173.390625 307.03125 174.269531 306.59375 174.753906 C 306.382812 175.054688 306.78125 177.304688 307.269531 179.210938 L 307.898438 183.921875 L 306.316406 185.058594 L 308.375 187.492188 L 308.972656 191.972656 L 308.636719 191.890625 C 308.257812 191.796875 270.671875 182.640625 263.644531 197.980469 C 263.601562 198.105469 263.515625 198.171875 263.382812 198.179688 Z M 263.382812 198.179688 " fill-opacity="1" fill-rule="nonzero"/><path fill="rgb(18.429565%, 18.03894%, 25.489807%)" d="M 281.984375 112.191406 C 281.929688 112.070312 281.875 111.949219 281.820312 111.824219 C 281.84375 111.828125 281.863281 111.828125 281.882812 111.832031 Z M 281.984375 112.191406 " fill-opacity="1" fill-rule="nonzero"/><path fill="rgb(18.429565%, 18.03894%, 25.489807%)" d="M 271.988281 87.484375 C 272.625 86.886719 273.378906 86.558594 274.246094 86.507812 C 275.085938 86.535156 275.933594 87.292969 275.761719 88.113281 C 276.140625 87.4375 276.578125 86.796875 277.074219 86.199219 C 277.566406 85.597656 278.105469 85.046875 278.695312 84.539062 C 279.285156 84.035156 279.914062 83.585938 280.582031 83.191406 C 281.25 82.796875 281.949219 82.460938 282.675781 82.1875 C 283.402344 81.914062 284.144531 81.707031 284.910156 81.566406 C 285.671875 81.421875 286.441406 81.347656 287.214844 81.339844 C 287.992188 81.332031 288.761719 81.394531 289.527344 81.519531 C 290.292969 81.648438 291.042969 81.839844 291.773438 82.097656 C 293.855469 82.835938 295.894531 84.304688 296.375 86.460938 C 296.421875 87.035156 296.585938 87.574219 296.867188 88.074219 C 297.113281 88.34375 297.417969 88.523438 297.769531 88.613281 C 298.125 88.703125 298.476562 88.6875 298.820312 88.570312 L 298.84375 88.5625 C 299.105469 88.472656 299.324219 88.535156 299.503906 88.746094 C 299.683594 88.953125 299.710938 89.183594 299.582031 89.429688 L 298.992188 90.527344 C 299.746094 90.695312 300.496094 90.679688 301.242188 90.480469 C 301.519531 90.40625 301.738281 90.488281 301.902344 90.726562 C 302.0625 90.964844 302.058594 91.199219 301.890625 91.433594 C 301.402344 92.101562 300.839844 92.707031 300.210938 93.246094 C 299.582031 93.785156 298.898438 94.246094 298.160156 94.625 C 297.421875 95.003906 296.652344 95.292969 295.847656 95.492188 C 295.039062 95.695312 294.222656 95.796875 293.394531 95.804688 C 291.042969 95.792969 288.664062 94.980469 286.375 95.519531 C 285.933594 95.625 285.507812 95.777344 285.097656 95.980469 C 284.6875 96.179688 284.308594 96.421875 283.953125 96.707031 C 283.597656 96.992188 283.28125 97.316406 282.996094 97.671875 C 282.714844 98.03125 282.476562 98.414062 282.277344 98.824219 C 282.082031 99.234375 281.933594 99.664062 281.832031 100.109375 C 281.730469 100.550781 281.679688 101.003906 281.679688 101.457031 C 281.679688 101.914062 281.730469 102.363281 281.832031 102.808594 C 281.929688 103.253906 282.078125 103.679688 282.273438 104.09375 C 281.570312 103.320312 280.210938 103.503906 279.492188 104.257812 C 278.792969 105.113281 278.515625 106.089844 278.660156 107.183594 C 278.851562 108.785156 279.316406 110.304688 280.050781 111.738281 C 279.359375 111.71875 278.671875 111.644531 277.992188 111.515625 C 277.3125 111.390625 276.644531 111.214844 275.992188 110.984375 C 275.339844 110.757812 274.707031 110.480469 274.09375 110.15625 C 273.484375 109.832031 272.902344 109.460938 272.347656 109.050781 C 271.792969 108.636719 271.269531 108.179688 270.785156 107.6875 C 270.300781 107.195312 269.855469 106.667969 269.449219 106.105469 C 269.042969 105.542969 268.683594 104.957031 268.367188 104.339844 C 268.050781 103.722656 267.785156 103.085938 267.566406 102.429688 C 267.347656 101.769531 267.179688 101.101562 267.066406 100.417969 C 266.949219 99.734375 266.882812 99.046875 266.875 98.355469 C 266.863281 97.660156 266.902344 96.972656 266.996094 96.285156 C 267.089844 95.597656 267.234375 94.925781 267.433594 94.261719 C 267.628906 93.597656 267.875 92.949219 268.167969 92.324219 C 268.464844 91.695312 268.804688 91.097656 269.191406 90.523438 C 269.578125 89.949219 270.007812 89.40625 270.476562 88.894531 C 270.945312 88.386719 271.449219 87.917969 271.988281 87.484375 Z M 271.988281 87.484375 " fill-opacity="1" fill-rule="nonzero"/><g clip-path="url(#clip-2)"><path fill="rgb(94.119263%, 94.119263%, 94.119263%)" d="M 348.898438 329.605469 L 345.261719 323.753906 L 344.535156 327.097656 C 344.410156 327.683594 344.28125 328.277344 344.164062 328.871094 C 343.128906 327.984375 342.03125 327.167969 340.957031 326.386719 C 337.65625 323.984375 334.355469 321.582031 331.054688 319.175781 L 332.089844 325.175781 C 332.726562 328.871094 333.390625 332.640625 334.964844 336.015625 C 335.140625 336.398438 335.328125 336.777344 335.53125 337.144531 L 350.878906 337.144531 C 351.003906 336.800781 351.089844 336.449219 351.136719 336.085938 C 351.140625 336.0625 351.140625 336.039062 351.140625 336.015625 C 351.378906 333.726562 350.117188 331.566406 348.898438 329.605469 Z M 348.898438 329.605469 " fill-opacity="1" fill-rule="nonzero"/></g><g clip-path="url(#clip-3)"><path fill="rgb(94.119263%, 94.119263%, 94.119263%)" d="M 222.855469 329.605469 L 226.492188 323.753906 L 227.21875 327.097656 C 227.347656 327.683594 227.472656 328.277344 227.59375 328.871094 C 228.625 327.984375 229.722656 327.167969 230.800781 326.386719 C 234.101562 323.984375 237.402344 321.582031 240.699219 319.175781 L 239.667969 325.175781 C 239.03125 328.871094 238.363281 332.640625 236.789062 336.015625 C 236.613281 336.398438 236.425781 336.777344 236.222656 337.144531 L 220.875 337.144531 C 220.75 336.800781 220.667969 336.449219 220.621094 336.085938 C 220.617188 336.0625 220.617188 336.039062 220.617188 336.015625 C 220.375 333.726562 221.640625 331.566406 222.855469 329.605469 Z M 222.855469 329.605469 " fill-opacity="1" fill-rule="nonzero"/></g><g clip-path="url(#clip-4)"><path fill="rgb(79.219055%, 79.219055%, 79.219055%)" d="M 384.058594 337.707031 L 199.28125 337.707031 C 199.128906 337.707031 198.996094 337.652344 198.886719 337.542969 C 198.777344 337.433594 198.722656 337.300781 198.722656 337.144531 C 198.722656 336.988281 198.777344 336.855469 198.886719 336.746094 C 198.996094 336.636719 199.128906 336.582031 199.28125 336.582031 L 384.058594 336.582031 C 384.210938 336.582031 384.34375 336.636719 384.453125 336.746094 C 384.566406 336.855469 384.621094 336.988281 384.621094 337.144531 C 384.621094 337.300781 384.566406 337.433594 384.453125 337.542969 C 384.34375 337.652344 384.210938 337.707031 384.058594 337.707031 Z M 384.058594 337.707031 " fill-opacity="1" fill-rule="nonzero"/></g><path fill="rgb(79.219055%, 79.219055%, 79.219055%)" d="M 377.308594 88.488281 L 341.757812 88.488281 C 341.480469 88.488281 341.214844 88.542969 340.957031 88.648438 C 340.703125 88.753906 340.476562 88.90625 340.277344 89.101562 C 340.082031 89.300781 339.929688 89.527344 339.824219 89.785156 C 339.71875 90.039062 339.664062 90.308594 339.664062 90.585938 L 339.664062 112.75 C 339.664062 113.027344 339.71875 113.292969 339.824219 113.550781 C 339.929688 113.808594 340.082031 114.035156 340.277344 114.230469 C 340.476562 114.429688 340.703125 114.582031 340.957031 114.6875 C 341.214844 114.792969 341.480469 114.847656 341.757812 114.847656 L 377.308594 114.847656 C 377.585938 114.847656 377.851562 114.792969 378.109375 114.6875 C 378.367188 114.582031 378.59375 114.429688 378.789062 114.230469 C 378.984375 114.035156 379.136719 113.808594 379.242188 113.550781 C 379.347656 113.292969 379.402344 113.027344 379.402344 112.75 L 379.402344 90.585938 C 379.402344 90.308594 379.347656 90.039062 379.242188 89.785156 C 379.136719 89.527344 378.984375 89.300781 378.789062 89.101562 C 378.59375 88.90625 378.367188 88.753906 378.109375 88.648438 C 377.851562 88.542969 377.585938 88.488281 377.308594 88.488281 Z M 377.996094 104.410156 C 377.992188 104.96875 377.9375 105.519531 377.828125 106.066406 C 377.71875 106.617188 377.558594 107.148438 377.34375 107.664062 C 377.132812 108.179688 376.871094 108.671875 376.5625 109.136719 C 376.253906 109.605469 375.90625 110.035156 375.511719 110.433594 C 375.121094 110.832031 374.695312 111.1875 374.234375 111.503906 C 373.773438 111.816406 373.285156 112.085938 372.773438 112.304688 C 372.257812 112.523438 371.730469 112.691406 371.183594 112.808594 C 370.636719 112.925781 370.085938 112.988281 369.527344 113 C 365.921875 113.046875 371.523438 113.0625 367.175781 113.0625 C 357.226562 113.0625 346.851562 112.96875 342.984375 112.90625 C 342.726562 112.902344 342.484375 112.847656 342.25 112.746094 C 342.015625 112.644531 341.808594 112.503906 341.632812 112.324219 C 341.453125 112.140625 341.316406 111.933594 341.21875 111.695312 C 341.121094 111.460938 341.074219 111.214844 341.070312 110.960938 L 341.070312 90.585938 C 341.070312 90.398438 341.140625 90.234375 341.273438 90.101562 C 341.40625 89.964844 341.570312 89.898438 341.757812 89.898438 L 377.304688 89.898438 C 377.496094 89.898438 377.65625 89.964844 377.792969 90.097656 C 377.925781 90.234375 377.996094 90.394531 377.996094 90.585938 Z M 377.996094 104.410156 " fill-opacity="1" fill-rule="nonzero"/><path fill="rgb(79.219055%, 79.219055%, 79.219055%)" d="M 372.617188 102.632812 L 345.535156 102.632812 C 345.289062 102.632812 345.066406 102.5625 344.863281 102.421875 C 344.664062 102.277344 344.523438 102.09375 344.441406 101.859375 L 340.257812 90.109375 C 340.195312 89.929688 340.175781 89.75 340.199219 89.5625 C 340.226562 89.375 340.292969 89.203125 340.402344 89.046875 C 340.511719 88.894531 340.648438 88.773438 340.816406 88.6875 C 340.984375 88.597656 341.160156 88.554688 341.347656 88.554688 L 377.671875 88.492188 L 377.675781 88.492188 C 377.871094 88.492188 378.054688 88.535156 378.226562 88.628906 C 378.398438 88.722656 378.539062 88.851562 378.644531 89.011719 C 378.753906 89.175781 378.816406 89.355469 378.832031 89.550781 C 378.851562 89.746094 378.820312 89.933594 378.742188 90.113281 L 378.679688 90.085938 L 378.742188 90.113281 L 373.6875 101.929688 C 373.59375 102.140625 373.453125 102.3125 373.257812 102.441406 C 373.0625 102.570312 372.851562 102.632812 372.617188 102.632812 Z M 372.617188 102.632812 " fill-opacity="1" fill-rule="nonzero"/><path fill="rgb(24.708557%, 23.919678%, 33.729553%)" d="M 362.40625 102.632812 C 362.40625 103.019531 362.332031 103.386719 362.1875 103.742188 C 362.039062 104.097656 361.832031 104.410156 361.558594 104.683594 C 361.289062 104.953125 360.976562 105.164062 360.621094 105.3125 C 360.265625 105.457031 359.898438 105.53125 359.511719 105.53125 C 359.128906 105.53125 358.761719 105.457031 358.40625 105.3125 C 358.050781 105.164062 357.738281 104.953125 357.464844 104.683594 C 357.195312 104.410156 356.984375 104.097656 356.839844 103.742188 C 356.691406 103.386719 356.617188 103.019531 356.617188 102.632812 C 356.617188 102.25 356.691406 101.878906 356.839844 101.523438 C 356.984375 101.167969 357.195312 100.855469 357.464844 100.585938 C 357.738281 100.3125 358.050781 100.101562 358.40625 99.957031 C 358.761719 99.808594 359.128906 99.734375 359.511719 99.734375 C 359.898438 99.734375 360.265625 99.808594 360.621094 99.957031 C 360.976562 100.101562 361.289062 100.3125 361.558594 100.585938 C 361.832031 100.855469 362.039062 101.167969 362.1875 101.523438 C 362.332031 101.878906 362.40625 102.25 362.40625 102.632812 Z M 362.40625 102.632812 " fill-opacity="1" fill-rule="nonzero"/><path fill="rgb(79.219055%, 79.219055%, 79.219055%)" d="M 377.308594 150.84375 L 341.757812 150.84375 C 341.480469 150.84375 341.214844 150.898438 340.957031 151.003906 C 340.703125 151.109375 340.476562 151.261719 340.277344 151.457031 C 340.082031 151.65625 339.929688 151.882812 339.824219 152.140625 C 339.71875 152.394531 339.664062 152.664062 339.664062 152.941406 L 339.664062 175.105469 C 339.664062 175.382812 339.71875 175.648438 339.824219 175.90625 C 339.929688 176.164062 340.082031 176.390625 340.277344 176.585938 C 340.476562 176.785156 340.703125 176.9375 340.957031 177.042969 C 341.214844 177.148438 341.480469 177.203125 341.757812 177.203125 L 377.308594 177.203125 C 377.585938 177.203125 377.851562 177.148438 378.109375 177.042969 C 378.367188 176.9375 378.59375 176.785156 378.789062 176.585938 C 378.984375 176.390625 379.136719 176.164062 379.242188 175.90625 C 379.347656 175.648438 379.402344 175.382812 379.402344 175.105469 L 379.402344 152.941406 C 379.402344 152.664062 379.347656 152.394531 379.242188 152.140625 C 379.136719 151.882812 378.984375 151.65625 378.789062 151.457031 C 378.59375 151.261719 378.367188 151.109375 378.109375 151.003906 C 377.851562 150.898438 377.585938 150.84375 377.308594 150.84375 Z M 377.996094 166.765625 C 377.992188 167.324219 377.9375 167.875 377.828125 168.425781 C 377.71875 168.972656 377.558594 169.503906 377.34375 170.019531 C 377.132812 170.535156 376.871094 171.027344 376.5625 171.492188 C 376.253906 171.960938 375.90625 172.390625 375.511719 172.789062 C 375.121094 173.1875 374.695312 173.542969 374.234375 173.859375 C 373.773438 174.171875 373.285156 174.441406 372.773438 174.660156 C 372.257812 174.878906 371.730469 175.046875 371.183594 175.164062 C 370.636719 175.28125 370.085938 175.34375 369.527344 175.355469 C 365.921875 175.402344 371.523438 175.417969 367.175781 175.417969 C 357.226562 175.417969 346.851562 175.324219 342.984375 175.261719 C 342.726562 175.257812 342.484375 175.203125 342.25 175.101562 C 342.015625 175 341.808594 174.859375 341.632812 174.679688 C 341.453125 174.496094 341.316406 174.289062 341.21875 174.050781 C 341.121094 173.816406 341.074219 173.570312 341.070312 173.316406 L 341.070312 152.941406 C 341.070312 152.753906 341.140625 152.589844 341.273438 152.457031 C 341.40625 152.320312 341.570312 152.253906 341.757812 152.253906 L 377.304688 152.253906 C 377.496094 152.253906 377.65625 152.320312 377.792969 152.453125 C 377.925781 152.589844 377.996094 152.75 377.996094 152.941406 Z M 377.996094 166.765625 " fill-opacity="1" fill-rule="nonzero"/><path fill="rgb(79.219055%, 79.219055%, 79.219055%)" d="M 372.617188 164.988281 L 345.535156 164.988281 C 345.289062 164.988281 345.066406 164.917969 344.863281 164.777344 C 344.664062 164.632812 344.523438 164.449219 344.441406 164.214844 L 340.257812 152.464844 C 340.195312 152.285156 340.175781 152.105469 340.199219 151.917969 C 340.226562 151.730469 340.292969 151.558594 340.402344 151.402344 C 340.511719 151.25 340.648438 151.128906 340.816406 151.042969 C 340.984375 150.953125 341.160156 150.910156 341.347656 150.910156 L 377.671875 150.847656 L 377.675781 150.847656 C 377.871094 150.847656 378.054688 150.890625 378.226562 150.984375 C 378.398438 151.078125 378.539062 151.207031 378.644531 151.367188 C 378.753906 151.53125 378.816406 151.710938 378.832031 151.90625 C 378.851562 152.101562 378.820312 152.289062 378.742188 152.46875 L 378.679688 152.441406 L 378.742188 152.46875 L 373.6875 164.285156 C 373.59375 164.496094 373.453125 164.667969 373.257812 164.796875 C 373.0625 164.925781 372.851562 164.988281 372.617188 164.988281 Z M 372.617188 164.988281 " fill-opacity="1" fill-rule="nonzero"/><path fill="rgb(24.708557%, 23.919678%, 33.729553%)" d="M 362.40625 164.988281 C 362.40625 165.375 362.332031 165.742188 362.1875 166.097656 C 362.039062 166.453125 361.832031 166.765625 361.558594 167.039062 C 361.289062 167.308594 360.976562 167.519531 360.621094 167.667969 C 360.265625 167.8125 359.898438 167.886719 359.511719 167.886719 C 359.128906 167.886719 358.761719 167.8125 358.40625 167.667969 C 358.050781 167.519531 357.738281 167.308594 357.464844 167.039062 C 357.195312 166.765625 356.984375 166.453125 356.839844 166.097656 C 356.691406 165.742188 356.617188 165.375 356.617188 164.988281 C 356.617188 164.605469 356.691406 164.234375 356.839844 163.878906 C 356.984375 163.523438 357.195312 163.210938 357.464844 162.941406 C 357.738281 162.667969 358.050781 162.457031 358.40625 162.3125 C 358.761719 162.164062 359.128906 162.089844 359.511719 162.089844 C 359.898438 162.089844 360.265625 162.164062 360.621094 162.3125 C 360.976562 162.457031 361.289062 162.667969 361.558594 162.941406 C 361.832031 163.210938 362.039062 163.523438 362.1875 163.878906 C 362.332031 164.234375 362.40625 164.605469 362.40625 164.988281 Z M 362.40625 164.988281 " fill-opacity="1" fill-rule="nonzero"/><path fill="rgb(79.219055%, 79.219055%, 79.219055%)" d="M 377.308594 213.199219 L 341.757812 213.199219 C 341.480469 213.199219 341.214844 213.253906 340.957031 213.359375 C 340.703125 213.464844 340.476562 213.617188 340.277344 213.8125 C 340.082031 214.011719 339.929688 214.238281 339.824219 214.496094 C 339.71875 214.75 339.664062 215.019531 339.664062 215.296875 L 339.664062 237.460938 C 339.664062 237.738281 339.71875 238.003906 339.824219 238.261719 C 339.929688 238.519531 340.082031 238.746094 340.277344 238.941406 C 340.476562 239.140625 340.703125 239.292969 340.957031 239.398438 C 341.214844 239.503906 341.480469 239.558594 341.757812 239.558594 L 377.308594 239.558594 C 377.585938 239.558594 377.851562 239.503906 378.109375 239.398438 C 378.367188 239.292969 378.59375 239.140625 378.789062 238.941406 C 378.984375 238.746094 379.136719 238.519531 379.242188 238.261719 C 379.347656 238.007812 379.402344 237.738281 379.402344 237.460938 L 379.402344 215.296875 C 379.402344 215.019531 379.347656 214.75 379.242188 214.496094 C 379.136719 214.238281 378.984375 214.011719 378.789062 213.8125 C 378.59375 213.617188 378.367188 213.464844 378.109375 213.359375 C 377.851562 213.253906 377.585938 213.199219 377.308594 213.199219 Z M 377.996094 229.121094 C 377.992188 229.679688 377.9375 230.230469 377.828125 230.78125 C 377.71875 231.328125 377.558594 231.859375 377.34375 232.375 C 377.132812 232.890625 376.871094 233.382812 376.5625 233.847656 C 376.253906 234.316406 375.90625 234.746094 375.511719 235.144531 C 375.121094 235.542969 374.695312 235.898438 374.234375 236.214844 C 373.773438 236.527344 373.285156 236.796875 372.773438 237.015625 C 372.257812 237.234375 371.730469 237.402344 371.183594 237.519531 C 370.636719 237.636719 370.085938 237.699219 369.527344 237.710938 C 365.921875 237.757812 371.523438 237.773438 367.175781 237.773438 C 357.226562 237.773438 346.851562 237.679688 342.984375 237.617188 C 342.726562 237.613281 342.484375 237.558594 342.25 237.457031 C 342.015625 237.355469 341.808594 237.214844 341.632812 237.035156 C 341.453125 236.851562 341.316406 236.644531 341.21875 236.40625 C 341.121094 236.171875 341.074219 235.925781 341.070312 235.671875 L 341.070312 215.296875 C 341.070312 215.109375 341.140625 214.945312 341.273438 214.8125 C 341.40625 214.675781 341.570312 214.609375 341.757812 214.609375 L 377.304688 214.609375 C 377.496094 214.609375 377.65625 214.675781 377.792969 214.808594 C 377.925781 214.945312 377.996094 215.105469 377.996094 215.296875 Z M 377.996094 229.121094 " fill-opacity="1" fill-rule="nonzero"/><path fill="rgb(79.219055%, 79.219055%, 79.219055%)" d="M 372.617188 227.34375 L 345.535156 227.34375 C 345.289062 227.34375 345.066406 227.273438 344.863281 227.132812 C 344.664062 226.988281 344.523438 226.804688 344.441406 226.570312 L 340.257812 214.820312 C 340.195312 214.640625 340.175781 214.460938 340.199219 214.273438 C 340.226562 214.085938 340.292969 213.914062 340.402344 213.757812 C 340.511719 213.605469 340.648438 213.484375 340.816406 213.398438 C 340.984375 213.308594 341.160156 213.265625 341.347656 213.265625 L 377.671875 213.203125 L 377.675781 213.203125 C 377.871094 213.203125 378.054688 213.246094 378.226562 213.339844 C 378.398438 213.433594 378.539062 213.5625 378.644531 213.722656 C 378.753906 213.886719 378.816406 214.066406 378.832031 214.261719 C 378.851562 214.457031 378.820312 214.644531 378.742188 214.824219 L 378.679688 214.796875 L 378.742188 214.824219 L 373.6875 226.640625 C 373.59375 226.855469 373.453125 227.023438 373.257812 227.152344 C 373.0625 227.28125 372.851562 227.34375 372.617188 227.34375 Z M 372.617188 227.34375 " fill-opacity="1" fill-rule="nonzero"/><path fill="rgb(24.708557%, 23.919678%, 33.729553%)" d="M 362.40625 227.34375 C 362.40625 227.730469 362.332031 228.097656 362.1875 228.453125 C 362.039062 228.808594 361.832031 229.121094 361.558594 229.394531 C 361.289062 229.664062 360.976562 229.875 360.621094 230.023438 C 360.265625 230.167969 359.898438 230.242188 359.511719 230.242188 C 359.128906 230.242188 358.761719 230.167969 358.40625 230.023438 C 358.050781 229.875 357.738281 229.664062 357.464844 229.394531 C 357.195312 229.121094 356.984375 228.808594 356.839844 228.453125 C 356.691406 228.097656 356.617188 227.730469 356.617188 227.34375 C 356.617188 226.960938 356.691406 226.589844 356.839844 226.234375 C 356.984375 225.878906 357.195312 225.566406 357.464844 225.296875 C 357.738281 225.023438 358.050781 224.8125 358.40625 224.667969 C 358.761719 224.519531 359.128906 224.445312 359.511719 224.445312 C 359.898438 224.445312 360.265625 224.519531 360.621094 224.667969 C 360.976562 224.8125 361.289062 225.023438 361.558594 225.296875 C 361.832031 225.566406 362.039062 225.878906 362.1875 226.234375 C 362.332031 226.589844 362.40625 226.960938 362.40625 227.34375 Z M 362.40625 227.34375 " fill-opacity="1" fill-rule="nonzero"/><path fill="rgb(100%, 71.369934%, 71.369934%)" d="M 300.394531 199.4375 C 300.015625 199.445312 299.644531 199.414062 299.269531 199.347656 C 298.898438 199.28125 298.535156 199.175781 298.183594 199.039062 C 297.832031 198.902344 297.496094 198.730469 297.179688 198.527344 C 296.859375 198.324219 296.5625 198.089844 296.289062 197.828125 C 296.015625 197.566406 295.769531 197.28125 295.554688 196.972656 C 295.335938 196.664062 295.148438 196.335938 294.996094 195.992188 C 294.839844 195.644531 294.722656 195.289062 294.636719 194.921875 C 294.550781 194.550781 294.503906 194.179688 294.492188 193.800781 C 294.480469 193.460938 294.5 193.125 294.550781 192.789062 L 276.472656 183.136719 L 285.742188 178.097656 L 301.484375 188.039062 C 301.855469 188.125 302.214844 188.242188 302.5625 188.398438 C 302.910156 188.550781 303.238281 188.738281 303.550781 188.957031 C 303.859375 189.175781 304.148438 189.421875 304.410156 189.699219 C 304.671875 189.972656 304.90625 190.269531 305.109375 190.589844 C 305.316406 190.910156 305.488281 191.25 305.625 191.601562 C 305.765625 191.957031 305.867188 192.320312 305.9375 192.695312 C 306.003906 193.070312 306.035156 193.445312 306.03125 193.828125 C 306.023438 194.207031 305.980469 194.582031 305.902344 194.957031 C 305.765625 195.585938 305.527344 196.175781 305.191406 196.726562 C 304.851562 197.277344 304.433594 197.757812 303.933594 198.164062 C 303.433594 198.570312 302.878906 198.882812 302.273438 199.101562 C 301.667969 199.320312 301.039062 199.433594 300.394531 199.4375 Z M 300.394531 199.4375 " fill-opacity="1" fill-rule="nonzero"/><path fill="rgb(90.19928%, 90.589905%, 90.979004%)" d="M 292.378906 192.5 L 262.167969 180.691406 L 257.367188 156.449219 L 259.152344 142.507812 C 259.273438 141.5625 259.484375 140.640625 259.792969 139.738281 C 260.097656 138.832031 260.488281 137.96875 260.96875 137.144531 C 261.449219 136.324219 262.003906 135.554688 262.636719 134.84375 C 263.269531 134.128906 263.964844 133.488281 264.726562 132.914062 C 265.488281 132.34375 266.296875 131.851562 267.15625 131.441406 C 268.015625 131.03125 268.910156 130.710938 269.832031 130.480469 C 270.757812 130.25 271.691406 130.113281 272.644531 130.070312 C 273.59375 130.027344 274.539062 130.082031 275.480469 130.226562 L 275.582031 130.242188 L 275.640625 130.328125 C 275.871094 130.671875 281.199219 138.914062 274.027344 159.375 L 274.292969 172.375 L 298.050781 183.480469 Z M 292.378906 192.5 " fill-opacity="1" fill-rule="nonzero"/></svg>