<?xml version="1.0" encoding="UTF-8"?><svg xmlns="http://www.w3.org/2000/svg" xmlns:xlink="http://www.w3.org/1999/xlink" width="600" zoomAndPan="magnify" viewBox="0 0 600 374.999991" height="374.999991" preserveAspectRatio="xMidYMid meet" version="1.0"><defs><clipPath id="clip-0"><path d="M 365 88.945312 L 399 88.945312 L 399 122 L 365 122 Z M 365 88.945312 " clip-rule="nonzero"/></clipPath><clipPath id="clip-1"><path d="M 174 142 L 329 142 L 329 337.195312 L 174 337.195312 Z M 174 142 " clip-rule="nonzero"/></clipPath><clipPath id="clip-2"><path d="M 344 324 L 363 324 L 363 337.195312 L 344 337.195312 Z M 344 324 " clip-rule="nonzero"/></clipPath><clipPath id="clip-3"><path d="M 412 319 L 431 319 L 431 337.195312 L 412 337.195312 Z M 412 319 " clip-rule="nonzero"/></clipPath><clipPath id="clip-4"><path d="M 128 335 L 472.152344 335 L 472.152344 337.195312 L 128 337.195312 Z M 128 335 " clip-rule="nonzero"/></clipPath></defs><g clip-path="url(#clip-0)"><path fill="rgb(18.429565%, 18.03894%, 25.489807%)" d="M 398.386719 111.28125 C 397.515625 104.917969 396.425781 98.085938 391.933594 93.492188 C 391.578125 93.128906 391.203125 92.78125 390.8125 92.457031 C 390.421875 92.132812 390.015625 91.824219 389.59375 91.542969 C 389.171875 91.257812 388.738281 90.992188 388.289062 90.753906 C 387.84375 90.511719 387.382812 90.292969 386.914062 90.097656 C 386.445312 89.902344 385.964844 89.734375 385.476562 89.585938 C 384.992188 89.441406 384.496094 89.316406 383.996094 89.222656 C 383.496094 89.125 382.996094 89.054688 382.488281 89.007812 C 381.980469 88.960938 381.472656 88.941406 380.964844 88.945312 C 380.457031 88.953125 379.949219 88.984375 379.441406 89.039062 C 378.9375 89.09375 378.433594 89.175781 377.9375 89.285156 C 377.441406 89.390625 376.949219 89.523438 376.464844 89.679688 C 375.980469 89.835938 375.503906 90.015625 375.039062 90.222656 C 374.574219 90.425781 374.121094 90.652344 373.675781 90.902344 C 373.234375 91.152344 372.804688 91.425781 372.390625 91.71875 C 371.972656 92.011719 371.574219 92.328125 371.191406 92.660156 C 370.808594 92.992188 370.441406 93.347656 370.09375 93.71875 C 366.820312 97.203125 365.375 102.097656 365.242188 106.875 C 365.113281 111.648438 366.175781 116.371094 367.359375 121.003906 C 373.683594 121.128906 379.75 119.9375 385.558594 117.425781 C 386.964844 116.738281 388.421875 116.167969 389.921875 115.714844 C 391.4375 115.328125 392.519531 116.296875 393.929688 116.976562 L 394.703125 115.496094 C 395.335938 116.671875 397.300781 116.324219 398.011719 115.191406 C 398.722656 114.058594 398.566406 112.609375 398.386719 111.28125 Z M 398.386719 111.28125 " fill-opacity="1" fill-rule="nonzero"/></g><path fill="rgb(100%, 72.158813%, 72.158813%)" d="M 372.269531 138.15625 L 374.078125 128.917969 L 360.503906 123.050781 L 336.234375 111.4375 C 336.179688 111.082031 336.085938 110.730469 335.960938 110.390625 C 335.832031 110.054688 335.675781 109.730469 335.484375 109.421875 C 335.289062 109.117188 335.070312 108.832031 334.820312 108.566406 C 334.570312 108.304688 334.296875 108.070312 334 107.863281 C 333.703125 107.652344 333.390625 107.476562 333.058594 107.332031 C 332.726562 107.1875 332.382812 107.078125 332.027344 107.003906 C 331.671875 106.929688 331.3125 106.890625 330.953125 106.886719 C 330.589844 106.882812 330.230469 106.917969 329.875 106.984375 C 329.519531 107.054688 329.171875 107.160156 328.839844 107.296875 C 328.503906 107.4375 328.1875 107.605469 327.886719 107.808594 C 327.585938 108.011719 327.308594 108.242188 327.054688 108.5 C 326.800781 108.761719 326.574219 109.042969 326.378906 109.34375 C 326.179688 109.648438 326.015625 109.96875 325.882812 110.304688 C 325.753906 110.644531 325.65625 110.988281 325.59375 111.347656 C 325.53125 111.703125 325.503906 112.0625 325.515625 112.425781 C 325.523438 112.785156 325.570312 113.144531 325.652344 113.496094 C 325.734375 113.847656 325.851562 114.1875 326.003906 114.519531 C 326.15625 114.847656 326.335938 115.15625 326.550781 115.449219 C 326.765625 115.742188 327.007812 116.011719 327.273438 116.253906 C 327.542969 116.496094 327.832031 116.710938 328.144531 116.898438 C 328.453125 117.082031 328.78125 117.234375 329.125 117.355469 C 329.464844 117.476562 329.816406 117.558594 330.175781 117.609375 C 330.535156 117.65625 330.894531 117.671875 331.257812 117.644531 C 331.617188 117.621094 331.972656 117.5625 332.324219 117.46875 L 355.433594 131.710938 Z M 372.269531 138.15625 " fill-opacity="1" fill-rule="nonzero"/><path fill="rgb(7.449341%, 38.819885%, 93.728638%)" d="M 363.15625 136.59375 L 372.988281 126.554688 L 373.183594 126.613281 C 373.304688 126.652344 385.519531 130.371094 393.308594 134.148438 C 394.199219 134.546875 394.964844 135.117188 395.605469 135.851562 C 396.246094 136.589844 396.699219 137.425781 396.96875 138.363281 C 397.164062 139.011719 397.257812 139.675781 397.257812 140.351562 C 397.257812 141.027344 397.164062 141.691406 396.96875 142.339844 C 396.773438 142.988281 396.492188 143.59375 396.121094 144.160156 C 395.75 144.726562 395.304688 145.226562 394.785156 145.664062 C 394.253906 146.140625 393.664062 146.53125 393.019531 146.839844 C 392.375 147.144531 391.699219 147.355469 390.992188 147.464844 C 390.289062 147.578125 389.578125 147.589844 388.871094 147.496094 C 388.164062 147.40625 387.480469 147.21875 386.828125 146.929688 Z M 363.15625 136.59375 " fill-opacity="1" fill-rule="nonzero"/><path fill="rgb(100%, 72.158813%, 72.158813%)" d="M 363.125 180.722656 L 390.773438 188.101562 L 396.355469 162.015625 L 370.980469 154.171875 Z M 363.125 180.722656 " fill-opacity="1" fill-rule="nonzero"/><path fill="rgb(7.449341%, 38.819885%, 93.728638%)" d="M 393.867188 173.644531 L 366.859375 167.441406 L 361.6875 154.921875 C 361.476562 154.027344 361.398438 153.125 361.445312 152.207031 C 361.496094 151.289062 361.675781 150.398438 361.980469 149.535156 C 362.289062 148.667969 362.710938 147.863281 363.25 147.121094 C 363.785156 146.375 364.417969 145.722656 365.144531 145.160156 L 375.015625 136.839844 L 380.304688 130.09375 L 379.726562 126.515625 C 379.675781 126.160156 379.6875 125.804688 379.761719 125.449219 C 379.832031 125.09375 379.964844 124.765625 380.152344 124.457031 C 380.339844 124.148438 380.578125 123.882812 380.859375 123.65625 C 381.140625 123.429688 381.453125 123.257812 381.796875 123.140625 L 388.847656 120.617188 C 389.234375 120.472656 389.640625 120.402344 390.054688 120.410156 C 390.472656 120.417969 390.871094 120.5 391.253906 120.660156 C 391.640625 120.820312 391.980469 121.046875 392.277344 121.335938 C 392.578125 121.625 392.8125 121.957031 392.984375 122.335938 L 393.730469 124.0625 C 393.730469 124.0625 396.917969 125.5625 398.71875 126.402344 C 399.652344 126.828125 400.460938 127.425781 401.140625 128.195312 C 401.820312 128.964844 402.3125 129.839844 402.617188 130.820312 C 403.300781 133.019531 403.769531 135.261719 404.027344 137.550781 C 404.28125 139.839844 404.324219 142.132812 404.144531 144.429688 C 403.96875 146.722656 403.574219 148.984375 402.972656 151.203125 C 402.367188 153.425781 401.558594 155.574219 400.546875 157.640625 Z M 393.867188 173.644531 " fill-opacity="1" fill-rule="nonzero"/><path fill="rgb(94.898987%, 94.898987%, 94.898987%)" d="M 153.667969 306.53125 L 140.605469 303.042969 C 139.648438 299.628906 139.113281 296.148438 139.003906 292.605469 C 138.894531 289.0625 139.210938 285.558594 139.957031 282.09375 C 145.65625 293.339844 160.957031 295.460938 170.023438 304.230469 C 171.425781 305.609375 172.65625 307.128906 173.71875 308.78125 C 174.78125 310.4375 175.644531 312.191406 176.308594 314.039062 C 176.976562 315.890625 177.429688 317.789062 177.664062 319.742188 C 177.902344 321.691406 177.921875 323.644531 177.71875 325.601562 L 180.847656 334.652344 C 177.671875 334.527344 174.546875 334.0625 171.472656 333.261719 C 168.398438 332.460938 165.445312 331.335938 162.617188 329.894531 C 159.785156 328.453125 157.140625 326.726562 154.6875 324.714844 C 152.230469 322.699219 150.019531 320.445312 148.054688 317.953125 C 145.867188 315.125 144.066406 312.070312 142.652344 308.785156 C 148.117188 307.984375 153.667969 306.53125 153.667969 306.53125 Z M 153.667969 306.53125 " fill-opacity="1" fill-rule="nonzero"/><g clip-path="url(#clip-1)"><path fill="rgb(90.19928%, 90.19928%, 90.19928%)" d="M 315.910156 337.195312 L 187.914062 337.195312 C 187.066406 337.195312 186.222656 337.109375 185.390625 336.945312 C 184.558594 336.777344 183.75 336.53125 182.964844 336.207031 C 182.179688 335.882812 181.4375 335.484375 180.730469 335.011719 C 180.023438 334.542969 179.371094 334.007812 178.769531 333.40625 C 178.167969 332.808594 177.632812 332.15625 177.160156 331.449219 C 176.6875 330.746094 176.289062 330 175.964844 329.214844 C 175.640625 328.433594 175.394531 327.625 175.226562 326.792969 C 175.0625 325.960938 174.976562 325.121094 174.976562 324.273438 L 174.976562 155.019531 C 174.976562 154.171875 175.0625 153.332031 175.226562 152.5 C 175.394531 151.667969 175.640625 150.863281 175.964844 150.078125 C 176.289062 149.292969 176.6875 148.550781 177.160156 147.84375 C 177.632812 147.140625 178.167969 146.488281 178.769531 145.886719 C 179.371094 145.289062 180.023438 144.753906 180.730469 144.28125 C 181.4375 143.808594 182.179688 143.410156 182.964844 143.085938 C 183.75 142.761719 184.558594 142.515625 185.390625 142.351562 C 186.222656 142.183594 187.066406 142.101562 187.914062 142.097656 L 315.910156 142.097656 C 316.761719 142.101562 317.601562 142.183594 318.433594 142.351562 C 319.265625 142.515625 320.074219 142.761719 320.859375 143.085938 C 321.644531 143.410156 322.390625 143.808594 323.097656 144.28125 C 323.800781 144.753906 324.457031 145.289062 325.054688 145.886719 C 325.65625 146.488281 326.191406 147.140625 326.664062 147.84375 C 327.136719 148.550781 327.535156 149.292969 327.859375 150.078125 C 328.1875 150.863281 328.433594 151.667969 328.597656 152.5 C 328.765625 153.332031 328.847656 154.171875 328.851562 155.019531 L 328.851562 324.273438 C 328.847656 325.121094 328.765625 325.960938 328.597656 326.792969 C 328.433594 327.625 328.1875 328.433594 327.859375 329.21875 C 327.535156 330 327.136719 330.746094 326.664062 331.449219 C 326.191406 332.15625 325.65625 332.808594 325.054688 333.40625 C 324.457031 334.007812 323.800781 334.542969 323.097656 335.011719 C 322.390625 335.484375 321.644531 335.882812 320.859375 336.207031 C 320.074219 336.53125 319.265625 336.777344 318.433594 336.945312 C 317.601562 337.109375 316.761719 337.195312 315.910156 337.195312 Z M 315.910156 337.195312 " fill-opacity="1" fill-rule="nonzero"/></g><path fill="rgb(100%, 100%, 100%)" d="M 267.058594 326.71875 L 196.910156 326.71875 C 196.136719 326.71875 195.371094 326.640625 194.613281 326.492188 C 193.855469 326.339844 193.121094 326.117188 192.40625 325.820312 C 191.691406 325.523438 191.011719 325.160156 190.371094 324.730469 C 189.726562 324.304688 189.132812 323.816406 188.585938 323.269531 C 188.039062 322.722656 187.550781 322.128906 187.121094 321.488281 C 186.691406 320.84375 186.328125 320.167969 186.03125 319.453125 C 185.734375 318.742188 185.511719 318.003906 185.359375 317.25 C 185.207031 316.492188 185.132812 315.726562 185.132812 314.953125 L 185.132812 164.339844 C 185.132812 163.570312 185.207031 162.804688 185.359375 162.046875 C 185.511719 161.289062 185.734375 160.554688 186.03125 159.839844 C 186.328125 159.128906 186.691406 158.449219 187.121094 157.808594 C 187.550781 157.164062 188.039062 156.570312 188.585938 156.027344 C 189.132812 155.480469 189.726562 154.992188 190.371094 154.5625 C 191.011719 154.132812 191.691406 153.769531 192.40625 153.476562 C 193.121094 153.179688 193.855469 152.957031 194.613281 152.804688 C 195.371094 152.652344 196.136719 152.578125 196.910156 152.574219 L 306.914062 152.574219 C 307.6875 152.578125 308.453125 152.652344 309.210938 152.804688 C 309.96875 152.957031 310.707031 153.179688 311.421875 153.476562 C 312.132812 153.769531 312.8125 154.132812 313.457031 154.5625 C 314.097656 154.992188 314.695312 155.480469 315.242188 156.027344 C 315.789062 156.570312 316.277344 157.164062 316.707031 157.808594 C 317.136719 158.449219 317.5 159.128906 317.792969 159.839844 C 318.089844 160.554688 318.316406 161.289062 318.464844 162.046875 C 318.617188 162.804688 318.695312 163.570312 318.695312 164.339844 L 318.695312 275.152344 C 318.691406 276.839844 318.609375 278.523438 318.441406 280.203125 C 318.273438 281.886719 318.023438 283.554688 317.691406 285.207031 C 317.363281 286.863281 316.949219 288.5 316.457031 290.113281 C 315.964844 291.730469 315.398438 293.316406 314.75 294.878906 C 314.101562 296.4375 313.378906 297.960938 312.582031 299.449219 C 311.78125 300.9375 310.914062 302.382812 309.976562 303.789062 C 309.035156 305.191406 308.027344 306.546875 306.957031 307.851562 C 305.882812 309.15625 304.75 310.40625 303.554688 311.597656 C 302.359375 312.792969 301.109375 313.925781 299.800781 314.996094 C 298.492188 316.066406 297.136719 317.070312 295.734375 318.011719 C 294.328125 318.949219 292.878906 319.816406 291.386719 320.613281 C 289.898438 321.410156 288.371094 322.132812 286.808594 322.777344 C 285.25 323.425781 283.660156 323.996094 282.042969 324.484375 C 280.425781 324.976562 278.785156 325.386719 277.128906 325.71875 C 275.46875 326.050781 273.800781 326.296875 272.117188 326.464844 C 270.4375 326.632812 268.75 326.71875 267.058594 326.71875 Z M 267.058594 326.71875 " fill-opacity="1" fill-rule="nonzero"/><path fill="rgb(7.449341%, 38.819885%, 93.728638%)" d="M 295.941406 181.492188 L 207.886719 181.492188 C 207.503906 181.492188 207.136719 181.417969 206.785156 181.273438 C 206.433594 181.128906 206.125 180.921875 205.855469 180.652344 C 205.582031 180.386719 205.375 180.074219 205.230469 179.722656 C 205.082031 179.371094 205.011719 179.007812 205.011719 178.625 C 205.007812 178.246094 205.082031 177.878906 205.226562 177.527344 C 205.371094 177.175781 205.578125 176.867188 205.847656 176.597656 C 206.117188 176.328125 206.425781 176.121094 206.78125 175.976562 C 207.132812 175.828125 207.496094 175.753906 207.878906 175.753906 L 295.941406 175.753906 C 296.320312 175.753906 296.6875 175.828125 297.039062 175.972656 C 297.390625 176.117188 297.703125 176.324219 297.972656 176.59375 C 298.242188 176.859375 298.449219 177.171875 298.597656 177.523438 C 298.742188 177.875 298.816406 178.238281 298.816406 178.621094 C 298.816406 179 298.742188 179.367188 298.597656 179.71875 C 298.453125 180.070312 298.246094 180.378906 297.976562 180.648438 C 297.707031 180.917969 297.398438 181.125 297.046875 181.269531 C 296.695312 181.417969 296.328125 181.492188 295.949219 181.492188 Z M 295.941406 181.492188 " fill-opacity="1" fill-rule="nonzero"/><path fill="rgb(7.449341%, 38.819885%, 93.728638%)" d="M 295.941406 192.824219 L 207.886719 192.824219 C 207.503906 192.824219 207.136719 192.75 206.785156 192.605469 C 206.433594 192.460938 206.125 192.253906 205.855469 191.984375 C 205.585938 191.714844 205.378906 191.40625 205.230469 191.054688 C 205.085938 190.703125 205.011719 190.335938 205.011719 189.957031 C 205.011719 189.574219 205.085938 189.210938 205.230469 188.859375 C 205.378906 188.507812 205.585938 188.195312 205.855469 187.925781 C 206.125 187.660156 206.433594 187.453125 206.785156 187.304688 C 207.136719 187.160156 207.503906 187.085938 207.886719 187.085938 L 295.941406 187.085938 C 296.320312 187.085938 296.6875 187.160156 297.039062 187.304688 C 297.390625 187.453125 297.703125 187.660156 297.972656 187.925781 C 298.242188 188.195312 298.449219 188.507812 298.59375 188.859375 C 298.738281 189.210938 298.8125 189.574219 298.8125 189.957031 C 298.8125 190.335938 298.738281 190.703125 298.59375 191.054688 C 298.449219 191.40625 298.242188 191.714844 297.972656 191.984375 C 297.703125 192.253906 297.390625 192.460938 297.039062 192.605469 C 296.6875 192.75 296.320312 192.824219 295.941406 192.824219 Z M 295.941406 192.824219 " fill-opacity="1" fill-rule="nonzero"/><path fill="rgb(7.449341%, 38.819885%, 93.728638%)" d="M 246.054688 204.15625 L 207.886719 204.15625 C 207.503906 204.15625 207.136719 204.082031 206.785156 203.9375 C 206.433594 203.792969 206.125 203.585938 205.855469 203.316406 C 205.585938 203.046875 205.378906 202.738281 205.230469 202.386719 C 205.085938 202.035156 205.011719 201.667969 205.011719 201.289062 C 205.011719 200.90625 205.085938 200.542969 205.230469 200.191406 C 205.378906 199.839844 205.585938 199.527344 205.855469 199.261719 C 206.125 198.992188 206.433594 198.785156 206.785156 198.636719 C 207.136719 198.492188 207.503906 198.421875 207.886719 198.421875 L 246.054688 198.421875 C 246.4375 198.421875 246.800781 198.492188 247.152344 198.636719 C 247.507812 198.785156 247.816406 198.992188 248.085938 199.261719 C 248.355469 199.527344 248.5625 199.839844 248.707031 200.191406 C 248.855469 200.542969 248.925781 200.90625 248.925781 201.289062 C 248.925781 201.667969 248.855469 202.035156 248.707031 202.386719 C 248.5625 202.738281 248.355469 203.046875 248.085938 203.316406 C 247.816406 203.585938 247.507812 203.792969 247.152344 203.9375 C 246.800781 204.082031 246.4375 204.15625 246.054688 204.15625 Z M 246.054688 204.15625 " fill-opacity="1" fill-rule="nonzero"/><path fill="rgb(89.408875%, 89.408875%, 89.408875%)" d="M 295.941406 227.890625 L 207.886719 227.890625 C 207.503906 227.890625 207.136719 227.820312 206.785156 227.671875 C 206.433594 227.527344 206.125 227.320312 205.855469 227.054688 C 205.582031 226.785156 205.375 226.476562 205.230469 226.125 C 205.082031 225.773438 205.011719 225.40625 205.011719 225.027344 C 205.007812 224.644531 205.082031 224.28125 205.226562 223.929688 C 205.371094 223.578125 205.578125 223.265625 205.847656 222.996094 C 206.117188 222.726562 206.425781 222.519531 206.78125 222.375 C 207.132812 222.230469 207.496094 222.15625 207.878906 222.15625 L 295.941406 222.15625 C 296.320312 222.15625 296.6875 222.226562 297.039062 222.371094 C 297.390625 222.515625 297.703125 222.722656 297.972656 222.992188 C 298.242188 223.261719 298.449219 223.570312 298.597656 223.921875 C 298.742188 224.273438 298.816406 224.640625 298.816406 225.019531 C 298.816406 225.398438 298.742188 225.765625 298.597656 226.117188 C 298.453125 226.46875 298.246094 226.777344 297.976562 227.046875 C 297.707031 227.316406 297.398438 227.523438 297.046875 227.671875 C 296.695312 227.816406 296.328125 227.890625 295.949219 227.890625 Z M 295.941406 227.890625 " fill-opacity="1" fill-rule="nonzero"/><path fill="rgb(89.408875%, 89.408875%, 89.408875%)" d="M 295.941406 239.222656 L 207.886719 239.222656 C 207.503906 239.222656 207.136719 239.148438 206.785156 239.003906 C 206.433594 238.859375 206.125 238.652344 205.855469 238.382812 C 205.585938 238.113281 205.378906 237.804688 205.230469 237.453125 C 205.085938 237.101562 205.011719 236.734375 205.011719 236.355469 C 205.011719 235.976562 205.085938 235.609375 205.230469 235.257812 C 205.378906 234.90625 205.585938 234.597656 205.855469 234.328125 C 206.125 234.058594 206.433594 233.851562 206.785156 233.707031 C 207.136719 233.558594 207.503906 233.488281 207.886719 233.488281 L 295.941406 233.488281 C 296.320312 233.488281 296.6875 233.558594 297.039062 233.707031 C 297.390625 233.851562 297.703125 234.058594 297.972656 234.328125 C 298.242188 234.597656 298.449219 234.90625 298.59375 235.257812 C 298.738281 235.609375 298.8125 235.976562 298.8125 236.355469 C 298.8125 236.734375 298.738281 237.101562 298.59375 237.453125 C 298.449219 237.804688 298.242188 238.113281 297.972656 238.382812 C 297.703125 238.652344 297.390625 238.859375 297.039062 239.003906 C 296.6875 239.148438 296.320312 239.222656 295.941406 239.222656 Z M 295.941406 239.222656 " fill-opacity="1" fill-rule="nonzero"/><path fill="rgb(89.408875%, 89.408875%, 89.408875%)" d="M 246.054688 250.554688 L 207.886719 250.554688 C 207.503906 250.554688 207.136719 250.484375 206.785156 250.335938 C 206.433594 250.191406 206.125 249.984375 205.855469 249.714844 C 205.585938 249.445312 205.378906 249.136719 205.230469 248.785156 C 205.085938 248.433594 205.011719 248.066406 205.011719 247.6875 C 205.011719 247.308594 205.085938 246.941406 205.230469 246.589844 C 205.378906 246.238281 205.585938 245.929688 205.855469 245.660156 C 206.125 245.390625 206.433594 245.183594 206.785156 245.039062 C 207.136719 244.890625 207.503906 244.820312 207.886719 244.820312 L 246.054688 244.820312 C 246.4375 244.820312 246.800781 244.890625 247.152344 245.039062 C 247.507812 245.183594 247.816406 245.390625 248.085938 245.660156 C 248.355469 245.929688 248.5625 246.238281 248.707031 246.589844 C 248.855469 246.941406 248.925781 247.308594 248.925781 247.6875 C 248.925781 248.066406 248.855469 248.433594 248.707031 248.785156 C 248.5625 249.136719 248.355469 249.445312 248.085938 249.714844 C 247.816406 249.984375 247.507812 250.191406 247.152344 250.335938 C 246.800781 250.484375 246.4375 250.554688 246.054688 250.554688 Z M 246.054688 250.554688 " fill-opacity="1" fill-rule="nonzero"/><path fill="rgb(89.408875%, 89.408875%, 89.408875%)" d="M 295.941406 274.289062 L 207.886719 274.289062 C 207.503906 274.289062 207.136719 274.21875 206.785156 274.074219 C 206.433594 273.929688 206.125 273.722656 205.855469 273.453125 C 205.582031 273.183594 205.375 272.875 205.230469 272.523438 C 205.082031 272.171875 205.011719 271.804688 205.011719 271.425781 C 205.007812 271.046875 205.082031 270.679688 205.226562 270.328125 C 205.371094 269.976562 205.578125 269.667969 205.847656 269.398438 C 206.117188 269.128906 206.425781 268.921875 206.78125 268.773438 C 207.132812 268.628906 207.496094 268.554688 207.878906 268.554688 L 295.941406 268.554688 C 296.320312 268.554688 296.6875 268.625 297.039062 268.769531 C 297.390625 268.917969 297.703125 269.125 297.972656 269.390625 C 298.242188 269.660156 298.449219 269.96875 298.597656 270.320312 C 298.742188 270.671875 298.816406 271.039062 298.816406 271.417969 C 298.816406 271.800781 298.742188 272.164062 298.597656 272.515625 C 298.453125 272.867188 298.246094 273.179688 297.976562 273.449219 C 297.707031 273.71875 297.398438 273.925781 297.046875 274.070312 C 296.695312 274.214844 296.328125 274.289062 295.949219 274.289062 Z M 295.941406 274.289062 " fill-opacity="1" fill-rule="nonzero"/><path fill="rgb(89.408875%, 89.408875%, 89.408875%)" d="M 295.941406 285.621094 L 207.886719 285.621094 C 207.503906 285.621094 207.136719 285.550781 206.785156 285.40625 C 206.433594 285.257812 206.125 285.050781 205.855469 284.78125 C 205.585938 284.515625 205.378906 284.203125 205.230469 283.851562 C 205.085938 283.5 205.011719 283.136719 205.011719 282.753906 C 205.011719 282.375 205.085938 282.007812 205.230469 281.65625 C 205.378906 281.304688 205.585938 280.996094 205.855469 280.726562 C 206.125 280.457031 206.433594 280.25 206.785156 280.105469 C 207.136719 279.960938 207.503906 279.886719 207.886719 279.886719 L 295.941406 279.886719 C 296.320312 279.886719 296.6875 279.960938 297.039062 280.105469 C 297.390625 280.25 297.703125 280.457031 297.972656 280.726562 C 298.242188 280.996094 298.449219 281.304688 298.59375 281.65625 C 298.738281 282.007812 298.8125 282.375 298.8125 282.753906 C 298.8125 283.136719 298.738281 283.5 298.59375 283.851562 C 298.449219 284.203125 298.242188 284.515625 297.972656 284.78125 C 297.703125 285.050781 297.390625 285.257812 297.039062 285.40625 C 296.6875 285.550781 296.320312 285.621094 295.941406 285.621094 Z M 295.941406 285.621094 " fill-opacity="1" fill-rule="nonzero"/><path fill="rgb(89.408875%, 89.408875%, 89.408875%)" d="M 246.054688 296.957031 L 207.886719 296.957031 C 207.503906 296.957031 207.136719 296.882812 206.785156 296.738281 C 206.433594 296.589844 206.125 296.382812 205.855469 296.113281 C 205.585938 295.847656 205.378906 295.535156 205.230469 295.183594 C 205.085938 294.832031 205.011719 294.46875 205.011719 294.085938 C 205.011719 293.707031 205.085938 293.339844 205.230469 292.988281 C 205.378906 292.636719 205.585938 292.328125 205.855469 292.058594 C 206.125 291.789062 206.433594 291.582031 206.785156 291.4375 C 207.136719 291.292969 207.503906 291.21875 207.886719 291.21875 L 246.054688 291.21875 C 246.4375 291.21875 246.800781 291.292969 247.152344 291.4375 C 247.507812 291.582031 247.816406 291.789062 248.085938 292.058594 C 248.355469 292.328125 248.5625 292.636719 248.707031 292.988281 C 248.855469 293.339844 248.925781 293.707031 248.925781 294.085938 C 248.925781 294.46875 248.855469 294.832031 248.707031 295.183594 C 248.5625 295.535156 248.355469 295.847656 248.085938 296.113281 C 247.816406 296.382812 247.507812 296.589844 247.152344 296.738281 C 246.800781 296.882812 246.4375 296.957031 246.054688 296.957031 Z M 246.054688 296.957031 " fill-opacity="1" fill-rule="nonzero"/><path fill="rgb(7.449341%, 38.819885%, 93.728638%)" d="M 359.863281 145.390625 C 359.863281 146.613281 359.804688 147.832031 359.683594 149.046875 C 359.5625 150.261719 359.382812 151.46875 359.144531 152.664062 C 358.90625 153.863281 358.609375 155.046875 358.253906 156.214844 C 357.902344 157.382812 357.488281 158.53125 357.023438 159.660156 C 356.554688 160.789062 356.03125 161.890625 355.453125 162.964844 C 354.878906 164.042969 354.25 165.089844 353.570312 166.105469 C 352.890625 167.121094 352.164062 168.101562 351.390625 169.042969 C 350.613281 169.988281 349.792969 170.890625 348.929688 171.753906 C 348.0625 172.617188 347.160156 173.4375 346.214844 174.210938 C 345.269531 174.988281 344.289062 175.714844 343.269531 176.390625 C 342.253906 177.070312 341.207031 177.695312 340.128906 178.273438 C 339.050781 178.847656 337.945312 179.371094 336.816406 179.835938 C 335.6875 180.304688 334.535156 180.714844 333.367188 181.070312 C 332.195312 181.425781 331.011719 181.71875 329.8125 181.957031 C 328.613281 182.195312 327.40625 182.375 326.1875 182.496094 C 324.972656 182.617188 323.75 182.675781 322.527344 182.675781 C 321.304688 182.675781 320.085938 182.617188 318.871094 182.496094 C 317.652344 182.375 316.445312 182.195312 315.246094 181.957031 C 314.046875 181.71875 312.863281 181.425781 311.691406 181.070312 C 310.519531 180.714844 309.371094 180.304688 308.242188 179.835938 C 307.113281 179.371094 306.007812 178.847656 304.929688 178.273438 C 303.851562 177.695312 302.804688 177.070312 301.785156 176.390625 C 300.769531 175.714844 299.789062 174.988281 298.84375 174.210938 C 297.898438 173.4375 296.992188 172.617188 296.128906 171.753906 C 295.265625 170.890625 294.445312 169.988281 293.667969 169.042969 C 292.894531 168.101562 292.164062 167.121094 291.484375 166.105469 C 290.808594 165.089844 290.179688 164.042969 289.601562 162.964844 C 289.027344 161.890625 288.503906 160.789062 288.035156 159.660156 C 287.566406 158.53125 287.15625 157.382812 286.800781 156.214844 C 286.445312 155.046875 286.148438 153.863281 285.910156 152.664062 C 285.671875 151.46875 285.492188 150.261719 285.375 149.046875 C 285.253906 147.832031 285.195312 146.613281 285.195312 145.390625 C 285.195312 144.171875 285.253906 142.953125 285.375 141.738281 C 285.492188 140.519531 285.671875 139.316406 285.910156 138.117188 C 286.148438 136.917969 286.445312 135.738281 286.800781 134.566406 C 287.15625 133.398438 287.566406 132.25 288.035156 131.121094 C 288.503906 129.996094 289.027344 128.890625 289.601562 127.816406 C 290.179688 126.738281 290.808594 125.691406 291.484375 124.675781 C 292.164062 123.660156 292.894531 122.683594 293.667969 121.738281 C 294.445312 120.792969 295.265625 119.890625 296.128906 119.027344 C 296.992188 118.164062 297.898438 117.34375 298.84375 116.570312 C 299.789062 115.796875 300.769531 115.070312 301.785156 114.390625 C 302.804688 113.710938 303.851562 113.085938 304.929688 112.507812 C 306.007812 111.933594 307.113281 111.414062 308.242188 110.945312 C 309.371094 110.476562 310.519531 110.066406 311.691406 109.710938 C 312.863281 109.359375 314.046875 109.0625 315.246094 108.824219 C 316.445312 108.585938 317.652344 108.40625 318.871094 108.285156 C 320.085938 108.167969 321.304688 108.105469 322.527344 108.105469 C 323.75 108.105469 324.972656 108.167969 326.1875 108.285156 C 327.40625 108.40625 328.613281 108.585938 329.8125 108.824219 C 331.011719 109.0625 332.195312 109.359375 333.367188 109.710938 C 334.535156 110.066406 335.6875 110.476562 336.816406 110.945312 C 337.945312 111.414062 339.050781 111.933594 340.128906 112.507812 C 341.207031 113.085938 342.253906 113.710938 343.269531 114.390625 C 344.289062 115.070312 345.269531 115.796875 346.214844 116.570312 C 347.160156 117.34375 348.0625 118.164062 348.929688 119.027344 C 349.792969 119.890625 350.613281 120.792969 351.390625 121.738281 C 352.164062 122.683594 352.890625 123.660156 353.570312 124.675781 C 354.25 125.691406 354.878906 126.738281 355.453125 127.816406 C 356.03125 128.890625 356.554688 129.996094 357.023438 131.121094 C 357.488281 132.25 357.902344 133.398438 358.253906 134.566406 C 358.609375 135.738281 358.90625 136.917969 359.144531 138.117188 C 359.382812 139.316406 359.5625 140.519531 359.683594 141.738281 C 359.804688 142.953125 359.863281 144.171875 359.863281 145.390625 Z M 359.863281 145.390625 " fill-opacity="1" fill-rule="nonzero"/><path fill="rgb(13.729858%, 12.159729%, 12.548828%)" d="M 322.53125 177.511719 C 321.363281 177.511719 320.195312 177.457031 319.035156 177.347656 C 317.871094 177.238281 316.714844 177.074219 315.570312 176.855469 C 314.421875 176.636719 313.289062 176.367188 312.167969 176.042969 C 311.042969 175.71875 309.941406 175.34375 308.855469 174.917969 C 307.769531 174.488281 306.703125 174.011719 305.660156 173.484375 C 304.621094 172.957031 303.605469 172.382812 302.617188 171.761719 C 301.628906 171.140625 300.675781 170.472656 299.75 169.761719 C 298.824219 169.050781 297.933594 168.296875 297.082031 167.5 C 296.226562 166.707031 295.410156 165.871094 294.636719 165 C 293.859375 164.128906 293.125 163.222656 292.4375 162.28125 C 291.746094 161.34375 291.101562 160.371094 290.5 159.371094 C 289.902344 158.371094 289.351562 157.34375 288.847656 156.292969 C 288.34375 155.238281 287.890625 154.167969 287.488281 153.070312 C 287.085938 151.976562 286.738281 150.867188 286.4375 149.738281 C 286.140625 148.609375 285.898438 147.472656 285.707031 146.320312 C 285.515625 145.171875 285.378906 144.015625 285.296875 142.851562 C 285.238281 143.71875 285.195312 144.59375 285.195312 145.476562 C 285.195312 146.695312 285.253906 147.914062 285.375 149.128906 C 285.496094 150.34375 285.671875 151.550781 285.914062 152.75 C 286.152344 153.945312 286.449219 155.128906 286.800781 156.296875 C 287.15625 157.464844 287.570312 158.613281 288.035156 159.742188 C 288.503906 160.871094 289.027344 161.972656 289.601562 163.050781 C 290.179688 164.128906 290.808594 165.175781 291.488281 166.1875 C 292.167969 167.203125 292.894531 168.183594 293.667969 169.128906 C 294.445312 170.070312 295.265625 170.976562 296.128906 171.839844 C 296.996094 172.703125 297.898438 173.523438 298.84375 174.296875 C 299.789062 175.070312 300.769531 175.796875 301.789062 176.476562 C 302.804688 177.152344 303.851562 177.78125 304.929688 178.355469 C 306.007812 178.933594 307.113281 179.453125 308.242188 179.921875 C 309.371094 180.386719 310.523438 180.800781 311.691406 181.152344 C 312.863281 181.507812 314.046875 181.804688 315.246094 182.042969 C 316.445312 182.28125 317.652344 182.460938 318.871094 182.578125 C 320.085938 182.699219 321.304688 182.757812 322.53125 182.757812 C 323.753906 182.757812 324.972656 182.699219 326.1875 182.578125 C 327.40625 182.460938 328.613281 182.28125 329.8125 182.042969 C 331.011719 181.804688 332.195312 181.507812 333.367188 181.152344 C 334.535156 180.800781 335.6875 180.386719 336.816406 179.921875 C 337.945312 179.453125 339.050781 178.933594 340.128906 178.355469 C 341.207031 177.78125 342.253906 177.152344 343.269531 176.476562 C 344.289062 175.796875 345.269531 175.070312 346.214844 174.296875 C 347.160156 173.523438 348.0625 172.703125 348.929688 171.839844 C 349.792969 170.976562 350.613281 170.070312 351.390625 169.128906 C 352.164062 168.183594 352.890625 167.203125 353.570312 166.1875 C 354.25 165.175781 354.878906 164.128906 355.457031 163.050781 C 356.03125 161.972656 356.554688 160.871094 357.023438 159.742188 C 357.488281 158.613281 357.902344 157.464844 358.257812 156.296875 C 358.609375 155.128906 358.90625 153.945312 359.144531 152.75 C 359.386719 151.550781 359.5625 150.34375 359.683594 149.128906 C 359.804688 147.914062 359.863281 146.695312 359.863281 145.476562 C 359.863281 144.59375 359.820312 143.71875 359.761719 142.851562 C 359.679688 144.015625 359.542969 145.171875 359.351562 146.320312 C 359.160156 147.472656 358.917969 148.613281 358.617188 149.738281 C 358.320312 150.867188 357.96875 151.976562 357.566406 153.074219 C 357.164062 154.167969 356.714844 155.242188 356.210938 156.292969 C 355.707031 157.347656 355.15625 158.371094 354.554688 159.375 C 353.957031 160.375 353.3125 161.34375 352.621094 162.285156 C 351.929688 163.226562 351.195312 164.128906 350.421875 165.003906 C 349.644531 165.875 348.828125 166.707031 347.976562 167.503906 C 347.121094 168.296875 346.230469 169.050781 345.308594 169.761719 C 344.382812 170.472656 343.425781 171.140625 342.4375 171.761719 C 341.449219 172.386719 340.4375 172.960938 339.394531 173.488281 C 338.351562 174.015625 337.289062 174.492188 336.203125 174.917969 C 335.117188 175.34375 334.011719 175.722656 332.890625 176.042969 C 331.769531 176.367188 330.636719 176.640625 329.488281 176.855469 C 328.339844 177.074219 327.1875 177.238281 326.023438 177.347656 C 324.863281 177.457031 323.695312 177.511719 322.53125 177.511719 Z M 322.53125 177.511719 " fill-opacity="0.1569" fill-rule="nonzero"/><path fill="rgb(100%, 100%, 100%)" d="M 322.53125 163.609375 C 322.222656 163.609375 321.917969 163.582031 321.617188 163.519531 C 321.316406 163.460938 321.023438 163.371094 320.742188 163.253906 C 320.457031 163.136719 320.1875 162.992188 319.933594 162.824219 C 319.679688 162.652344 319.441406 162.457031 319.226562 162.242188 C 319.007812 162.023438 318.8125 161.789062 318.644531 161.535156 C 318.472656 161.28125 318.328125 161.011719 318.210938 160.726562 C 318.09375 160.445312 318.003906 160.152344 317.945312 159.851562 C 317.882812 159.550781 317.855469 159.25 317.855469 158.941406 L 317.855469 131.925781 C 317.855469 131.617188 317.882812 131.316406 317.945312 131.015625 C 318.003906 130.714844 318.09375 130.421875 318.210938 130.136719 C 318.328125 129.855469 318.472656 129.585938 318.640625 129.332031 C 318.8125 129.074219 319.007812 128.839844 319.222656 128.625 C 319.441406 128.40625 319.675781 128.210938 319.933594 128.042969 C 320.1875 127.871094 320.457031 127.726562 320.738281 127.609375 C 321.023438 127.492188 321.316406 127.40625 321.617188 127.34375 C 321.917969 127.285156 322.222656 127.253906 322.53125 127.253906 C 322.835938 127.253906 323.140625 127.285156 323.441406 127.34375 C 323.742188 127.40625 324.035156 127.492188 324.320312 127.609375 C 324.601562 127.726562 324.871094 127.871094 325.125 128.042969 C 325.382812 128.210938 325.617188 128.40625 325.835938 128.625 C 326.050781 128.839844 326.246094 129.074219 326.417969 129.332031 C 326.585938 129.585938 326.730469 129.855469 326.847656 130.136719 C 326.964844 130.421875 327.054688 130.714844 327.113281 131.015625 C 327.175781 131.316406 327.203125 131.617188 327.203125 131.925781 L 327.203125 158.941406 C 327.203125 159.25 327.175781 159.550781 327.113281 159.851562 C 327.054688 160.152344 326.964844 160.445312 326.847656 160.726562 C 326.730469 161.011719 326.585938 161.28125 326.414062 161.535156 C 326.246094 161.789062 326.050781 162.023438 325.832031 162.242188 C 325.617188 162.457031 325.382812 162.652344 325.125 162.824219 C 324.871094 162.992188 324.601562 163.136719 324.316406 163.253906 C 324.035156 163.371094 323.742188 163.460938 323.441406 163.519531 C 323.140625 163.582031 322.835938 163.609375 322.53125 163.609375 Z M 322.53125 163.609375 " fill-opacity="1" fill-rule="nonzero"/><path fill="rgb(100%, 100%, 100%)" d="M 304.328125 145.433594 C 304.328125 145.125 304.359375 144.824219 304.417969 144.523438 C 304.476562 144.222656 304.566406 143.929688 304.683594 143.648438 C 304.800781 143.363281 304.945312 143.09375 305.117188 142.839844 C 305.285156 142.585938 305.480469 142.351562 305.699219 142.132812 C 305.914062 141.917969 306.152344 141.722656 306.40625 141.550781 C 306.660156 141.382812 306.929688 141.238281 307.214844 141.121094 C 307.496094 141.003906 307.789062 140.914062 308.089844 140.855469 C 308.390625 140.792969 308.695312 140.765625 309.003906 140.765625 L 336.054688 140.765625 C 336.363281 140.765625 336.667969 140.792969 336.96875 140.855469 C 337.269531 140.914062 337.5625 141.003906 337.84375 141.121094 C 338.128906 141.238281 338.398438 141.378906 338.652344 141.550781 C 338.910156 141.722656 339.144531 141.914062 339.363281 142.132812 C 339.578125 142.347656 339.773438 142.585938 339.945312 142.839844 C 340.113281 143.09375 340.257812 143.363281 340.375 143.644531 C 340.492188 143.929688 340.582031 144.222656 340.640625 144.523438 C 340.703125 144.824219 340.730469 145.125 340.730469 145.433594 C 340.730469 145.738281 340.703125 146.042969 340.640625 146.34375 C 340.582031 146.644531 340.492188 146.9375 340.375 147.21875 C 340.257812 147.503906 340.113281 147.773438 339.945312 148.027344 C 339.773438 148.28125 339.578125 148.519531 339.363281 148.734375 C 339.144531 148.953125 338.910156 149.144531 338.652344 149.316406 C 338.398438 149.484375 338.128906 149.628906 337.84375 149.746094 C 337.5625 149.863281 337.269531 149.953125 336.96875 150.011719 C 336.667969 150.074219 336.363281 150.101562 336.054688 150.101562 L 309.003906 150.101562 C 308.695312 150.101562 308.390625 150.070312 308.089844 150.011719 C 307.789062 149.953125 307.496094 149.863281 307.214844 149.746094 C 306.929688 149.628906 306.660156 149.484375 306.40625 149.3125 C 306.152344 149.144531 305.914062 148.949219 305.699219 148.734375 C 305.480469 148.515625 305.285156 148.28125 305.117188 148.027344 C 304.945312 147.769531 304.800781 147.503906 304.683594 147.21875 C 304.566406 146.9375 304.476562 146.644531 304.417969 146.34375 C 304.359375 146.042969 304.328125 145.738281 304.328125 145.433594 Z M 304.328125 145.433594 " fill-opacity="1" fill-rule="nonzero"/><path fill="rgb(100%, 72.158813%, 72.158813%)" d="M 378.652344 153.355469 L 370.707031 148.292969 L 360.269531 158.761719 L 340.566406 177.066406 C 340.214844 176.988281 339.855469 176.945312 339.492188 176.9375 C 339.128906 176.933594 338.769531 176.960938 338.414062 177.027344 C 338.058594 177.09375 337.710938 177.195312 337.375 177.328125 C 337.039062 177.464844 336.71875 177.632812 336.417969 177.832031 C 336.117188 178.03125 335.835938 178.261719 335.578125 178.515625 C 335.324219 178.773438 335.09375 179.050781 334.894531 179.351562 C 334.695312 179.65625 334.527344 179.972656 334.390625 180.308594 C 334.257812 180.644531 334.15625 180.992188 334.089844 181.347656 C 334.023438 181.703125 333.996094 182.0625 334.003906 182.425781 C 334.007812 182.785156 334.050781 183.144531 334.128906 183.496094 C 334.210938 183.851562 334.324219 184.191406 334.472656 184.523438 C 334.617188 184.851562 334.796875 185.164062 335.007812 185.460938 C 335.222656 185.753906 335.460938 186.023438 335.726562 186.269531 C 335.992188 186.515625 336.277344 186.734375 336.585938 186.921875 C 336.898438 187.113281 337.222656 187.265625 337.5625 187.390625 C 337.902344 187.511719 338.253906 187.601562 338.613281 187.652344 C 338.972656 187.707031 339.332031 187.722656 339.695312 187.703125 C 340.054688 187.679688 340.410156 187.625 340.761719 187.535156 C 341.113281 187.441406 341.449219 187.316406 341.777344 187.15625 C 342.101562 186.996094 342.40625 186.804688 342.695312 186.585938 C 342.980469 186.363281 343.242188 186.113281 343.480469 185.839844 C 343.714844 185.566406 343.921875 185.269531 344.101562 184.957031 C 344.277344 184.640625 344.421875 184.308594 344.53125 183.964844 C 344.640625 183.621094 344.714844 183.265625 344.753906 182.90625 L 366.484375 166.644531 Z M 378.652344 153.355469 " fill-opacity="1" fill-rule="nonzero"/><path fill="rgb(7.449341%, 38.819885%, 93.728638%)" d="M 373.859375 161.253906 L 368.105469 148.441406 L 368.230469 148.28125 C 368.3125 148.183594 376.246094 138.191406 382.621094 132.335938 C 383.316406 131.652344 384.128906 131.148438 385.046875 130.824219 C 385.96875 130.5 386.914062 130.382812 387.886719 130.476562 C 388.5625 130.535156 389.214844 130.6875 389.84375 130.933594 C 390.476562 131.183594 391.058594 131.515625 391.589844 131.933594 C 392.125 132.351562 392.585938 132.835938 392.976562 133.386719 C 393.371094 133.9375 393.675781 134.535156 393.890625 135.175781 C 394.140625 135.84375 394.289062 136.535156 394.339844 137.246094 C 394.386719 137.960938 394.335938 138.664062 394.183594 139.363281 C 394.027344 140.058594 393.777344 140.71875 393.433594 141.34375 C 393.089844 141.96875 392.664062 142.535156 392.15625 143.035156 Z M 373.859375 161.253906 " fill-opacity="1" fill-rule="nonzero"/><path fill="rgb(100%, 72.158813%, 72.158813%)" d="M 391.550781 106.671875 C 391.550781 107.488281 391.46875 108.300781 391.3125 109.101562 C 391.152344 109.90625 390.914062 110.6875 390.601562 111.441406 C 390.285156 112.199219 389.902344 112.917969 389.445312 113.601562 C 388.988281 114.28125 388.472656 114.910156 387.890625 115.488281 C 387.3125 116.070312 386.679688 116.585938 386 117.042969 C 385.316406 117.496094 384.597656 117.878906 383.839844 118.195312 C 383.082031 118.507812 382.300781 118.742188 381.496094 118.902344 C 380.691406 119.0625 379.878906 119.144531 379.0625 119.144531 C 378.242188 119.144531 377.429688 119.0625 376.625 118.902344 C 375.820312 118.742188 375.039062 118.507812 374.28125 118.195312 C 373.523438 117.878906 372.804688 117.496094 372.121094 117.042969 C 371.441406 116.585938 370.808594 116.070312 370.230469 115.488281 C 369.648438 114.910156 369.132812 114.28125 368.675781 113.601562 C 368.21875 112.917969 367.835938 112.199219 367.519531 111.441406 C 367.207031 110.6875 366.96875 109.90625 366.8125 109.101562 C 366.652344 108.300781 366.570312 107.488281 366.570312 106.671875 C 366.570312 105.851562 366.652344 105.039062 366.8125 104.238281 C 366.96875 103.433594 367.207031 102.652344 367.519531 101.898438 C 367.835938 101.140625 368.21875 100.421875 368.675781 99.742188 C 369.132812 99.058594 369.648438 98.429688 370.230469 97.851562 C 370.808594 97.269531 371.441406 96.753906 372.121094 96.300781 C 372.804688 95.84375 373.523438 95.460938 374.28125 95.144531 C 375.039062 94.832031 375.820312 94.597656 376.625 94.4375 C 377.429688 94.277344 378.242188 94.195312 379.0625 94.195312 C 379.878906 94.195312 380.691406 94.277344 381.496094 94.4375 C 382.300781 94.597656 383.082031 94.832031 383.839844 95.144531 C 384.597656 95.460938 385.316406 95.84375 386 96.300781 C 386.679688 96.753906 387.3125 97.269531 387.890625 97.851562 C 388.472656 98.429688 388.988281 99.058594 389.445312 99.742188 C 389.902344 100.421875 390.285156 101.140625 390.601562 101.898438 C 390.914062 102.652344 391.152344 103.433594 391.3125 104.238281 C 391.46875 105.039062 391.550781 105.851562 391.550781 106.671875 Z M 391.550781 106.671875 " fill-opacity="1" fill-rule="nonzero"/><path fill="rgb(100%, 72.158813%, 72.158813%)" d="M 359.65625 328.261719 L 354.492188 328.261719 L 352.035156 308.371094 L 359.65625 308.371094 Z M 359.65625 328.261719 " fill-opacity="1" fill-rule="nonzero"/><g clip-path="url(#clip-2)"><path fill="rgb(18.429565%, 18.03894%, 25.489807%)" d="M 362.378906 337.195312 L 358.679688 337.195312 L 358.015625 333.703125 L 356.324219 337.195312 L 346.503906 337.195312 C 346.019531 337.195312 345.585938 337.050781 345.195312 336.765625 C 344.804688 336.480469 344.539062 336.109375 344.394531 335.648438 C 344.253906 335.1875 344.257812 334.726562 344.417969 334.273438 C 344.574219 333.816406 344.851562 333.449219 345.25 333.175781 L 353.089844 327.769531 L 353.089844 324.238281 L 361.339844 324.730469 Z M 362.378906 337.195312 " fill-opacity="1" fill-rule="nonzero"/></g><path fill="rgb(100%, 72.158813%, 72.158813%)" d="M 424.367188 323.878906 L 419.570312 325.789062 L 409.921875 308.21875 L 417.003906 305.402344 Z M 424.367188 323.878906 " fill-opacity="1" fill-rule="nonzero"/><g clip-path="url(#clip-3)"><path fill="rgb(18.429565%, 18.03894%, 25.489807%)" d="M 430.210938 331.175781 L 426.769531 332.542969 L 424.863281 329.542969 L 424.582031 333.410156 L 415.457031 337.039062 C 415.007812 337.21875 414.550781 337.246094 414.082031 337.125 C 413.617188 337.003906 413.230469 336.753906 412.925781 336.378906 C 412.621094 336.003906 412.457031 335.574219 412.4375 335.09375 C 412.414062 334.613281 412.535156 334.171875 412.804688 333.769531 L 418.085938 325.847656 L 416.78125 322.566406 L 424.625 319.976562 Z M 430.210938 331.175781 " fill-opacity="1" fill-rule="nonzero"/></g><path fill="rgb(18.429565%, 18.03894%, 25.489807%)" d="M 361.648438 319.125 L 350.96875 319.125 L 353.917969 269.015625 L 351.761719 235.050781 L 351.765625 235.023438 L 359.8125 186.332031 C 360.128906 184.414062 360.707031 182.574219 361.546875 180.820312 C 362.386719 179.0625 363.453125 177.460938 364.746094 176.007812 L 364.84375 175.894531 L 391.777344 182.539062 L 394.484375 188.703125 C 403.734375 194.195312 406.652344 225.167969 406.773438 226.488281 L 410.6875 265.09375 L 420.261719 312.410156 L 413.519531 316.039062 L 413.40625 315.8125 L 392.117188 273.539062 L 378.671875 228.953125 L 370.0625 269.078125 Z M 361.648438 319.125 " fill-opacity="1" fill-rule="nonzero"/><path fill="rgb(18.429565%, 18.03894%, 25.489807%)" d="M 394.527344 107.257812 C 394.085938 104.359375 393.625 101.433594 392.585938 98.703125 C 391.546875 95.972656 389.875 93.417969 387.472656 91.871094 C 383.671875 89.421875 378.75 89.894531 374.488281 91.304688 C 371.195312 92.390625 367.976562 94.046875 365.652344 96.710938 C 363.328125 99.371094 362.023438 103.167969 362.886719 106.648438 C 367.433594 105.574219 371.980469 104.503906 376.523438 103.429688 L 376.027344 103.78125 C 376.773438 104.152344 377.46875 104.605469 378.113281 105.132812 C 378.753906 105.664062 379.332031 106.257812 379.839844 106.921875 C 380.347656 107.582031 380.773438 108.289062 381.121094 109.046875 C 381.464844 109.804688 381.722656 110.59375 381.886719 111.410156 C 382.214844 113.082031 382.171875 114.746094 381.75 116.398438 C 381.332031 118.050781 380.574219 119.53125 379.488281 120.84375 C 382.589844 119.746094 385.6875 118.648438 388.789062 117.550781 C 390.703125 116.871094 392.75 116.089844 393.886719 114.351562 C 395.203125 112.335938 394.894531 109.664062 394.527344 107.257812 Z M 394.527344 107.257812 " fill-opacity="1" fill-rule="nonzero"/><g clip-path="url(#clip-4)"><path fill="rgb(79.998779%, 79.998779%, 79.998779%)" d="M 128.703125 337.074219 L 471.355469 337.074219 C 471.539062 337.074219 471.691406 337.011719 471.820312 336.882812 C 471.949219 336.757812 472.011719 336.601562 472.011719 336.421875 C 472.011719 336.242188 471.949219 336.085938 471.820312 335.960938 C 471.691406 335.832031 471.539062 335.765625 471.355469 335.765625 L 128.703125 335.765625 C 128.519531 335.765625 128.367188 335.832031 128.238281 335.957031 C 128.109375 336.085938 128.046875 336.242188 128.046875 336.421875 C 128.046875 336.601562 128.109375 336.757812 128.238281 336.882812 C 128.367188 337.011719 128.519531 337.074219 128.703125 337.074219 Z M 128.703125 337.074219 " fill-opacity="1" fill-rule="nonzero"/></g></svg>