<svg id="visual" viewBox="0 0 900 600" width="900" height="600" xmlns="http://www.w3.org/2000/svg" xmlns:xlink="http://www.w3.org/1999/xlink" version="1.1"><path d="M0 541L12.5 537.8C25 534.7 50 528.3 75 524.5C100 520.7 125 519.3 150 523C175 526.7 200 535.3 225 539C250 542.7 275 541.3 300 538.7C325 536 350 532 375 529.2C400 526.3 425 524.7 450 521.7C475 518.7 500 514.3 525 513.3C550 512.3 575 514.7 600 516C625 517.3 650 517.7 675 519.5C700 521.3 725 524.7 750 526.5C775 528.3 800 528.7 825 524.3C850 520 875 511 887.5 506.5L900 502L900 601L887.5 601C875 601 850 601 825 601C800 601 775 601 750 601C725 601 700 601 675 601C650 601 625 601 600 601C575 601 550 601 525 601C500 601 475 601 450 601C425 601 400 601 375 601C350 601 325 601 300 601C275 601 250 601 225 601C200 601 175 601 150 601C125 601 100 601 75 601C50 601 25 601 12.5 601L0 601Z" fill="#4facf7"></path><path d="M0 534L12.5 533.7C25 533.3 50 532.7 75 537.2C100 541.7 125 551.3 150 555C175 558.7 200 556.3 225 555.7C250 555 275 556 300 552.5C325 549 350 541 375 537C400 533 425 533 450 536.3C475 539.7 500 546.3 525 547.5C550 548.7 575 544.3 600 546.2C625 548 650 556 675 558.2C700 560.3 725 556.7 750 556.3C775 556 800 559 825 555.3C850 551.7 875 541.3 887.5 536.2L900 531L900 601L887.5 601C875 601 850 601 825 601C800 601 775 601 750 601C725 601 700 601 675 601C650 601 625 601 600 601C575 601 550 601 525 601C500 601 475 601 450 601C425 601 400 601 375 601C350 601 325 601 300 601C275 601 250 601 225 601C200 601 175 601 150 601C125 601 100 601 75 601C50 601 25 601 12.5 601L0 601Z" fill="#0071eb"></path><path d="M0 572L12.5 570.2C25 568.3 50 564.7 75 563.7C100 562.7 125 564.3 150 564.7C175 565 200 564 225 564C250 564 275 565 300 566.8C325 568.7 350 571.3 375 570.8C400 570.3 425 566.7 450 564.8C475 563 500 563 525 566.2C550 569.3 575 575.7 600 576.8C625 578 650 574 675 570.8C700 567.7 725 565.3 750 565.7C775 566 800 569 825 572C850 575 875 578 887.5 579.5L900 581L900 601L887.5 601C875 601 850 601 825 601C800 601 775 601 750 601C725 601 700 601 675 601C650 601 625 601 600 601C575 601 550 601 525 601C500 601 475 601 450 601C425 601 400 601 375 601C350 601 325 601 300 601C275 601 250 601 225 601C200 601 175 601 150 601C125 601 100 601 75 601C50 601 25 601 12.5 601L0 601Z" fill="#2e24c7"></path></svg>