<?xml version="1.0" encoding="UTF-8"?>
<svg xmlns="http://www.w3.org/2000/svg" xmlns:xlink="http://www.w3.org/1999/xlink" width="80px" height="80px" viewBox="0 0 80 80" version="1.1">
<g id="surface1">
<path style=" stroke:none;fill-rule:nonzero;fill:rgb(0%,0%,0%);fill-opacity:1;" d="M 37.1875 0.09375 C 36.890625 0.125 35.96875 0.234375 35.15625 0.3125 C 30 0.875 24.296875 2.8125 19.6875 5.5625 C 13.828125 9.0625 9.0625 13.828125 5.5625 19.6875 C 2.828125 24.25 1.015625 29.5625 0.28125 35.15625 C 0.03125 37.078125 0.03125 42.921875 0.28125 44.84375 C 1.5625 54.578125 5.84375 62.8125 13.09375 69.546875 C 17.09375 73.28125 22.078125 76.1875 27.5 77.96875 C 31.78125 79.390625 35.171875 79.90625 40 79.90625 C 43.5625 79.90625 45.140625 79.765625 48.28125 79.125 C 59.046875 76.921875 68.65625 70.015625 74.4375 60.3125 C 77.171875 55.75 78.984375 50.4375 79.71875 44.84375 C 79.96875 42.921875 79.96875 37.078125 79.71875 35.15625 C 78.984375 29.5625 77.171875 24.25 74.4375 19.6875 C 70.9375 13.828125 66.171875 9.0625 60.3125 5.5625 C 55.796875 2.859375 50.40625 1.015625 45 0.3125 C 43.625 0.125 38.15625 -0.015625 37.1875 0.09375 Z M 60 24.71875 C 60.828125 25.296875 61.15625 25.84375 61.15625 26.671875 C 61.140625 27.625 60.78125 28.3125 60.046875 28.78125 L 59.453125 29.140625 L 20.546875 29.140625 L 19.953125 28.78125 C 19.21875 28.3125 18.859375 27.625 18.84375 26.671875 C 18.84375 25.84375 19.171875 25.296875 20 24.71875 L 20.515625 24.375 L 59.484375 24.375 Z M 63.25 37.96875 C 64.75 38.890625 64.75 41.109375 63.25 42.03125 C 62.734375 42.34375 62.40625 42.34375 40 42.34375 C 17.59375 42.34375 17.265625 42.34375 16.75 42.03125 C 15.25 41.109375 15.25 38.890625 16.75 37.96875 C 17.265625 37.65625 17.59375 37.65625 40 37.65625 C 62.40625 37.65625 62.734375 37.65625 63.25 37.96875 Z M 60.046875 51.21875 C 60.78125 51.6875 61.140625 52.375 61.15625 53.328125 C 61.15625 54.15625 60.828125 54.703125 60 55.265625 L 59.484375 55.625 L 20.515625 55.625 L 20 55.265625 C 19.171875 54.703125 18.84375 54.15625 18.84375 53.328125 C 18.859375 52.078125 19.515625 51.21875 20.703125 50.921875 C 20.953125 50.859375 29.78125 50.828125 40.3125 50.828125 L 59.453125 50.859375 Z M 60.046875 51.21875 "/>
</g>
</svg>
